<svg width="18" height="21" viewBox="0 0 18 21" fill="none" xmlns="http://www.w3.org/2000/svg">
<path id="Fill 1" fill-rule="evenodd" clip-rule="evenodd" d="M14.4623 10.9617C14.4743 9.40277 15.2903 7.96587 16.6222 7.15293C15.7822 5.94601 14.4273 5.20406 12.9624 5.15307C11.3995 4.99308 9.96263 6.063 9.13069 6.063C8.30275 6.063 7.13083 5.17307 5.82992 5.19206C4.10404 5.25106 2.53315 6.21199 1.6932 7.72389C-0.0676752 10.7817 1.24023 15.3324 3.00211 17.8012C3.80306 19.0121 4.80299 20.383 6.1229 20.332C7.44281 20.281 7.87278 19.5121 9.40067 19.5121C10.9316 19.5121 11.3995 20.332 12.7004 20.301C14.0014 20.274 14.9233 19.0631 15.7632 17.8522C16.3572 16.9733 16.8212 16.0123 17.1421 15.0044C15.5212 14.3134 14.4663 12.7235 14.4623 10.9617ZM11.9425 3.52428C12.7044 2.64234 13.0874 1.49342 13.0014 0.333496C11.8415 0.42749 10.7635 0.974452 10.0016 1.85339C9.26365 2.70433 8.90367 3.82126 9.00167 4.94218C10.1506 4.95418 11.2355 4.42721 11.9425 3.52428Z" fill="#1D1D1B"/>
</svg>
