<svg width="21" height="20" viewBox="0 0 21 20" fill="none" xmlns="http://www.w3.org/2000/svg">
<path d="M6.43667 3.70754C8.00083 3.08171 8.93417 2.70837 10.0833 2.70837C11.2325 2.70837 12.1658 3.08171 13.73 3.70754L16.205 4.69754C17 5.01587 17.6442 5.27254 18.0867 5.50504C18.31 5.62171 18.5267 5.75504 18.6942 5.91587C18.8658 6.08087 19.0417 6.33087 19.0417 6.66671C19.0417 7.00254 18.8667 7.25254 18.6942 7.41754C18.5275 7.57837 18.3108 7.71087 18.0858 7.82837C17.6442 8.06004 17 8.31754 16.2042 8.63671L13.7292 9.62587C12.1667 10.2517 11.2333 10.625 10.0833 10.625C8.93333 10.625 8.00083 10.2517 6.43667 9.62587L3.9625 8.63587C3.16667 8.31754 2.5225 8.06087 2.08 7.82837C1.85955 7.72006 1.65511 7.58181 1.4725 7.41754C1.30083 7.25254 1.125 7.00254 1.125 6.66671C1.125 6.33087 1.3 6.08087 1.4725 5.91587C1.63917 5.75504 1.85583 5.62254 2.08083 5.50504C2.5225 5.27337 3.16667 5.01587 3.9625 4.69671L6.43667 3.70754Z" fill="url(#paint0_linear_245_3382)" fill-opacity="0.6"/>
<path fill-rule="evenodd" clip-rule="evenodd" d="M2.16672 9.53499V9.53332L2.16922 9.53582L2.18922 9.55332C2.20922 9.56998 2.242 9.5961 2.28756 9.63165C2.37839 9.70165 2.51922 9.80499 2.71089 9.92915C3.09422 10.1783 3.67839 10.51 4.46422 10.8242L6.80506 11.76C8.49256 12.435 9.20006 12.7083 10.0834 12.7083C10.9667 12.7083 11.6751 12.435 13.3617 11.76L15.7026 10.8242C16.315 10.5842 16.9023 10.2844 17.4559 9.92915C17.6429 9.80719 17.8237 9.67592 17.9976 9.53582L18.0001 9.53415L18.0009 9.53332C18.1246 9.42395 18.2866 9.36798 18.4514 9.37765C18.6163 9.38731 18.7706 9.46182 18.8807 9.5849C18.9908 9.70798 19.0477 9.86963 19.039 10.0345C19.0303 10.1994 18.9567 10.3542 18.8342 10.465L18.8334 10.4667L18.8317 10.4675L18.8276 10.4708L18.8159 10.4808L18.7784 10.5133C18.5728 10.6795 18.3587 10.8347 18.1367 10.9783C17.5141 11.3763 16.8544 11.7129 16.1667 11.9833L13.8259 12.92L13.7301 12.9583C12.1659 13.5842 11.2326 13.9575 10.0834 13.9575C8.93422 13.9575 8.00089 13.5842 6.43672 12.9583L6.34089 12.92L4.00006 11.9833C3.31267 11.7125 2.65319 11.3757 2.03089 10.9775C1.80867 10.8339 1.5942 10.6787 1.38839 10.5125L1.35089 10.48L1.33922 10.47L1.33506 10.4667L1.33422 10.465H1.33339L1.75006 9.99999L1.33339 10.4658C1.20973 10.3553 1.13504 10.2002 1.12574 10.0346C1.12114 9.95264 1.13272 9.87055 1.15985 9.79304C1.18697 9.71554 1.22909 9.64413 1.28381 9.5829C1.33852 9.52167 1.40476 9.47182 1.47875 9.43619C1.55273 9.40056 1.63301 9.37986 1.715 9.37525C1.88057 9.36595 2.04307 9.42281 2.16672 9.53332M2.16589 12.8667C2.04232 12.7568 1.88024 12.7003 1.71514 12.7097C1.55005 12.7191 1.3954 12.7935 1.28506 12.9167L2.16589 12.8667ZM2.16589 12.8667L2.16922 12.8692L2.18922 12.8867C2.20922 12.9033 2.242 12.9294 2.28756 12.965C2.37839 13.035 2.51922 13.1383 2.71089 13.2625C3.09422 13.5117 3.67839 13.8425 4.46422 14.1575L6.80506 15.0933C8.49256 15.7683 9.20006 16.0417 10.0834 16.0417C10.9667 16.0417 11.6751 15.7683 13.3617 15.0933L15.7026 14.1575C16.315 13.9175 16.9023 13.6178 17.4559 13.2625C17.6429 13.1405 17.8237 13.0093 17.9976 12.8692L18.0001 12.8675L18.0009 12.8667C18.1246 12.7573 18.2866 12.7013 18.4514 12.711C18.6163 12.7206 18.7706 12.7952 18.8807 12.9182C18.9908 13.0413 19.0477 13.203 19.039 13.3679C19.0303 13.5328 18.9567 13.6875 18.8342 13.7983L18.8326 13.8L18.8317 13.8008L18.8276 13.8042L18.8159 13.8142C18.807 13.8225 18.7945 13.833 18.7784 13.8458C18.5728 14.012 18.3587 14.1672 18.1367 14.3108C17.5142 14.7094 16.8544 15.0465 16.1667 15.3175L13.8259 16.2542L13.7301 16.2925C12.1659 16.9183 11.2326 17.2917 10.0834 17.2917C8.93422 17.2917 8.00089 16.9183 6.43672 16.2925L6.34089 16.2542L4.00006 15.3167C3.31267 15.0459 2.65319 14.709 2.03089 14.3108C1.80867 14.1673 1.5942 14.012 1.38839 13.8458L1.35089 13.8133L1.33922 13.8033L1.33506 13.8L1.33422 13.7983H1.33339C1.27215 13.7435 1.22232 13.678 1.18674 13.604C1.15116 13.5299 1.13054 13.4496 1.12605 13.3675C1.12156 13.2855 1.1333 13.2033 1.16058 13.1258C1.18786 13.0483 1.23016 12.977 1.28506 12.9158" fill="url(#paint1_linear_245_3382)" fill-opacity="0.6"/>
<defs>
<linearGradient id="paint0_linear_245_3382" x1="1.125" y1="6.66671" x2="21.9283" y2="10.8081" gradientUnits="userSpaceOnUse">
<stop stop-color="#C50000"/>
<stop offset="1" stop-color="#9D00DB"/>
</linearGradient>
<linearGradient id="paint1_linear_245_3382" x1="1.12476" y1="13.333" x2="21.9265" y2="17.4733" gradientUnits="userSpaceOnUse">
<stop stop-color="#C50000"/>
<stop offset="1" stop-color="#9D00DB"/>
</linearGradient>
</defs>
</svg>
