<svg width="21" height="20" viewBox="0 0 21 20" fill="none" xmlns="http://www.w3.org/2000/svg">
<path d="M18.4167 9.99992C18.4167 9.99992 17.5892 10.7416 15.9342 11.4041L13.5942 12.3408C11.9392 13.0024 11.1108 13.3333 10.0833 13.3333C9.05583 13.3333 8.2275 13.0024 6.5725 12.3408L4.23333 11.4041C2.5775 10.7424 1.75 9.99992 1.75 9.99992M1.75 13.3333C1.75 13.3333 2.5775 14.0749 4.2325 14.7374L6.5725 15.6741C8.2275 16.3358 9.05583 16.6666 10.0833 16.6666C10.8783 16.6666 11.5533 16.4691 12.5833 16.0733M15.9342 14.7374C17.5892 14.0758 18.4167 13.3333 18.4167 13.3333M4.2325 5.26242C2.5775 5.92409 1.75 6.25492 1.75 6.66659C1.75 7.07825 2.5775 7.40825 4.2325 8.07075L6.5725 9.00742C8.2275 9.66909 9.05583 9.99992 10.0833 9.99992C11.1108 9.99992 11.9392 9.66909 13.5942 9.00742L15.9342 8.07075C17.5892 7.40909 18.4167 7.07825 18.4167 6.66659C18.4167 6.25492 17.5892 5.92492 15.9342 5.26242L13.5942 4.32659C11.9392 3.66409 11.1108 3.33325 10.0833 3.33325C9.28833 3.33325 8.61333 3.53075 7.58333 3.92659" stroke="#7F8C8D" stroke-width="1.25" stroke-linecap="round"/>
</svg>
