<svg width="24" height="24" viewBox="0 0 24 24" fill="none" xmlns="http://www.w3.org/2000/svg">
<g id="Filter/Icon">
<path id="Vector" d="M6.16667 19.5L6.16667 13.6667M6.16667 13.6667C7.08714 13.6667 7.83333 12.9205 7.83333 12C7.83333 11.0795 7.08714 10.3333 6.16667 10.3333M6.16667 13.6667C5.24619 13.6667 4.5 12.9205 4.5 12C4.5 11.0795 5.24619 10.3333 6.16667 10.3333M12 19.5V12M12 6.16667V4.5M12 6.16667C12.9205 6.16667 13.6667 6.91286 13.6667 7.83333C13.6667 8.75381 12.9205 9.5 12 9.5C11.0795 9.5 10.3333 8.75381 10.3333 7.83333C10.3333 6.91286 11.0795 6.16667 12 6.16667ZM6.16667 10.3333L6.16667 4.5M17.8333 12V4.5M17.8333 19.5V17.8333M17.8333 17.8333C18.7538 17.8333 19.5 17.0871 19.5 16.1667C19.5 15.2462 18.7538 14.5 17.8333 14.5C16.9129 14.5 16.1667 15.2462 16.1667 16.1667C16.1667 17.0871 16.9129 17.8333 17.8333 17.8333Z" stroke="#7F8C8D" stroke-width="1.25" stroke-linecap="round"/>
</g>
</svg>
