<svg width="19" height="19" viewBox="0 0 19 19" fill="none" xmlns="http://www.w3.org/2000/svg">
<g id="Group 108">
<path id="Vector" d="M18.5004 9.53892C18.5012 8.92563 18.4483 8.31341 18.3423 7.70898H9.68262V11.1751H14.6425C14.541 11.7287 14.3262 12.2564 14.011 12.7265C13.6958 13.1965 13.2868 13.5991 12.8085 13.91V16.16H15.7686C17.5018 14.5938 18.5004 12.2776 18.5004 9.53892Z" fill="#4285F4"/>
<path id="Vector_2" d="M9.68192 18.3334C12.1599 18.3334 14.2464 17.5359 15.7679 16.161L12.8078 13.9111C11.9839 14.4585 10.9228 14.771 9.68192 14.771C7.2868 14.771 5.25388 13.1886 4.52692 11.0562H1.47754V13.3748C2.24182 14.8654 3.41376 16.1184 4.86252 16.994C6.31128 17.8696 7.97984 18.3333 9.68192 18.3334V18.3334Z" fill="#34A853"/>
<path id="Vector_3" d="M4.52717 11.0565C4.14285 9.93912 4.14285 8.72905 4.52717 7.61164V5.29297H1.47778C0.834843 6.54687 0.5 7.93075 0.5 9.33409C0.5 10.7374 0.834843 12.1213 1.47778 13.3752L4.52717 11.0565Z" fill="#FBBC04"/>
<path id="Vector_4" d="M9.68192 3.89647C10.9914 3.8755 12.2568 4.36042 13.2045 5.24643L15.8253 2.67776C14.1634 1.1479 11.9618 0.307989 9.68192 0.334087C7.97984 0.334163 6.31128 0.79789 4.86252 1.6735C3.41376 2.5491 2.24182 3.80213 1.47754 5.29267L4.52692 7.61135C5.25388 5.47892 7.2868 3.89647 9.68192 3.89647V3.89647Z" fill="#EA4335"/>
</g>
</svg>
