<svg width="21" height="20" viewBox="0 0 21 20" fill="none" xmlns="http://www.w3.org/2000/svg">
<path fill-rule="evenodd" clip-rule="evenodd" d="M2.18333 6.51913C1.75 7.30829 1.75 8.26246 1.75 10.1691V11.4375C1.75 14.6875 1.75 16.3133 2.72667 17.3233C3.70333 18.3333 5.27417 18.3333 8.41667 18.3333H11.75C14.8925 18.3333 16.4642 18.3333 17.44 17.3233C18.4158 16.3133 18.4167 14.6883 18.4167 11.4375V10.17C18.4167 8.26246 18.4167 7.30913 17.9833 6.51913C17.5517 5.72829 16.7608 5.23829 15.18 4.25663L13.5133 3.22246C11.8425 2.18496 11.0067 1.66663 10.0833 1.66663C9.16 1.66663 8.325 2.18496 6.65333 3.22246L4.98667 4.25663C3.40583 5.23829 2.61583 5.72829 2.18333 6.51913ZM9.45833 15C9.45833 15.1657 9.52418 15.3247 9.64139 15.4419C9.7586 15.5591 9.91757 15.625 10.0833 15.625C10.2491 15.625 10.4081 15.5591 10.5253 15.4419C10.6425 15.3247 10.7083 15.1657 10.7083 15V12.5C10.7083 12.3342 10.6425 12.1752 10.5253 12.058C10.4081 11.9408 10.2491 11.875 10.0833 11.875C9.91757 11.875 9.7586 11.9408 9.64139 12.058C9.52418 12.1752 9.45833 12.3342 9.45833 12.5V15Z" fill="url(#paint0_linear_245_3378)" fill-opacity="0.6"/>
<defs>
<linearGradient id="paint0_linear_245_3378" x1="1.75" y1="9.99996" x2="21.7144" y2="11.7561" gradientUnits="userSpaceOnUse">
<stop stop-color="#C50000"/>
<stop offset="1" stop-color="#9D00DB"/>
</linearGradient>
</defs>
</svg>
