<svg width="21" height="20" viewBox="0 0 21 20" fill="none" xmlns="http://www.w3.org/2000/svg">
<path d="M10.0833 12.5V15M18.4167 10.17V11.4375C18.4167 14.6875 18.4167 16.3133 17.44 17.3233C16.4633 18.3333 14.8925 18.3333 11.75 18.3333H8.41667C5.27417 18.3333 3.7025 18.3333 2.72667 17.3233C1.75083 16.3133 1.75 14.6883 1.75 11.4375V10.17C1.75 8.26246 1.75 7.30913 2.18333 6.51913C2.615 5.72829 3.40583 5.23829 4.98667 4.25663L6.65333 3.22246C8.32417 2.18496 9.16 1.66663 10.0833 1.66663C11.0067 1.66663 11.8417 2.18496 13.5133 3.22246L15.18 4.25663C16.7608 5.23829 17.5517 5.72829 17.9842 6.51913" stroke="#7F8C8D" stroke-width="1.25" stroke-linecap="round"/>
</svg>
