<svg width="136" height="100" viewBox="0 0 136 100" fill="none" xmlns="http://www.w3.org/2000/svg">
<g clip-path="url(#clip0_323_2377)">
<path d="M52.4229 87.8294C49.7173 87.1761 47.1355 86.0834 44.7791 84.5943C41.7453 82.7135 40.4993 79.7292 40.5242 76.0678C40.6052 62.2749 40.5242 48.482 40.6177 34.6891C40.6177 32.4508 40.2252 31.4728 37.6835 31.1405C27.4793 29.8239 17.5554 27.3788 8.28568 22.0623L47.7818 18.3006V74.9832H45.7509V76.538H56.3414V74.9832H54.3292V50.7515H57.1637C59.7221 50.8095 62.2062 49.8835 64.1098 48.1622C65.0127 47.404 65.7383 46.4546 66.2347 45.3817C66.7311 44.3088 66.9861 43.1389 66.9817 41.9554V25.0277C66.9857 23.8443 66.7305 22.6746 66.2341 21.6017C65.7377 20.5289 65.0124 19.5795 64.1098 18.8209C62.2062 17.0997 59.7221 16.1737 57.1637 16.2316H54.2856C54.0489 12.4699 52.6596 11.5985 48.193 11.8931C45.8257 12.0499 43.4709 12.3383 40.5554 12.6204C40.5554 9.51698 40.5554 6.65181 40.5554 3.78038C40.5118 0.0562886 39.3095 -0.777556 35.9704 0.645622C25.5419 5.01547 15.1259 9.44174 4.66001 13.7238C1.42058 15.0467 0.000216377 17.3225 0.000216377 20.6892C0.000216377 39.1759 0.000216377 57.6626 0.000216377 76.1493C-0.0637463 77.4708 0.255549 78.7825 0.919207 79.9246C1.58286 81.0667 2.56224 81.99 3.73802 82.5818C8.97718 85.2526 14.2537 87.9862 19.7857 89.9109C29.9089 93.4218 40.381 95.7917 51.1271 95.9359C55.6684 95.9672 60.1868 95.2883 64.5209 93.9234C69.5421 92.3497 71.872 88.0175 71.3736 83.0834C65.7295 87.773 59.3503 89.3654 52.4229 87.8294ZM54.3292 17.8053H57.1637C57.5981 17.8006 58.0287 17.8874 58.4278 18.0602C58.8269 18.2329 59.1857 18.4878 59.4811 18.8084C59.7916 19.1328 60.0351 19.516 60.1976 19.9356C60.3601 20.3553 60.4385 20.8032 60.428 21.2535V45.7673C60.4363 46.2174 60.3558 46.6648 60.1911 47.0834C60.0264 47.5021 59.7809 47.8836 59.4687 48.2061C59.1738 48.5279 58.8153 48.7839 58.4162 48.9578C58.017 49.1316 57.5861 49.2194 57.1512 49.2155H54.3292V17.8053ZM34.0205 8.45116V13.1658L20.8945 14.4887L20.7637 13.937L34.0205 8.45116ZM25.4297 56.3753C22.2277 58.8831 19.0132 61.3909 15.699 63.7858C14.0855 64.9394 12.7773 64.1181 12.7586 62.1182C12.7274 59.8423 12.7586 57.5728 12.7586 55.3032C12.7586 53.0336 12.7586 50.6763 12.7586 48.3629C12.7586 47.529 12.7586 46.5447 13.6619 46.3253C14.4244 46.1462 15.2262 46.2721 15.8983 46.6764C19.0942 48.9898 22.2215 51.4098 25.3425 53.8424C25.5471 53.98 25.7162 54.1645 25.8359 54.3808C25.9556 54.5971 26.0225 54.8389 26.031 55.0864C26.0395 55.3338 25.9894 55.5797 25.8849 55.8038C25.7803 56.0279 25.6243 56.2238 25.4297 56.3753Z" fill="#2C3E50"/>
<path d="M79.9138 31.3474C78.6964 31.3084 77.4836 31.5134 76.3456 31.9504C75.2077 32.3873 74.1675 33.0476 73.2854 33.8928C72.4321 34.692 71.7562 35.6637 71.3021 36.7442C70.8479 37.8246 70.6258 38.9895 70.6503 40.1623V68.2247C70.6258 69.3975 70.8479 70.5624 71.3021 71.6428C71.7562 72.7233 72.4321 73.695 73.2854 74.4942C75.1042 76.1332 77.4599 77.0395 79.9013 77.0395C82.3428 77.0395 84.6984 76.1332 86.5172 74.4942C87.3656 73.6921 88.037 72.7194 88.4877 71.6393C88.9385 70.5593 89.1586 69.3959 89.1337 68.2247V40.1247C89.1586 38.9535 88.9385 37.7901 88.4877 36.71C88.037 35.63 87.3656 34.6573 86.5172 33.8552C85.6373 33.0167 84.6001 32.363 83.4663 31.9324C82.3325 31.5018 81.1248 31.3029 79.9138 31.3474ZM82.7483 71.9926C82.7483 74.2915 81.8034 75.4409 79.9138 75.4409C78.0241 75.4409 77.0668 74.2915 77.0419 71.9926V36.363C77.0419 34.0642 77.9992 32.9148 79.9138 32.9148C81.8284 32.9148 82.7732 34.0642 82.7483 36.363V71.9926Z" fill="#2C3E50"/>
<path d="M111.928 39.2658C111.928 33.9869 109.613 31.3475 104.982 31.3475C103.249 31.2653 101.551 31.853 100.235 32.9901V16.2505H91.8125V17.8053H93.887V75.0209H91.8125V76.5757H102.309V75.0209H100.235V34.5512C100.598 34.1124 101.049 33.7548 101.557 33.5011C102.066 33.2474 102.621 33.1033 103.188 33.0778C104.758 33.0778 105.543 34.1708 105.543 36.3568V76.5757H113.965V75.0209H111.928V39.2658Z" fill="#2C3E50"/>
<path d="M133.937 75.0274V40.125C133.937 37.4584 133.152 35.3268 131.583 33.7301C130.013 32.1335 127.88 31.3394 125.185 31.3477C122.523 31.3477 120.4 32.1481 118.818 33.7489C117.236 35.3498 116.442 37.4751 116.438 40.125V45.4667H122.824V36.3633C122.824 34.0645 123.609 32.9151 125.179 32.9151C126.748 32.9151 127.546 34.0645 127.571 36.3633V50.8334H125.615C119.335 50.8334 116.195 53.6107 116.195 59.1655V69.0902C116.195 74.3649 118.457 77.0023 122.979 77.0023C124.663 77.0677 126.306 76.4796 127.571 75.3597V76.5822H135.993V75.0274H133.937ZM127.589 73.8048C127.249 74.2298 126.826 74.5798 126.346 74.8333C125.866 75.0867 125.339 75.2382 124.798 75.2782C123.332 75.2782 122.601 74.1852 122.606 71.9992V55.7988C122.606 53.5251 123.644 52.3882 125.72 52.3882H127.589V73.8048Z" fill="#2C3E50"/>
</g>
<path d="M79.7459 92.6255V92.0095C80.0539 91.9908 80.2732 91.9255 80.4039 91.8135C80.5439 91.7015 80.6326 91.5335 80.6699 91.3095C80.7072 91.0855 80.7259 90.8008 80.7259 90.4555V84.6315C80.7259 84.4262 80.7306 84.2302 80.7399 84.0435C80.7492 83.8475 80.7586 83.6795 80.7679 83.5395C80.6092 83.5488 80.4366 83.5582 80.2499 83.5675C80.0632 83.5768 79.8952 83.5862 79.7459 83.5955V82.8255H83.1899V83.4415C82.8912 83.4508 82.6719 83.5162 82.5319 83.6375C82.3919 83.7495 82.3032 83.9175 82.2659 84.1415C82.2286 84.3562 82.2099 84.6408 82.2099 84.9955V90.7915C82.2099 91.0435 82.2052 91.2675 82.1959 91.4635C82.1959 91.6502 82.1866 91.8042 82.1679 91.9255L84.5339 91.8975C85.1126 91.8882 85.5559 91.7015 85.8639 91.3375C86.1719 90.9642 86.3259 90.3762 86.3259 89.5735H86.9559L86.8719 92.6255H79.7459ZM91.1827 92.8495C90.5294 92.8495 89.9414 92.7002 89.4187 92.4015C88.9054 92.0935 88.4994 91.6642 88.2007 91.1135C87.902 90.5535 87.7527 89.8955 87.7527 89.1395C87.7527 88.4862 87.8974 87.8748 88.1867 87.3055C88.4854 86.7362 88.9007 86.2788 89.4327 85.9335C89.9647 85.5788 90.5807 85.4015 91.2807 85.4015C91.6727 85.4015 92.0414 85.4622 92.3867 85.5835C92.7414 85.7048 93.054 85.8962 93.3247 86.1575C93.6047 86.4095 93.824 86.7408 93.9827 87.1515C94.1414 87.5528 94.2207 88.0428 94.2207 88.6215L89.4047 88.7055C89.4047 89.3402 89.4747 89.9048 89.6147 90.3995C89.764 90.8942 90.002 91.2768 90.3287 91.5475C90.6554 91.8182 91.08 91.9535 91.6027 91.9535C91.8547 91.9535 92.1207 91.9115 92.4007 91.8275C92.69 91.7342 92.9607 91.6035 93.2127 91.4355C93.474 91.2675 93.6934 91.0668 93.8707 90.8335L94.3047 91.2115C94.0247 91.6315 93.7027 91.9628 93.3387 92.2055C92.9747 92.4388 92.6014 92.6022 92.2187 92.6955C91.8454 92.7982 91.5 92.8495 91.1827 92.8495ZM89.4607 87.9775H92.6947C92.6947 87.6228 92.6434 87.3055 92.5407 87.0255C92.4474 86.7362 92.298 86.5075 92.0927 86.3395C91.8874 86.1715 91.626 86.0875 91.3087 86.0875C90.814 86.0875 90.408 86.2462 90.0907 86.5635C89.7734 86.8715 89.5634 87.3428 89.4607 87.9775ZM98.6449 96.4195C97.8236 96.4195 97.1609 96.3262 96.6569 96.1395C96.1623 95.9622 95.8029 95.7288 95.5789 95.4395C95.3643 95.1595 95.2569 94.8608 95.2569 94.5435C95.2569 94.2915 95.3129 94.0582 95.4249 93.8435C95.5463 93.6288 95.7049 93.4375 95.9009 93.2695C96.0969 93.1108 96.3163 92.9848 96.5589 92.8915C96.2323 92.7888 95.9849 92.6442 95.8169 92.4575C95.6489 92.2615 95.5649 92.0235 95.5649 91.7435C95.5649 91.4448 95.6816 91.1508 95.9149 90.8615C96.1576 90.5722 96.5029 90.3762 96.9509 90.2735C96.5309 90.0868 96.1949 89.8162 95.9429 89.4615C95.6909 89.1068 95.5603 88.6868 95.5509 88.2015C95.5416 87.6415 95.6816 87.1515 95.9709 86.7315C96.2696 86.3115 96.6476 85.9848 97.1049 85.7515C97.5716 85.5182 98.0569 85.4015 98.5609 85.4015C98.8503 85.4015 99.1489 85.4435 99.4569 85.5275C99.7649 85.6022 100.045 85.7235 100.297 85.8915C100.4 85.6208 100.535 85.3735 100.703 85.1495C100.871 84.9255 101.067 84.7482 101.291 84.6175C101.524 84.4868 101.767 84.4215 102.019 84.4215C102.29 84.4215 102.495 84.4915 102.635 84.6315C102.775 84.7715 102.845 84.9582 102.845 85.1915C102.845 85.2662 102.822 85.3595 102.775 85.4715C102.738 85.5742 102.668 85.6628 102.565 85.7375C102.462 85.8122 102.322 85.8495 102.145 85.8495C101.996 85.8495 101.86 85.8028 101.739 85.7095C101.627 85.6068 101.557 85.4855 101.529 85.3455C101.333 85.3828 101.17 85.4995 101.039 85.6955C100.918 85.8822 100.838 86.0735 100.801 86.2695C101.044 86.4842 101.23 86.7408 101.361 87.0395C101.501 87.3288 101.571 87.6415 101.571 87.9775C101.571 88.5095 101.426 88.9808 101.137 89.3915C100.857 89.8022 100.488 90.1242 100.031 90.3575C99.5736 90.5908 99.0789 90.7075 98.5469 90.7075C98.3883 90.7075 98.2389 90.6982 98.0989 90.6795C97.9589 90.6515 97.8049 90.6375 97.6369 90.6375C97.3383 90.6375 97.0909 90.7075 96.8949 90.8475C96.7083 90.9875 96.6383 91.1555 96.6849 91.3515C96.7316 91.5568 96.9276 91.6922 97.2729 91.7575C97.6183 91.8228 98.1176 91.8695 98.7709 91.8975C99.4896 91.9255 100.106 92.0142 100.619 92.1635C101.142 92.3035 101.543 92.5228 101.823 92.8215C102.112 93.1202 102.257 93.5262 102.257 94.0395C102.257 94.4222 102.15 94.7628 101.935 95.0615C101.73 95.3602 101.45 95.6075 101.095 95.8035C100.75 96.0088 100.362 96.1628 99.9329 96.2655C99.5036 96.3682 99.0743 96.4195 98.6449 96.4195ZM98.7709 95.7335C99.5269 95.7335 100.11 95.5935 100.521 95.3135C100.941 95.0335 101.151 94.7162 101.151 94.3615C101.151 94.0628 101.048 93.8295 100.843 93.6615C100.638 93.5028 100.348 93.3862 99.9749 93.3115C99.6109 93.2462 99.1816 93.2088 98.6869 93.1995C98.4443 93.1808 98.1969 93.1668 97.9449 93.1575C97.6929 93.1482 97.4596 93.1248 97.2449 93.0875C97.0303 93.2368 96.8623 93.4188 96.7409 93.6335C96.6289 93.8482 96.5683 94.0722 96.5589 94.3055C96.5589 94.7348 96.7596 95.0802 97.1609 95.3415C97.5623 95.6028 98.0989 95.7335 98.7709 95.7335ZM98.5889 90.0495C98.9063 90.0495 99.1676 89.9702 99.3729 89.8115C99.5876 89.6435 99.7463 89.4242 99.8489 89.1535C99.9609 88.8735 100.017 88.5702 100.017 88.2435C100.017 87.8608 99.9609 87.5015 99.8489 87.1655C99.7369 86.8295 99.5736 86.5588 99.3589 86.3535C99.1443 86.1482 98.8689 86.0455 98.5329 86.0455C98.0756 86.0455 97.7209 86.2275 97.4689 86.5915C97.2169 86.9555 97.0909 87.3942 97.0909 87.9075C97.0909 88.3182 97.1469 88.6868 97.2589 89.0135C97.3803 89.3308 97.5529 89.5828 97.7769 89.7695C98.0009 89.9562 98.2716 90.0495 98.5889 90.0495ZM107.252 92.6255C107.233 92.4762 107.219 92.3455 107.21 92.2335C107.2 92.1215 107.186 92.0048 107.168 91.8835C106.85 92.2008 106.51 92.4435 106.146 92.6115C105.782 92.7702 105.404 92.8495 105.012 92.8495C104.34 92.8495 103.831 92.6862 103.486 92.3595C103.15 92.0235 102.982 91.6082 102.982 91.1135C102.982 90.6842 103.108 90.3108 103.36 89.9935C103.612 89.6762 103.943 89.4195 104.354 89.2235C104.764 89.0182 105.212 88.8688 105.698 88.7755C106.183 88.6728 106.659 88.6215 107.126 88.6215V87.7955C107.126 87.4968 107.098 87.2215 107.042 86.9695C106.986 86.7082 106.869 86.4982 106.692 86.3395C106.524 86.1715 106.258 86.0875 105.894 86.0875C105.651 86.0782 105.408 86.1248 105.166 86.2275C104.923 86.3208 104.736 86.4795 104.606 86.7035C104.68 86.7782 104.727 86.8668 104.746 86.9695C104.774 87.0628 104.788 87.1515 104.788 87.2355C104.788 87.3662 104.732 87.5155 104.62 87.6835C104.508 87.8422 104.316 87.9168 104.046 87.9075C103.822 87.9075 103.649 87.8328 103.528 87.6835C103.416 87.5248 103.36 87.3428 103.36 87.1375C103.36 86.8015 103.481 86.5028 103.724 86.2415C103.976 85.9802 104.316 85.7748 104.746 85.6255C105.175 85.4762 105.656 85.4015 106.188 85.4015C106.99 85.4015 107.588 85.6115 107.98 86.0315C108.381 86.4515 108.582 87.1142 108.582 88.0195C108.582 88.3555 108.582 88.6775 108.582 88.9855C108.582 89.2935 108.577 89.6015 108.568 89.9095C108.568 90.2175 108.568 90.5442 108.568 90.8895C108.568 91.0295 108.563 91.1882 108.554 91.3655C108.544 91.5428 108.53 91.7295 108.512 91.9255C108.67 91.9162 108.834 91.9068 109.002 91.8975C109.17 91.8882 109.328 91.8835 109.478 91.8835V92.6255H107.252ZM107.126 89.2655C106.827 89.2842 106.519 89.3262 106.202 89.3915C105.894 89.4568 105.614 89.5548 105.362 89.6855C105.11 89.8162 104.904 89.9842 104.746 90.1895C104.596 90.3948 104.522 90.6422 104.522 90.9315C104.54 91.2488 104.643 91.4822 104.83 91.6315C105.026 91.7808 105.254 91.8555 105.516 91.8555C105.842 91.8555 106.132 91.7948 106.384 91.6735C106.636 91.5428 106.883 91.3655 107.126 91.1415C107.116 91.0388 107.112 90.9362 107.112 90.8335C107.112 90.7215 107.112 90.6048 107.112 90.4835C107.112 90.3995 107.112 90.2455 107.112 90.0215C107.121 89.7882 107.126 89.5362 107.126 89.2655ZM113.755 92.8495C113.13 92.8495 112.556 92.7095 112.033 92.4295C111.511 92.1402 111.091 91.7295 110.773 91.1975C110.465 90.6655 110.311 90.0215 110.311 89.2655C110.311 88.7615 110.4 88.2808 110.577 87.8235C110.755 87.3568 111.002 86.9415 111.319 86.5775C111.646 86.2135 112.029 85.9288 112.467 85.7235C112.915 85.5088 113.41 85.4015 113.951 85.4015C114.502 85.4015 114.973 85.4855 115.365 85.6535C115.757 85.8215 116.056 86.0408 116.261 86.3115C116.476 86.5822 116.583 86.8762 116.583 87.1935C116.583 87.4175 116.518 87.6135 116.387 87.7815C116.257 87.9495 116.07 88.0335 115.827 88.0335C115.557 88.0428 115.365 87.9635 115.253 87.7955C115.141 87.6182 115.085 87.4548 115.085 87.3055C115.085 87.2215 115.099 87.1282 115.127 87.0255C115.155 86.9135 115.207 86.8155 115.281 86.7315C115.207 86.5355 115.085 86.3908 114.917 86.2975C114.749 86.2042 114.577 86.1435 114.399 86.1155C114.222 86.0875 114.073 86.0735 113.951 86.0735C113.382 86.0828 112.901 86.3302 112.509 86.8155C112.127 87.2915 111.935 87.9822 111.935 88.8875C111.935 89.4662 112.019 89.9842 112.187 90.4415C112.365 90.8988 112.621 91.2628 112.957 91.5335C113.293 91.8042 113.695 91.9442 114.161 91.9535C114.581 91.9535 114.987 91.8462 115.379 91.6315C115.771 91.4075 116.089 91.1275 116.331 90.7915L116.779 91.1835C116.509 91.6035 116.196 91.9348 115.841 92.1775C115.496 92.4202 115.141 92.5928 114.777 92.6955C114.423 92.7982 114.082 92.8495 113.755 92.8495ZM118.941 96.4195C118.633 96.4195 118.367 96.3355 118.143 96.1675C117.928 96.0088 117.821 95.7755 117.821 95.4675C117.821 95.2715 117.882 95.0942 118.003 94.9355C118.134 94.7768 118.302 94.6975 118.507 94.6975C118.731 94.6882 118.89 94.7582 118.983 94.9075C119.086 95.0568 119.137 95.2108 119.137 95.3695C119.137 95.3975 119.137 95.4255 119.137 95.4535C119.137 95.4815 119.132 95.5142 119.123 95.5515C119.151 95.5702 119.193 95.5748 119.249 95.5655C119.352 95.5562 119.464 95.5002 119.585 95.3975C119.706 95.2948 119.818 95.1502 119.921 94.9635C120.033 94.7582 120.159 94.4735 120.299 94.1095C120.439 93.7455 120.593 93.3255 120.761 92.8495L118.563 88.2575C118.311 87.7348 118.134 87.3288 118.031 87.0395C117.938 86.7408 117.877 86.5075 117.849 86.3395L117.177 86.3675V85.6255H120.271V86.1995H120.243C119.86 86.2368 119.65 86.3815 119.613 86.6335C119.585 86.8855 119.674 87.2308 119.879 87.6695L121.419 91.0575C121.596 90.5815 121.774 90.0635 121.951 89.5035C122.138 88.9435 122.329 88.3695 122.525 87.7815C122.59 87.6042 122.656 87.4175 122.721 87.2215C122.796 87.0162 122.87 86.8295 122.945 86.6615C123.029 86.4935 123.108 86.3768 123.183 86.3115L122.273 86.3675V85.6255H124.569V86.1995C124.242 86.3115 123.986 86.5168 123.799 86.8155C123.622 87.1142 123.449 87.4922 123.281 87.9495L121.531 92.8775C121.26 93.6522 121.008 94.3008 120.775 94.8235C120.542 95.3555 120.28 95.7522 119.991 96.0135C119.711 96.2842 119.361 96.4195 118.941 96.4195Z" fill="#D4AF37"/>
<defs>
<clipPath id="clip0_323_2377">
<rect width="136" height="95.9611" fill="white"/>
</clipPath>
</defs>
</svg>
