<svg width="21" height="21" viewBox="0 0 21 21" fill="none" xmlns="http://www.w3.org/2000/svg">
<path d="M9.83325 9.08329H11.4999C12.6783 9.08329 13.2674 9.08329 13.6333 9.44996C13.9999 9.81579 13.9999 10.405 13.9999 11.5833V16.5833C13.9999 15.405 13.9999 14.8158 14.3666 14.45C14.7316 14.0833 15.3208 14.0833 16.4999 14.0833C17.6791 14.0833 18.2674 14.0833 18.6333 14.45C18.9999 14.8158 18.9999 15.405 18.9999 16.5833V19.0833H2.33325C2.33325 17.905 2.33325 17.3158 2.69992 16.95C3.06492 16.5833 3.65409 16.5833 4.83325 16.5833C6.01242 16.5833 6.60075 16.5833 6.96659 16.95C7.33325 17.315 7.33325 17.9041 7.33325 19.0833V11.5833C7.33325 10.405 7.33325 9.81579 7.69992 9.44996C8.06492 9.08329 8.65409 9.08329 9.83325 9.08329ZM9.95492 3.26913C10.2716 2.69996 10.4299 2.41663 10.6666 2.41663C10.9033 2.41663 11.0616 2.69996 11.3783 3.26913L11.4599 3.41579C11.5499 3.57746 11.5949 3.65746 11.6649 3.71079C11.7358 3.76413 11.8233 3.78413 11.9983 3.82329L12.1566 3.85996C12.7716 3.99913 13.0791 4.06829 13.1524 4.30329C13.2258 4.53829 13.0158 4.78413 12.5966 5.27413L12.4883 5.40079C12.3691 5.53996 12.3091 5.60913 12.2824 5.69579C12.2558 5.78246 12.2649 5.87496 12.2824 6.06079L12.2991 6.22996C12.3624 6.88413 12.3941 7.21163 12.2033 7.35663C12.0116 7.50246 11.7233 7.36913 11.1474 7.10413L10.9991 7.03579C10.8349 6.96079 10.7533 6.92246 10.6666 6.92246C10.5799 6.92246 10.4983 6.96079 10.3341 7.03579L10.1858 7.10413C9.60992 7.36913 9.32159 7.50246 9.12992 7.35663C8.93825 7.21163 8.97075 6.88413 9.03409 6.22996L9.05075 6.06079C9.06825 5.87496 9.07742 5.78246 9.05075 5.69579C9.02409 5.60913 8.96409 5.53996 8.84492 5.40079L8.73659 5.27413C8.31742 4.78413 8.10742 4.53913 8.18075 4.30329C8.25409 4.06829 8.56158 3.99913 9.17659 3.85996L9.33492 3.82329C9.50992 3.78413 9.59742 3.76496 9.66825 3.71079C9.73825 3.65746 9.78325 3.57746 9.87325 3.41579L9.95492 3.26913Z" fill="url(#paint0_linear_245_3387)" fill-opacity="0.6"/>
<defs>
<linearGradient id="paint0_linear_245_3387" x1="2.33325" y1="10.75" x2="22.2976" y2="12.5061" gradientUnits="userSpaceOnUse">
<stop stop-color="#C50000"/>
<stop offset="1" stop-color="#9D00DB"/>
</linearGradient>
</defs>
</svg>
