<svg width="21" height="21" viewBox="0 0 21 21" fill="none" xmlns="http://www.w3.org/2000/svg">
<path d="M6.95825 10.9583C6.95825 9.77909 6.95825 9.18992 7.32492 8.82492C7.69075 8.45825 8.27992 8.45825 9.45825 8.45825H11.1249C12.3041 8.45825 12.8933 8.45825 13.2583 8.82492C13.6249 9.19075 13.6249 9.77992 13.6249 10.9583V18.4583V15.9583C13.6249 14.7791 13.6249 14.1899 13.9916 13.8249C14.3574 13.4583 14.9458 13.4583 16.1249 13.4583C17.3041 13.4583 17.8933 13.4583 18.2583 13.8249C18.6249 14.1908 18.6249 14.7799 18.6249 15.9583V18.4583M6.95825 14.2916V18.4583C6.95825 17.2799 6.95825 16.6908 6.59159 16.3249C6.22659 15.9583 5.63742 15.9583 4.45825 15.9583C3.27909 15.9583 2.69075 15.9583 2.32492 16.3249C1.95825 16.6899 1.95825 17.2791 1.95825 18.4583" stroke="#7F8C8D" stroke-width="1.0989" stroke-linecap="round"/>
<path d="M9.58007 2.644C9.89674 2.07484 10.0551 1.7915 10.2917 1.7915C10.5284 1.7915 10.6867 2.07484 11.0034 2.644L11.0851 2.79067C11.1751 2.95234 11.2201 3.03234 11.2901 3.08567C11.3609 3.139 11.4484 3.159 11.6234 3.19817L11.7817 3.23484C12.3967 3.374 12.7042 3.44317 12.7776 3.67817C12.8509 3.91317 12.6409 4.159 12.2217 4.649L12.1134 4.77567C11.9942 4.91484 11.9342 4.984 11.9076 5.07067C11.8809 5.15734 11.8901 5.24984 11.9076 5.43567L11.9242 5.60484C11.9876 6.259 12.0192 6.5865 11.8284 6.7315C11.6367 6.87734 11.3484 6.744 10.7726 6.479L10.6242 6.41067C10.4601 6.33567 10.3784 6.29734 10.2917 6.29734C10.2051 6.29734 10.1234 6.33567 9.95924 6.41067L9.8109 6.479C9.23507 6.744 8.94674 6.87734 8.75507 6.7315C8.5634 6.5865 8.5959 6.259 8.65924 5.60484L8.6759 5.43567C8.6934 5.24984 8.70257 5.15734 8.6759 5.07067C8.64924 4.984 8.58924 4.91484 8.47007 4.77567L8.36174 4.649C7.94257 4.159 7.73257 3.914 7.8059 3.67817C7.87924 3.44317 8.18674 3.374 8.80174 3.23484L8.96007 3.19817C9.13507 3.159 9.22257 3.13984 9.2934 3.08567C9.3634 3.03234 9.4084 2.95234 9.4984 2.79067L9.58007 2.644Z" stroke="#7F8C8D" stroke-width="1.0989"/>
</svg>
