<svg width="47" height="34" viewBox="0 0 47 34" fill="none" xmlns="http://www.w3.org/2000/svg">
<g clip-path="url(#clip0_339_469)">
<path d="M17.9733 29.8621C17.0457 29.6399 16.1605 29.2684 15.3526 28.7621C14.3124 28.1226 13.8852 27.108 13.8938 25.8631C13.9215 21.1735 13.8938 16.4839 13.9258 11.7943C13.9258 11.0333 13.7913 10.7008 12.9198 10.5878C9.42123 10.1402 6.01875 9.30885 2.84055 7.50123L16.3821 6.22225V25.4943H15.6858V26.023H19.3168V25.4943H18.6269V17.2556H19.5987C20.4759 17.2753 21.3276 16.9604 21.9802 16.3752C22.2898 16.1174 22.5386 15.7946 22.7088 15.4298C22.879 15.0651 22.9664 14.6673 22.9649 14.2649V8.50949C22.9663 8.10713 22.8788 7.70941 22.7086 7.34465C22.5384 6.9799 22.2897 6.65707 21.9802 6.39917C21.3276 5.81395 20.4759 5.49911 19.5987 5.51881H18.6119C18.5308 4.23983 18.0545 3.94353 16.5231 4.04372C15.7114 4.09701 14.904 4.19507 13.9045 4.29099C13.9045 3.23583 13.9045 2.26167 13.9045 1.28539C13.8895 0.0191967 13.4773 -0.264311 12.3324 0.21957C8.75696 1.70532 5.18576 3.21025 1.59747 4.66616C0.486806 5.11593 -0.00017693 5.88971 -0.00017693 7.0344C-0.00017693 13.3199 -0.00017693 19.6054 -0.00017693 25.8908C-0.022107 26.3401 0.0873657 26.7861 0.314905 27.1744C0.542445 27.5628 0.87823 27.8766 1.28136 28.0779C3.07764 28.986 4.88673 29.9153 6.7834 30.5698C10.2542 31.7635 13.8446 32.5692 17.5291 32.6183C19.086 32.6289 20.6352 32.3981 22.1212 31.934C23.8427 31.399 24.6416 29.926 24.4707 28.2484C22.5356 29.8429 20.3484 30.3843 17.9733 29.8621ZM18.6269 6.05385H19.5987C19.7477 6.05225 19.8953 6.08177 20.0322 6.14051C20.169 6.19925 20.292 6.2859 20.3933 6.39491C20.4997 6.50522 20.5832 6.63548 20.6389 6.77817C20.6947 6.92086 20.7215 7.07315 20.7179 7.22625V15.5609C20.7208 15.714 20.6932 15.8661 20.6367 16.0084C20.5802 16.1508 20.4961 16.2805 20.389 16.3901C20.2879 16.4995 20.165 16.5866 20.0281 16.6457C19.8913 16.7048 19.7436 16.7347 19.5945 16.7333H18.6269V6.05385ZM11.6639 2.87345V4.47644L7.16359 4.92622L7.11874 4.73863L11.6639 2.87345ZM8.71852 19.1677C7.62067 20.0203 6.51855 20.873 5.38226 21.6872C4.82907 22.0795 4.38053 21.8002 4.37412 21.1202C4.36344 20.3464 4.37412 19.5748 4.37412 18.8031C4.37412 18.0315 4.37412 17.23 4.37412 16.4434C4.37412 16.1599 4.37412 15.8253 4.68383 15.7506C4.94526 15.6898 5.22017 15.7326 5.45061 15.87C6.54632 16.6566 7.61854 17.4794 8.68862 18.3065C8.75875 18.3532 8.81673 18.416 8.85777 18.4895C8.89881 18.5631 8.92174 18.6453 8.92466 18.7294C8.92758 18.8135 8.91041 18.8972 8.87457 18.9734C8.83873 19.0496 8.78524 19.1162 8.71852 19.1677Z" fill="#2C3E50"/>
<path d="M27.3989 10.6578C26.9815 10.6446 26.5656 10.7143 26.1755 10.8628C25.7854 11.0114 25.4287 11.2359 25.1263 11.5233C24.8337 11.795 24.602 12.1254 24.4463 12.4927C24.2906 12.8601 24.2144 13.2561 24.2228 13.6549V23.1961C24.2144 23.5949 24.2906 23.9909 24.4463 24.3583C24.602 24.7256 24.8337 25.056 25.1263 25.3277C25.7499 25.885 26.5575 26.1932 27.3946 26.1932C28.2316 26.1932 29.0393 25.885 29.6629 25.3277C29.9538 25.055 30.1839 24.7243 30.3385 24.3571C30.493 23.9899 30.5685 23.5943 30.56 23.1961V13.6421C30.5685 13.2439 30.493 12.8484 30.3385 12.4811C30.1839 12.1139 29.9538 11.7832 29.6629 11.5105C29.3612 11.2254 29.0056 11.0031 28.6169 10.8567C28.2281 10.7103 27.8141 10.6427 27.3989 10.6578ZM28.3707 24.4772C28.3707 25.2588 28.0467 25.6496 27.3989 25.6496C26.751 25.6496 26.4228 25.2588 26.4142 24.4772V12.3631C26.4142 11.5815 26.7424 11.1907 27.3989 11.1907C28.0553 11.1907 28.3792 11.5815 28.3707 12.3631V24.4772Z" fill="#2C3E50"/>
<path d="M38.3753 13.3506C38.3753 11.5558 37.5815 10.6584 35.9938 10.6584C35.3997 10.6304 34.8175 10.8302 34.3662 11.2168V5.52539H31.4785V6.05404H32.1898V25.5073H31.4785V26.036H35.0775V25.5073H34.3662V11.7476C34.4908 11.5985 34.6452 11.4769 34.8195 11.3906C34.9938 11.3044 35.1843 11.2553 35.3786 11.2467C35.9169 11.2467 36.186 11.6183 36.186 12.3615V26.036H39.0737V25.5073H38.3753V13.3506Z" fill="#2C3E50"/>
<path d="M45.9214 25.5093V13.6425C45.9214 12.7359 45.6523 12.0111 45.114 11.4682C44.5758 10.9254 43.8446 10.6554 42.9205 10.6582C42.0077 10.6582 41.2801 10.9304 40.7376 11.4746C40.1951 12.0189 39.9231 12.7415 39.9217 13.6425V15.4587H42.111V12.3635C42.111 11.5819 42.3801 11.1911 42.9183 11.1911C43.4566 11.1911 43.73 11.5819 43.7385 12.3635V17.2833H43.0678C40.9149 17.2833 39.8384 18.2277 39.8384 20.1163V23.4907C39.8384 25.2841 40.6137 26.1808 42.1644 26.1808C42.7414 26.203 43.305 26.0031 43.7385 25.6223V26.038H46.6262V25.5093H45.9214ZM43.7449 25.0936C43.6283 25.2381 43.4832 25.3571 43.3186 25.4433C43.154 25.5295 42.9734 25.581 42.788 25.5946C42.2854 25.5946 42.0348 25.223 42.0362 24.4797V18.9716C42.0362 18.1985 42.3922 17.812 43.1042 17.812H43.7449V25.0936Z" fill="#2C3E50"/>
</g>
<path d="M27.3443 31.7324V31.5187C27.4512 31.5122 27.5273 31.4896 27.5726 31.4507C27.6212 31.4119 27.652 31.3536 27.6649 31.2759C27.6779 31.1981 27.6843 31.0994 27.6843 30.9796V28.959C27.6843 28.8878 27.686 28.8198 27.6892 28.755C27.6924 28.687 27.6957 28.6287 27.6989 28.5801C27.6439 28.5834 27.584 28.5866 27.5192 28.5899C27.4544 28.5931 27.3962 28.5963 27.3443 28.5996V28.3324H28.5392V28.5461C28.4356 28.5494 28.3595 28.572 28.3109 28.6141C28.2623 28.653 28.2316 28.7113 28.2186 28.789C28.2057 28.8635 28.1992 28.9622 28.1992 29.0853V31.0961C28.1992 31.1836 28.1976 31.2613 28.1943 31.3293C28.1943 31.394 28.1911 31.4475 28.1846 31.4896L29.0055 31.4799C29.2062 31.4766 29.3601 31.4119 29.4669 31.2856C29.5738 31.156 29.6272 30.952 29.6272 30.6736H29.8458L29.8166 31.7324H27.3443ZM31.3122 31.8101C31.0855 31.8101 30.8815 31.7583 30.7002 31.6547C30.5221 31.5479 30.3813 31.3989 30.2776 31.2079C30.174 31.0136 30.1222 30.7853 30.1222 30.523C30.1222 30.2963 30.1724 30.0842 30.2728 29.8867C30.3764 29.6892 30.5205 29.5305 30.7051 29.4107C30.8896 29.2877 31.1034 29.2261 31.3462 29.2261C31.4822 29.2261 31.6101 29.2472 31.7299 29.2893C31.853 29.3314 31.9614 29.3978 32.0554 29.4884C32.1525 29.5759 32.2286 29.6908 32.2836 29.8333C32.3387 29.9725 32.3662 30.1425 32.3662 30.3433L30.6954 30.3724C30.6954 30.5926 30.7196 30.7885 30.7682 30.9601C30.82 31.1318 30.9026 31.2645 31.0159 31.3584C31.1293 31.4523 31.2766 31.4993 31.4579 31.4993C31.5454 31.4993 31.6376 31.4847 31.7348 31.4556C31.8352 31.4232 31.9291 31.3779 32.0165 31.3196C32.1072 31.2613 32.1833 31.1917 32.2448 31.1107L32.3954 31.2419C32.2982 31.3876 32.1865 31.5025 32.0602 31.5867C31.9339 31.6677 31.8044 31.7243 31.6716 31.7567C31.5421 31.7923 31.4223 31.8101 31.3122 31.8101ZM30.7148 30.1199H31.8368C31.8368 29.9968 31.819 29.8867 31.7834 29.7896C31.751 29.6892 31.6992 29.6099 31.6279 29.5516C31.5567 29.4933 31.466 29.4641 31.3559 29.4641C31.1843 29.4641 31.0434 29.5192 30.9334 29.6293C30.8233 29.7361 30.7504 29.8997 30.7148 30.1199ZM33.9011 33.0487C33.6162 33.0487 33.3863 33.0163 33.2114 32.9516C33.0398 32.89 32.9151 32.8091 32.8374 32.7087C32.763 32.6116 32.7257 32.5079 32.7257 32.3979C32.7257 32.3104 32.7451 32.2295 32.784 32.155C32.8261 32.0805 32.8811 32.0141 32.9491 31.9559C33.0171 31.9008 33.0932 31.8571 33.1774 31.8247C33.0641 31.7891 32.9783 31.7389 32.92 31.6741C32.8617 31.6061 32.8326 31.5236 32.8326 31.4264C32.8326 31.3228 32.873 31.2208 32.954 31.1204C33.0382 31.02 33.158 30.952 33.3134 30.9164C33.1677 30.8517 33.0511 30.7578 32.9637 30.6347C32.8763 30.5117 32.831 30.3659 32.8277 30.1976C32.8245 30.0033 32.873 29.8333 32.9734 29.6876C33.077 29.5419 33.2082 29.4285 33.3669 29.3476C33.5288 29.2666 33.6971 29.2261 33.872 29.2261C33.9724 29.2261 34.076 29.2407 34.1829 29.2699C34.2897 29.2958 34.3869 29.3379 34.4743 29.3961C34.5099 29.3022 34.5569 29.2164 34.6151 29.1387C34.6734 29.061 34.7414 28.9995 34.8191 28.9541C34.9001 28.9088 34.9843 28.8861 35.0717 28.8861C35.1656 28.8861 35.2369 28.9104 35.2854 28.959C35.334 29.0076 35.3583 29.0723 35.3583 29.1533C35.3583 29.1792 35.3502 29.2116 35.334 29.2504C35.321 29.286 35.2968 29.3168 35.2611 29.3427C35.2255 29.3686 35.177 29.3816 35.1154 29.3816C35.0636 29.3816 35.0167 29.3654 34.9746 29.333C34.9357 29.2974 34.9114 29.2553 34.9017 29.2067C34.8337 29.2197 34.777 29.2601 34.7317 29.3281C34.6896 29.3929 34.6621 29.4593 34.6491 29.5273C34.7333 29.6018 34.7981 29.6908 34.8434 29.7944C34.892 29.8948 34.9163 30.0033 34.9163 30.1199C34.9163 30.3044 34.8661 30.4679 34.7657 30.6104C34.6686 30.7529 34.5407 30.8646 34.382 30.9456C34.2233 31.0265 34.0517 31.067 33.8671 31.067C33.8121 31.067 33.7603 31.0638 33.7117 31.0573C33.6631 31.0476 33.6097 31.0427 33.5514 31.0427C33.4478 31.0427 33.362 31.067 33.294 31.1156C33.2292 31.1641 33.205 31.2224 33.2211 31.2904C33.2373 31.3617 33.3053 31.4086 33.4251 31.4313C33.545 31.4539 33.7182 31.4701 33.9449 31.4799C34.1942 31.4896 34.4079 31.5203 34.586 31.5721C34.7673 31.6207 34.9066 31.6968 35.0037 31.8004C35.1041 31.904 35.1543 32.0449 35.1543 32.223C35.1543 32.3558 35.117 32.4739 35.0426 32.5776C34.9713 32.6812 34.8742 32.767 34.7511 32.835C34.6313 32.9062 34.497 32.9597 34.348 32.9953C34.199 33.0309 34.0501 33.0487 33.9011 33.0487ZM33.9449 32.8107C34.2071 32.8107 34.4095 32.7621 34.552 32.665C34.6977 32.5679 34.7706 32.4578 34.7706 32.3347C34.7706 32.2311 34.735 32.1501 34.6637 32.0919C34.5925 32.0368 34.4921 31.9963 34.3626 31.9704C34.2363 31.9478 34.0873 31.9348 33.9157 31.9316C33.8315 31.9251 33.7457 31.9202 33.6583 31.917C33.5709 31.9138 33.4899 31.9057 33.4154 31.8927C33.341 31.9445 33.2827 32.0077 33.2406 32.0821C33.2017 32.1566 33.1807 32.2343 33.1774 32.3153C33.1774 32.4642 33.247 32.584 33.3863 32.6747C33.5255 32.7654 33.7117 32.8107 33.9449 32.8107ZM33.8817 30.8387C33.9918 30.8387 34.0825 30.8112 34.1537 30.7561C34.2282 30.6979 34.2832 30.6218 34.3189 30.5279C34.3577 30.4307 34.3771 30.3255 34.3771 30.2121C34.3771 30.0794 34.3577 29.9547 34.3189 29.8381C34.28 29.7216 34.2233 29.6277 34.1489 29.5564C34.0744 29.4852 33.9789 29.4496 33.8623 29.4496C33.7036 29.4496 33.5806 29.5127 33.4931 29.639C33.4057 29.7653 33.362 29.9175 33.362 30.0956C33.362 30.238 33.3814 30.3659 33.4203 30.4793C33.4624 30.5894 33.5223 30.6768 33.6 30.7416C33.6777 30.8063 33.7716 30.8387 33.8817 30.8387ZM36.8871 31.7324C36.8806 31.6806 36.8758 31.6353 36.8725 31.5964C36.8693 31.5576 36.8644 31.5171 36.858 31.475C36.7479 31.5851 36.6297 31.6693 36.5034 31.7276C36.3771 31.7826 36.246 31.8101 36.11 31.8101C35.8768 31.8101 35.7003 31.7535 35.5805 31.6401C35.464 31.5236 35.4057 31.3795 35.4057 31.2079C35.4057 31.0589 35.4494 30.9294 35.5368 30.8193C35.6243 30.7092 35.7392 30.6201 35.8817 30.5521C36.0242 30.4809 36.1796 30.4291 36.348 30.3967C36.5163 30.3611 36.6815 30.3433 36.8434 30.3433V30.0567C36.8434 29.9531 36.8337 29.8576 36.8143 29.7701C36.7948 29.6795 36.7543 29.6066 36.6928 29.5516C36.6345 29.4933 36.5423 29.4641 36.416 29.4641C36.3318 29.4609 36.2476 29.4771 36.1634 29.5127C36.0792 29.5451 36.0144 29.6001 35.9691 29.6779C35.995 29.7038 36.0112 29.7345 36.0177 29.7701C36.0274 29.8025 36.0323 29.8333 36.0323 29.8624C36.0323 29.9078 36.0128 29.9596 35.974 30.0179C35.9351 30.0729 35.8687 30.0988 35.7748 30.0956C35.6971 30.0956 35.6372 30.0697 35.5951 30.0179C35.5563 29.9628 35.5368 29.8997 35.5368 29.8284C35.5368 29.7119 35.5789 29.6082 35.6631 29.5176C35.7505 29.4269 35.8687 29.3557 36.0177 29.3039C36.1666 29.252 36.3334 29.2261 36.518 29.2261C36.7964 29.2261 37.0037 29.299 37.1397 29.4447C37.2789 29.5904 37.3485 29.8203 37.3485 30.1344C37.3485 30.251 37.3485 30.3627 37.3485 30.4696C37.3485 30.5764 37.3469 30.6833 37.3437 30.7901C37.3437 30.897 37.3437 31.0103 37.3437 31.1301C37.3437 31.1787 37.3421 31.2338 37.3388 31.2953C37.3356 31.3568 37.3307 31.4216 37.3243 31.4896C37.3793 31.4863 37.436 31.4831 37.4943 31.4799C37.5525 31.4766 37.6076 31.475 37.6594 31.475V31.7324H36.8871ZM36.8434 30.5667C36.7398 30.5732 36.6329 30.5878 36.5228 30.6104C36.416 30.6331 36.3188 30.6671 36.2314 30.7124C36.144 30.7578 36.0727 30.816 36.0177 30.8873C35.9659 30.9585 35.94 31.0443 35.94 31.1447C35.9464 31.2548 35.9821 31.3358 36.0468 31.3876C36.1148 31.4394 36.1942 31.4653 36.2848 31.4653C36.3982 31.4653 36.4985 31.4442 36.586 31.4021C36.6734 31.3568 36.7592 31.2953 36.8434 31.2176C36.8402 31.1819 36.8385 31.1463 36.8385 31.1107C36.8385 31.0719 36.8385 31.0314 36.8385 30.9893C36.8385 30.9601 36.8385 30.9067 36.8385 30.829C36.8418 30.748 36.8434 30.6606 36.8434 30.5667ZM39.1435 31.8101C38.9266 31.8101 38.7274 31.7616 38.5461 31.6644C38.3648 31.564 38.219 31.4216 38.1089 31.237C38.0021 31.0524 37.9487 30.829 37.9487 30.5667C37.9487 30.3919 37.9794 30.2251 38.0409 30.0664C38.1025 29.9045 38.1883 29.7604 38.2984 29.6341C38.4117 29.5079 38.5445 29.4091 38.6967 29.3379C38.8521 29.2634 39.0237 29.2261 39.2115 29.2261C39.4026 29.2261 39.5661 29.2553 39.7021 29.3136C39.8381 29.3719 39.9417 29.4479 40.0129 29.5419C40.0874 29.6358 40.1247 29.7378 40.1247 29.8479C40.1247 29.9256 40.102 29.9936 40.0567 30.0519C40.0113 30.1101 39.9466 30.1393 39.8624 30.1393C39.7685 30.1425 39.7021 30.115 39.6632 30.0567C39.6244 29.9952 39.6049 29.9385 39.6049 29.8867C39.6049 29.8576 39.6098 29.8252 39.6195 29.7896C39.6292 29.7507 39.647 29.7167 39.6729 29.6876C39.647 29.6196 39.6049 29.5694 39.5467 29.537C39.4884 29.5046 39.4285 29.4836 39.3669 29.4739C39.3054 29.4641 39.2536 29.4593 39.2115 29.4593C39.014 29.4625 38.8472 29.5483 38.7112 29.7167C38.5785 29.8819 38.5121 30.1215 38.5121 30.4356C38.5121 30.6363 38.5412 30.816 38.5995 30.9747C38.661 31.1334 38.7501 31.2597 38.8667 31.3536C38.9832 31.4475 39.1225 31.496 39.2844 31.4993C39.4301 31.4993 39.5709 31.462 39.7069 31.3876C39.8429 31.3099 39.953 31.2127 40.0372 31.0961L40.1927 31.2321C40.0988 31.3779 39.9903 31.4928 39.8672 31.577C39.7474 31.6612 39.6244 31.7211 39.4981 31.7567C39.375 31.7923 39.2569 31.8101 39.1435 31.8101ZM40.9427 33.0487C40.8358 33.0487 40.7435 33.0196 40.6658 32.9613C40.5913 32.9062 40.5541 32.8253 40.5541 32.7184C40.5541 32.6504 40.5751 32.5889 40.6172 32.5339C40.6626 32.4788 40.7209 32.4513 40.7921 32.4513C40.8698 32.448 40.9249 32.4723 40.9572 32.5241C40.9929 32.5759 41.0107 32.6294 41.0107 32.6844C41.0107 32.6941 41.0107 32.7039 41.0107 32.7136C41.0107 32.7233 41.0091 32.7346 41.0058 32.7476C41.0155 32.754 41.0301 32.7557 41.0495 32.7524C41.0851 32.7492 41.124 32.7298 41.1661 32.6941C41.2082 32.6585 41.2471 32.6083 41.2827 32.5436C41.3215 32.4723 41.3652 32.3736 41.4138 32.2473C41.4624 32.121 41.5158 31.9753 41.5741 31.8101L40.8115 30.217C40.7241 30.0357 40.6626 29.8948 40.627 29.7944C40.5946 29.6908 40.5735 29.6099 40.5638 29.5516L40.3307 29.5613V29.3039H41.4041V29.503H41.3944C41.2616 29.5159 41.1888 29.5661 41.1758 29.6536C41.1661 29.741 41.1969 29.8608 41.2681 30.013L41.8024 31.1884C41.8639 31.0233 41.9254 30.8436 41.987 30.6493C42.0517 30.455 42.1181 30.2559 42.1861 30.0519C42.2088 29.9903 42.2314 29.9256 42.2541 29.8576C42.28 29.7863 42.3059 29.7216 42.3318 29.6633C42.361 29.605 42.3885 29.5645 42.4144 29.5419L42.0987 29.5613V29.3039H42.8952V29.503C42.7819 29.5419 42.6929 29.6131 42.6281 29.7167C42.5666 29.8203 42.5067 29.9515 42.4484 30.1101L41.8412 31.8199C41.7473 32.0886 41.6599 32.3137 41.579 32.495C41.498 32.6796 41.4073 32.8172 41.307 32.9079C41.2098 33.0018 41.0884 33.0487 40.9427 33.0487Z" fill="#D4AF37"/>
<defs>
<clipPath id="clip0_339_469">
<rect width="46.6286" height="32.6268" fill="white"/>
</clipPath>
</defs>
</svg>
