<svg width="21" height="20" viewBox="0 0 21 20" fill="none" xmlns="http://www.w3.org/2000/svg">
<path d="M15.2956 9.97288C15.2972 10.2814 15.1763 10.5779 14.9594 10.7973C14.7425 11.0166 14.4473 11.1409 14.1388 11.1428C13.986 11.142 13.8349 11.1111 13.694 11.0518C13.5531 10.9926 13.4252 10.9062 13.3177 10.7976C13.2102 10.6889 13.1252 10.5602 13.0675 10.4187C13.0097 10.2772 12.9804 10.1257 12.9812 9.97288C12.9803 9.81998 13.0095 9.66839 13.0672 9.52679C13.1249 9.38519 13.2099 9.25634 13.3174 9.14761C13.4249 9.03889 13.5528 8.95241 13.6938 8.89313C13.8347 8.83385 13.9859 8.80293 14.1388 8.80212C14.7776 8.80212 15.2956 9.32625 15.2956 9.97288Z" fill="url(#paint0_linear_245_3393)" fill-opacity="0.6"/>
<path fill-rule="evenodd" clip-rule="evenodd" d="M16.0322 5.98195C15.2893 5.87695 14.3329 5.87695 13.1403 5.87695H8.19305C7.00042 5.87695 6.04404 5.87695 5.30117 5.98195C4.53379 6.09133 3.89416 6.32583 3.41816 6.87446C2.94304 7.42396 2.79691 8.09683 2.79166 8.88083C2.78641 9.63858 2.91329 10.5976 3.07079 11.7937L3.39016 14.2183C3.51354 15.1537 3.61329 15.9097 3.76816 16.5021C3.93004 17.1181 4.16804 17.63 4.61516 18.0255C5.06229 18.421 5.59517 18.5925 6.21992 18.673C6.82104 18.75 7.57617 18.75 8.50805 18.75H12.8253C13.7572 18.75 14.5123 18.75 15.1134 18.673C15.7391 18.5925 16.2711 18.421 16.7182 18.0255C17.1653 17.63 17.4033 17.1181 17.5652 16.5021C17.7201 15.9097 17.8198 15.1528 17.9432 14.2183L18.2626 11.7937C18.4201 10.5976 18.5469 9.63858 18.5417 8.87996C18.5356 8.09683 18.3912 7.42396 17.9152 6.87533C17.4392 6.32583 16.7996 6.09133 16.0322 5.98195ZM5.46217 7.14046C4.82692 7.23146 4.50491 7.39596 4.28966 7.64621C4.07266 7.89558 3.95366 8.23946 3.94841 8.88871C3.94404 9.55546 4.05866 10.4331 4.22404 11.6843L4.26779 12.0168L4.59241 11.778C5.43242 11.1637 6.67142 11.1935 7.46942 11.8611L10.4304 14.34C10.7104 14.5745 11.1926 14.6182 11.5408 14.4135L11.7464 14.2927C12.7308 13.7135 14.0512 13.7747 14.9594 14.459L16.5624 15.6665C16.6412 15.2325 16.7121 14.6996 16.8013 14.025L17.1093 11.6843C17.2747 10.4331 17.3893 9.55546 17.3841 8.88871C17.3797 8.23946 17.2607 7.89558 17.0446 7.64621C16.8284 7.39596 16.5064 7.23146 15.8703 7.14046C15.2184 7.04771 14.3434 7.04683 13.0948 7.04683H8.23855C6.98992 7.04683 6.11404 7.04771 5.46217 7.14046Z" fill="url(#paint1_linear_245_3393)" fill-opacity="0.6"/>
<path d="M7.91848 1.25H13.4152C13.599 1.25 13.739 1.25 13.8615 1.26313C14.2805 1.30973 14.6784 1.47094 15.0117 1.72905C15.345 1.98715 15.6007 2.33216 15.7506 2.72613H5.5831C5.73305 2.33216 5.98871 1.98715 6.322 1.72905C6.65528 1.47094 7.05328 1.30973 7.47223 1.26313C7.59473 1.25 7.73473 1.25 7.91848 1.25ZM6.18686 3.4375C5.09135 3.4375 4.1936 4.17251 3.89435 5.14726L3.87598 5.20851C4.18923 5.10351 4.51473 5.03351 4.84548 4.98713C5.69686 4.86551 6.77223 4.86551 8.02086 4.86551H13.4485C14.6971 4.86551 15.7725 4.86551 16.623 4.98713C16.9537 5.03351 17.2793 5.10263 17.5943 5.20851L17.5759 5.14726C17.2758 4.17251 16.378 3.4375 15.2834 3.4375H6.18686Z" fill="url(#paint2_linear_245_3393)" fill-opacity="0.6"/>
<defs>
<linearGradient id="paint0_linear_245_3393" x1="12.9812" y1="9.97244" x2="15.755" y2="10.2138" gradientUnits="userSpaceOnUse">
<stop stop-color="#C50000"/>
<stop offset="1" stop-color="#9D00DB"/>
</linearGradient>
<linearGradient id="paint1_linear_245_3393" x1="2.7915" y1="12.3135" x2="21.5865" y2="14.3363" gradientUnits="userSpaceOnUse">
<stop stop-color="#C50000"/>
<stop offset="1" stop-color="#9D00DB"/>
</linearGradient>
<linearGradient id="paint2_linear_245_3393" x1="3.87598" y1="3.22925" x2="19.0278" y2="7.84807" gradientUnits="userSpaceOnUse">
<stop stop-color="#C50000"/>
<stop offset="1" stop-color="#9D00DB"/>
</linearGradient>
</defs>
</svg>
