<svg width="21" height="21" viewBox="0 0 21 21" fill="none" xmlns="http://www.w3.org/2000/svg">
<path d="M17.9538 14.3692C17.6621 16.4359 17.5163 17.47 16.7688 18.0892C16.0213 18.7084 14.9188 18.7084 12.7129 18.7084H7.87127C5.66627 18.7084 4.56294 18.7084 3.81544 18.0892C3.06794 17.47 2.9221 16.4367 2.63044 14.3692L2.27877 11.8692C1.90627 9.23254 1.72044 7.91504 2.51044 7.06087C3.30044 6.20837 4.7071 6.20837 7.51877 6.20837H13.0654C15.8771 6.20837 17.2838 6.20837 18.0738 7.06171C18.6979 7.73587 18.7129 8.70004 18.5079 10.375" stroke="#7F8C8D" stroke-width="1.0989" stroke-linecap="round"/>
<path d="M16.5936 6.20829C16.6384 5.95291 16.6267 5.69082 16.5594 5.44043C16.4921 5.19004 16.3708 4.95742 16.204 4.75889C16.0373 4.56036 15.8291 4.40073 15.5941 4.29122C15.359 4.18171 15.1029 4.12496 14.8436 4.12496H5.74029C5.48101 4.12496 5.22488 4.18171 4.98986 4.29122C4.75485 4.40073 4.54665 4.56036 4.37989 4.75889C4.21312 4.95742 4.09183 5.19004 4.02453 5.44043C3.95722 5.69082 3.94554 5.95291 3.99029 6.20829M14.8753 4.12496C14.8986 3.90829 14.9111 3.80079 14.9111 3.71163C14.912 3.2997 14.7603 2.90204 14.4854 2.59535C14.2104 2.28865 13.8315 2.09466 13.422 2.05079C13.3336 2.04163 13.2253 2.04163 13.0086 2.04163H7.57529C7.35862 2.04163 7.24946 2.04163 7.16112 2.05079C6.75154 2.09466 6.37272 2.28865 6.09772 2.59535C5.82273 2.90204 5.67106 3.2997 5.67196 3.71163C5.67196 3.80079 5.68362 3.90913 5.70779 4.12496" stroke="#7F8C8D" stroke-width="1.0989"/>
<path d="M14.042 11.2084C14.7323 11.2084 15.292 10.6487 15.292 9.95837C15.292 9.26802 14.7323 8.70837 14.042 8.70837C13.3516 8.70837 12.792 9.26802 12.792 9.95837C12.792 10.6487 13.3516 11.2084 14.042 11.2084Z" stroke="#7F8C8D" stroke-width="1.0989"/>
<path d="M16.9588 17.0416L14.5555 15.2508C13.7805 14.6741 12.6255 14.6166 11.7721 15.1124L11.5505 15.2416C10.9571 15.5866 10.1505 15.5291 9.6388 15.1049L6.43963 12.4574C5.8013 11.9291 4.77713 11.9008 4.09796 12.3924L2.99463 13.1924" stroke="#7F8C8D" stroke-width="1.0989" stroke-linecap="round"/>
</svg>
