<svg xmlns="http://www.w3.org/2000/svg" xmlns:xlink="http://www.w3.org/1999/xlink" viewBox="0 0 30.15 41.07"><defs><style>.cls-1,.cls-10,.cls-12,.cls-14,.cls-16,.cls-18,.cls-20,.cls-22,.cls-24,.cls-26,.cls-275,.cls-28,.cls-3,.cls-30,.cls-32,.cls-34,.cls-36,.cls-38,.cls-40,.cls-42,.cls-44,.cls-46,.cls-48,.cls-49,.cls-8{mix-blend-mode:multiply;}.cls-1{fill:url(#radial-gradient);}.cls-2{fill:url(#radial-gradient-2);}.cls-3{fill:url(#radial-gradient-3);}.cls-4{fill:none;}.cls-5{isolation:isolate;}.cls-6{fill:url(#linear-gradient);}.cls-7{fill:url(#linear-gradient-2);}.cls-8{fill:#751b18;opacity:0.5;}.cls-9{fill:url(#linear-gradient-3);}.cls-10{fill:url(#linear-gradient-4);}.cls-11{fill:url(#linear-gradient-5);}.cls-12{fill:url(#linear-gradient-6);}.cls-13{fill:url(#linear-gradient-7);}.cls-14{fill:url(#linear-gradient-8);}.cls-15{fill:url(#linear-gradient-9);}.cls-16{fill:url(#linear-gradient-10);}.cls-17{fill:url(#linear-gradient-11);}.cls-18{fill:url(#linear-gradient-12);}.cls-19{fill:url(#linear-gradient-13);}.cls-20{fill:url(#linear-gradient-14);}.cls-21{fill:url(#linear-gradient-15);}.cls-22{fill:url(#linear-gradient-16);}.cls-23{fill:url(#linear-gradient-17);}.cls-24{fill:url(#linear-gradient-18);}.cls-25{fill:url(#linear-gradient-19);}.cls-26{fill:url(#linear-gradient-20);}.cls-27{fill:url(#linear-gradient-21);}.cls-28{fill:url(#linear-gradient-22);}.cls-29{fill:url(#linear-gradient-23);}.cls-30{fill:url(#linear-gradient-24);}.cls-31{fill:url(#linear-gradient-25);}.cls-32{fill:url(#linear-gradient-26);}.cls-33{fill:url(#linear-gradient-27);}.cls-34{fill:url(#linear-gradient-28);}.cls-35{fill:url(#linear-gradient-29);}.cls-36{fill:url(#linear-gradient-30);}.cls-37{fill:url(#linear-gradient-31);}.cls-38{fill:url(#linear-gradient-32);}.cls-39{fill:url(#linear-gradient-33);}.cls-40{fill:url(#linear-gradient-34);}.cls-41{fill:url(#linear-gradient-35);}.cls-42{fill:url(#linear-gradient-36);}.cls-43{fill:url(#linear-gradient-37);}.cls-44{fill:url(#linear-gradient-38);}.cls-45{fill:url(#linear-gradient-39);}.cls-46{fill:url(#linear-gradient-40);}.cls-47{fill:url(#linear-gradient-41);}.cls-48{fill:url(#linear-gradient-42);}.cls-49{opacity:0.55;}.cls-50{fill:#fff;opacity:0;}.cls-51{fill:#fefefe;opacity:0;}.cls-52{fill:#fdfdfd;opacity:0.01;}.cls-53{fill:#fbfbfb;opacity:0.01;}.cls-54{fill:#fafafa;opacity:0.02;}.cls-55{fill:#f9f9f9;opacity:0.02;}.cls-56{fill:#f8f8f8;opacity:0.03;}.cls-57{fill:#f7f7f7;opacity:0.03;}.cls-58{fill:#f6f6f6;opacity:0.04;}.cls-59{fill:#f4f4f4;opacity:0.04;}.cls-60{fill:#f3f3f3;opacity:0.05;}.cls-61{fill:#f2f2f2;opacity:0.05;}.cls-62{fill:#f1f1f1;opacity:0.06;}.cls-63{fill:#f0f0f0;opacity:0.06;}.cls-64{fill:#efefef;opacity:0.06;}.cls-65{fill:#ededed;opacity:0.07;}.cls-66{fill:#ececec;opacity:0.07;}.cls-67{fill:#ebebeb;opacity:0.08;}.cls-68{fill:#eaeaea;opacity:0.08;}.cls-69{fill:#e9e9e9;opacity:0.09;}.cls-70{fill:#e8e8e8;opacity:0.09;}.cls-71{fill:#e6e6e6;opacity:0.1;}.cls-72{fill:#e5e5e5;opacity:0.1;}.cls-73{fill:#e4e4e4;opacity:0.11;}.cls-74{fill:#e3e3e3;opacity:0.11;}.cls-75{fill:#e2e2e2;opacity:0.11;}.cls-76{fill:#e1e1e1;opacity:0.12;}.cls-77{fill:#dfdfdf;opacity:0.12;}.cls-78{fill:#dedede;opacity:0.13;}.cls-79{fill:#ddd;opacity:0.13;}.cls-80{fill:#dcdcdc;opacity:0.14;}.cls-81{fill:#dbdbdb;opacity:0.14;}.cls-82{fill:#dadada;opacity:0.15;}.cls-83{fill:#d8d8d8;opacity:0.15;}.cls-84{fill:#d7d7d7;opacity:0.16;}.cls-85{fill:#d6d6d6;opacity:0.16;}.cls-86{fill:#d5d5d5;opacity:0.17;}.cls-87{fill:#d4d4d4;opacity:0.17;}.cls-88{fill:#d3d3d3;opacity:0.17;}.cls-89{fill:#d1d1d1;opacity:0.18;}.cls-90{fill:#d0d0d0;opacity:0.18;}.cls-91{fill:#cfcfcf;opacity:0.19;}.cls-92{fill:#cecece;opacity:0.19;}.cls-93{fill:#cdcdcd;opacity:0.2;}.cls-94{fill:#ccc;opacity:0.2;}.cls-95{fill:#cacaca;opacity:0.21;}.cls-96{fill:#c9c9c9;opacity:0.21;}.cls-97{fill:#c8c8c8;opacity:0.22;}.cls-98{fill:#c7c7c7;opacity:0.22;}.cls-99{fill:#c6c6c6;opacity:0.22;}.cls-100{fill:#c5c5c5;opacity:0.23;}.cls-101{fill:#c3c3c3;opacity:0.23;}.cls-102{fill:#c2c2c2;opacity:0.24;}.cls-103{fill:#c1c1c1;opacity:0.24;}.cls-104{fill:silver;opacity:0.25;}.cls-105{fill:#bfbfbf;opacity:0.25;}.cls-106{fill:#bdbdbd;opacity:0.26;}.cls-107{fill:#bcbcbc;opacity:0.26;}.cls-108{fill:#bbb;opacity:0.27;}.cls-109{fill:#bababa;opacity:0.27;}.cls-110{fill:#b9b9b9;opacity:0.28;}.cls-111{fill:#b8b8b8;opacity:0.28;}.cls-112{fill:#b6b6b6;opacity:0.28;}.cls-113{fill:#b5b5b5;opacity:0.29;}.cls-114{fill:#b4b4b4;opacity:0.29;}.cls-115{fill:#b3b3b3;opacity:0.3;}.cls-116{fill:#b2b2b2;opacity:0.3;}.cls-117{fill:#b1b1b1;opacity:0.31;}.cls-118{fill:#afafaf;opacity:0.31;}.cls-119{fill:#aeaeae;opacity:0.32;}.cls-120{fill:#adadad;opacity:0.32;}.cls-121{fill:#acacac;opacity:0.33;}.cls-122{fill:#ababab;opacity:0.33;}.cls-123{fill:#aaa;opacity:0.33;}.cls-124{fill:#a8a8a8;opacity:0.34;}.cls-125{fill:#a7a7a7;opacity:0.34;}.cls-126{fill:#a6a6a6;opacity:0.35;}.cls-127{fill:#a5a5a5;opacity:0.35;}.cls-128{fill:#a4a4a4;opacity:0.36;}.cls-129{fill:#a3a3a3;opacity:0.36;}.cls-130{fill:#a1a1a1;opacity:0.37;}.cls-131{fill:#a0a0a0;opacity:0.37;}.cls-132{fill:#9f9f9f;opacity:0.38;}.cls-133{fill:#9e9e9e;opacity:0.38;}.cls-134{fill:#9d9d9d;opacity:0.39;}.cls-135{fill:#9c9c9c;opacity:0.39;}.cls-136{fill:#9a9a9a;opacity:0.39;}.cls-137{fill:#999;opacity:0.4;}.cls-138{fill:#989898;opacity:0.4;}.cls-139{fill:#979797;opacity:0.41;}.cls-140{fill:#969696;opacity:0.41;}.cls-141{fill:#959595;opacity:0.42;}.cls-142{fill:#939393;opacity:0.42;}.cls-143{fill:#929292;opacity:0.43;}.cls-144{fill:#919191;opacity:0.43;}.cls-145{fill:#909090;opacity:0.44;}.cls-146{fill:#8f8f8f;opacity:0.44;}.cls-147{fill:#8e8e8e;opacity:0.44;}.cls-148{fill:#8c8c8c;opacity:0.45;}.cls-149{fill:#8b8b8b;opacity:0.45;}.cls-150{fill:#8a8a8a;opacity:0.46;}.cls-151{fill:#898989;opacity:0.46;}.cls-152{fill:#888;opacity:0.47;}.cls-153{fill:#878787;opacity:0.47;}.cls-154{fill:#858585;opacity:0.48;}.cls-155{fill:#848484;opacity:0.48;}.cls-156{fill:#838383;opacity:0.49;}.cls-157{fill:#828282;opacity:0.49;}.cls-158{fill:#818181;opacity:0.5;}.cls-159{fill:gray;opacity:0.5;}.cls-160{fill:#7e7e7e;opacity:0.5;}.cls-161{fill:#7d7d7d;opacity:0.51;}.cls-162{fill:#7c7c7c;opacity:0.51;}.cls-163{fill:#7b7b7b;opacity:0.52;}.cls-164{fill:#7a7a7a;opacity:0.52;}.cls-165{fill:#787878;opacity:0.53;}.cls-166{fill:#777;opacity:0.53;}.cls-167{fill:#767676;opacity:0.54;}.cls-168{fill:#757575;opacity:0.54;}.cls-169{fill:#747474;opacity:0.55;}.cls-170{fill:#737373;opacity:0.55;}.cls-171{fill:#717171;opacity:0.56;}.cls-172{fill:#707070;opacity:0.56;}.cls-173{fill:#6f6f6f;opacity:0.56;}.cls-174{fill:#6e6e6e;opacity:0.57;}.cls-175{fill:#6d6d6d;opacity:0.57;}.cls-176{fill:#6c6c6c;opacity:0.58;}.cls-177{fill:#6a6a6a;opacity:0.58;}.cls-178{fill:#696969;opacity:0.59;}.cls-179{fill:#686868;opacity:0.59;}.cls-180{fill:#676767;opacity:0.6;}.cls-181{fill:#666;opacity:0.6;}.cls-182{fill:#656565;opacity:0.61;}.cls-183{fill:#636363;opacity:0.61;}.cls-184{fill:#626262;opacity:0.61;}.cls-185{fill:#616161;opacity:0.62;}.cls-186{fill:#606060;opacity:0.62;}.cls-187{fill:#5f5f5f;opacity:0.63;}.cls-188{fill:#5e5e5e;opacity:0.63;}.cls-189{fill:#5c5c5c;opacity:0.64;}.cls-190{fill:#5b5b5b;opacity:0.64;}.cls-191{fill:#5a5a5a;opacity:0.65;}.cls-192{fill:#595959;opacity:0.65;}.cls-193{fill:#585858;opacity:0.66;}.cls-194{fill:#575757;opacity:0.66;}.cls-195{fill:#555;opacity:0.67;}.cls-196{fill:#545454;opacity:0.67;}.cls-197{fill:#535353;opacity:0.67;}.cls-198{fill:#525252;opacity:0.68;}.cls-199{fill:#515151;opacity:0.68;}.cls-200{fill:#505050;opacity:0.69;}.cls-201{fill:#4e4e4e;opacity:0.69;}.cls-202{fill:#4d4d4d;opacity:0.7;}.cls-203{fill:#4c4c4c;opacity:0.7;}.cls-204{fill:#4b4b4b;opacity:0.71;}.cls-205{fill:#4a4a4a;opacity:0.71;}.cls-206{fill:#494949;opacity:0.72;}.cls-207{fill:#474747;opacity:0.72;}.cls-208{fill:#464646;opacity:0.72;}.cls-209{fill:#454545;opacity:0.73;}.cls-210{fill:#444;opacity:0.73;}.cls-211{fill:#434343;opacity:0.74;}.cls-212{fill:#424242;opacity:0.74;}.cls-213{fill:#404040;opacity:0.75;}.cls-214{fill:#3f3f3f;opacity:0.75;}.cls-215{fill:#3e3e3e;opacity:0.76;}.cls-216{fill:#3d3d3d;opacity:0.76;}.cls-217{fill:#3c3c3c;opacity:0.77;}.cls-218{fill:#3a3a3a;opacity:0.77;}.cls-219{fill:#393939;opacity:0.78;}.cls-220{fill:#383838;opacity:0.78;}.cls-221{fill:#373737;opacity:0.78;}.cls-222{fill:#363636;opacity:0.79;}.cls-223{fill:#353535;opacity:0.79;}.cls-224{fill:#333;opacity:0.8;}.cls-225{fill:#323232;opacity:0.8;}.cls-226{fill:#313131;opacity:0.81;}.cls-227{fill:#303030;opacity:0.81;}.cls-228{fill:#2f2f2f;opacity:0.82;}.cls-229{fill:#2e2e2e;opacity:0.82;}.cls-230{fill:#2c2c2c;opacity:0.83;}.cls-231{fill:#2b2b2b;opacity:0.83;}.cls-232{fill:#2a2a2a;opacity:0.83;}.cls-233{fill:#292929;opacity:0.84;}.cls-234{fill:#282828;opacity:0.84;}.cls-235{fill:#272727;opacity:0.85;}.cls-236{fill:#252525;opacity:0.85;}.cls-237{fill:#242424;opacity:0.86;}.cls-238{fill:#232323;opacity:0.86;}.cls-239{fill:#222;opacity:0.87;}.cls-240{fill:#212121;opacity:0.87;}.cls-241{fill:#202020;opacity:0.88;}.cls-242{fill:#1e1e1e;opacity:0.88;}.cls-243{fill:#1d1d1d;opacity:0.89;}.cls-244{fill:#1c1c1c;opacity:0.89;}.cls-245{fill:#1b1b1b;opacity:0.89;}.cls-246{fill:#1a1a1a;opacity:0.9;}.cls-247{fill:#191919;opacity:0.9;}.cls-248{fill:#171717;opacity:0.91;}.cls-249{fill:#161616;opacity:0.91;}.cls-250{fill:#151515;opacity:0.92;}.cls-251{fill:#141414;opacity:0.92;}.cls-252{fill:#131313;opacity:0.93;}.cls-253{fill:#121212;opacity:0.93;}.cls-254{fill:#101010;opacity:0.94;}.cls-255{fill:#0f0f0f;opacity:0.94;}.cls-256{fill:#0e0e0e;opacity:0.94;}.cls-257{fill:#0d0d0d;opacity:0.95;}.cls-258{fill:#0c0c0c;opacity:0.95;}.cls-259{fill:#0b0b0b;opacity:0.96;}.cls-260{fill:#090909;opacity:0.96;}.cls-261{fill:#080808;opacity:0.97;}.cls-262{fill:#070707;opacity:0.97;}.cls-263{fill:#060606;opacity:0.98;}.cls-264{fill:#050505;opacity:0.98;}.cls-265{fill:#040404;opacity:0.99;}.cls-266{fill:#020202;opacity:0.99;}.cls-267{fill:#010101;opacity:1;}.cls-268{clip-path:url(#clip-path);}.cls-269{fill:url(#radial-gradient-4);}.cls-270,.cls-271,.cls-274{opacity:0.75;}.cls-270,.cls-328{mix-blend-mode:overlay;}.cls-270{fill:url(#radial-gradient-5);}.cls-271,.cls-272,.cls-321,.cls-323,.cls-325{mix-blend-mode:screen;}.cls-271{fill:url(#linear-gradient-43);}.cls-272,.cls-328{opacity:0.32;}.cls-272{fill:url(#linear-gradient-44);}.cls-273{fill:url(#linear-gradient-45);}.cls-275{opacity:0.85;}.cls-276{fill:url(#linear-gradient-46);}.cls-277{fill:url(#linear-gradient-47);}.cls-278{fill:url(#linear-gradient-48);}.cls-279{fill:url(#linear-gradient-49);}.cls-280{fill:url(#linear-gradient-50);}.cls-281{fill:url(#linear-gradient-51);}.cls-282{fill:url(#linear-gradient-52);}.cls-283{fill:url(#linear-gradient-53);}.cls-284{fill:url(#linear-gradient-54);}.cls-285{fill:url(#linear-gradient-55);}.cls-286{fill:url(#linear-gradient-56);}.cls-287{fill:url(#linear-gradient-57);}.cls-288{fill:url(#linear-gradient-58);}.cls-289{fill:url(#linear-gradient-59);}.cls-290{fill:url(#linear-gradient-60);}.cls-291{fill:url(#linear-gradient-61);}.cls-292{fill:url(#linear-gradient-62);}.cls-293{fill:url(#linear-gradient-63);}.cls-294{fill:url(#linear-gradient-64);}.cls-295{fill:url(#linear-gradient-65);}.cls-296{fill:url(#linear-gradient-66);}.cls-297{fill:url(#linear-gradient-67);}.cls-298{fill:url(#linear-gradient-68);}.cls-299{fill:url(#linear-gradient-69);}.cls-300{fill:url(#linear-gradient-70);}.cls-301{fill:url(#linear-gradient-71);}.cls-302{fill:url(#linear-gradient-72);}.cls-303{fill:url(#linear-gradient-73);}.cls-304{fill:url(#linear-gradient-74);}.cls-305{fill:url(#linear-gradient-75);}.cls-306{fill:url(#linear-gradient-76);}.cls-307{fill:url(#linear-gradient-77);}.cls-308{fill:url(#linear-gradient-78);}.cls-309{fill:url(#linear-gradient-79);}.cls-310{fill:url(#linear-gradient-80);}.cls-311{fill:url(#linear-gradient-81);}.cls-312{fill:url(#linear-gradient-82);}.cls-313{fill:url(#linear-gradient-83);}.cls-314{fill:url(#linear-gradient-84);}.cls-315{fill:url(#linear-gradient-85);}.cls-316{fill:url(#linear-gradient-86);}.cls-317{fill:url(#linear-gradient-87);}.cls-318{fill:url(#linear-gradient-88);}.cls-319{fill:url(#linear-gradient-132);}.cls-320{mask:url(#mask);}.cls-321{fill:url(#radial-gradient-6);}.cls-322{mask:url(#mask-2);}.cls-323{fill:url(#radial-gradient-7);}.cls-324{mask:url(#mask-3);}.cls-325{fill:url(#radial-gradient-8);}.cls-326{fill:url(#linear-gradient-133);}.cls-327{fill:url(#linear-gradient-134);}.cls-328{fill:url(#radial-gradient-9);}</style><radialGradient id="radial-gradient" cx="908.92" cy="86.47" r="10.74" gradientTransform="matrix(0.15, -0.28, 0.61, 0.32, -166.04, 236.88)" gradientUnits="userSpaceOnUse"><stop offset="0" stop-color="#fff"/><stop offset="0.14" stop-color="#e2e2e2"/><stop offset="0.43" stop-color="#999"/><stop offset="0.87" stop-color="#262626"/><stop offset="1"/></radialGradient><radialGradient id="radial-gradient-2" cx="346.42" cy="-228.5" r="4.87" gradientTransform="matrix(0.44, 0.23, -0.25, 0.5, -192.3, 42.31)" gradientUnits="userSpaceOnUse"><stop offset="0" stop-color="#fff"/><stop offset="0.21" stop-color="#c4c4c4"/><stop offset="0.6" stop-color="#5c5c5c"/><stop offset="0.87" stop-color="#1a1a1a"/><stop offset="1"/></radialGradient><radialGradient id="radial-gradient-3" cx="669.8" cy="-70.04" r="7.02" gradientTransform="matrix(0.17, -0.27, 0.5, 0.31, -67.8, 224.18)" xlink:href="#radial-gradient"/><linearGradient id="linear-gradient" x1="14.91" y1="22.1" x2="14.91" y2="40.7" gradientUnits="userSpaceOnUse"><stop offset="0" stop-color="#db1a1f"/><stop offset="0.55" stop-color="#df1f24"/><stop offset="0.58" stop-color="#df1f24"/><stop offset="0.69" stop-color="#d0181d"/><stop offset="0.88" stop-color="#bb0e13"/><stop offset="1" stop-color="#b30b10"/></linearGradient><linearGradient id="linear-gradient-2" x1="14.91" y1="22.09" x2="14.91" y2="40.09" gradientUnits="userSpaceOnUse"><stop offset="0" stop-color="#f0e8e5"/><stop offset="0.44" stop-color="#ede3df"/><stop offset="1" stop-color="#e3d5cf"/></linearGradient><linearGradient id="linear-gradient-3" x1="-196.31" y1="217.41" x2="-192.37" y2="217.41" gradientTransform="translate(-214.81 -179.15) rotate(-90)" gradientUnits="userSpaceOnUse"><stop offset="0" stop-color="#db1a1f"/><stop offset="0.03" stop-color="#e01a1f"/><stop offset="0.06" stop-color="#ed1b1f"/><stop offset="0.07" stop-color="#f21b1f"/><stop offset="0.19" stop-color="#ed1c20"/><stop offset="0.33" stop-color="#df1f24"/><stop offset="0.5" stop-color="#d0181d"/><stop offset="0.8" stop-color="#bb0e13"/><stop offset="1" stop-color="#b30b10"/></linearGradient><linearGradient id="linear-gradient-4" x1="-196.31" y1="217.62" x2="-192.37" y2="217.62" gradientTransform="translate(-214.81 -179.15) rotate(-90)" gradientUnits="userSpaceOnUse"><stop offset="0" stop-color="#db1a1f"/><stop offset="0.02" stop-color="#d61a1f"/><stop offset="0.04" stop-color="#c91a1f"/><stop offset="0.07" stop-color="#b31b1f"/><stop offset="0.07" stop-color="#af1b1f"/><stop offset="0.14" stop-color="#b41b20"/><stop offset="0.23" stop-color="#c31d21"/><stop offset="0.32" stop-color="#dc1f24"/><stop offset="0.33" stop-color="#df1f24"/><stop offset="0.5" stop-color="#d0181d"/><stop offset="0.8" stop-color="#bb0e13"/><stop offset="1" stop-color="#b30b10"/></linearGradient><linearGradient id="linear-gradient-5" x1="-124.27" y1="196.22" x2="-120.33" y2="196.22" gradientTransform="translate(-145.66 -165.62) rotate(-72)" xlink:href="#linear-gradient-3"/><linearGradient id="linear-gradient-6" x1="-124.27" y1="196.44" x2="-120.33" y2="196.44" gradientTransform="translate(-145.66 -165.62) rotate(-72)" xlink:href="#linear-gradient-4"/><linearGradient id="linear-gradient-7" x1="-61" y1="153.62" x2="-57.06" y2="153.62" gradientTransform="translate(-84.67 -130.22) rotate(-54)" xlink:href="#linear-gradient-3"/><linearGradient id="linear-gradient-8" x1="-61" y1="153.84" x2="-57.06" y2="153.84" gradientTransform="translate(-84.67 -130.22) rotate(-54)" xlink:href="#linear-gradient-4"/><linearGradient id="linear-gradient-9" x1="-438.64" y1="-83.08" x2="-434.7" y2="-83.08" gradientTransform="translate(-379.6 214.56) rotate(144)" xlink:href="#linear-gradient-3"/><linearGradient id="linear-gradient-10" x1="-438.64" y1="-82.86" x2="-434.7" y2="-82.86" gradientTransform="translate(-379.6 214.56) rotate(144)" xlink:href="#linear-gradient-4"/><linearGradient id="linear-gradient-11" x1="-15.07" y1="94.23" x2="-11.12" y2="94.23" gradientTransform="translate(-37.15 -78.88) rotate(-36)" xlink:href="#linear-gradient-3"/><linearGradient id="linear-gradient-12" x1="-15.07" y1="94.45" x2="-11.12" y2="94.45" gradientTransform="translate(-37.15 -78.88) rotate(-36)" xlink:href="#linear-gradient-4"/><linearGradient id="linear-gradient-13" x1="-464.11" y1="-12.68" x2="-460.17" y2="-12.68" gradientTransform="translate(-424.42 157.64) rotate(162)" xlink:href="#linear-gradient-3"/><linearGradient id="linear-gradient-14" x1="-464.11" y1="-12.46" x2="-460.17" y2="-12.46" gradientTransform="translate(-424.42 157.64) rotate(162)" xlink:href="#linear-gradient-4"/><linearGradient id="linear-gradient-15" x1="10.59" y1="22.32" x2="14.53" y2="22.32" gradientTransform="translate(-7.74 -14.11) rotate(-18)" xlink:href="#linear-gradient-3"/><linearGradient id="linear-gradient-16" x1="10.59" y1="22.54" x2="14.53" y2="22.54" gradientTransform="translate(-7.74 -14.11) rotate(-18)" xlink:href="#linear-gradient-4"/><linearGradient id="linear-gradient-17" x1="-466.41" y1="63.4" x2="-462.47" y2="63.4" gradientTransform="translate(-449.25 90.95) rotate(180)" xlink:href="#linear-gradient-3"/><linearGradient id="linear-gradient-18" x1="-466.41" y1="63.62" x2="-462.47" y2="63.62" gradientTransform="translate(-449.25 90.95) rotate(180)" xlink:href="#linear-gradient-4"/><linearGradient id="linear-gradient-19" x1="12.98" y1="-52.69" x2="16.92" y2="-52.69" gradientTransform="translate(0 55.29)" xlink:href="#linear-gradient-3"/><linearGradient id="linear-gradient-20" x1="12.98" y1="-52.47" x2="16.92" y2="-52.47" gradientTransform="translate(0 55.29)" xlink:href="#linear-gradient-4"/><linearGradient id="linear-gradient-21" x1="-445.81" y1="135.92" x2="-441.87" y2="135.92" gradientTransform="translate(-452.8 19.1) rotate(-162)" xlink:href="#linear-gradient-3"/><linearGradient id="linear-gradient-22" x1="-445.81" y1="136.13" x2="-441.87" y2="136.13" gradientTransform="translate(-452.8 19.1) rotate(-162)" xlink:href="#linear-gradient-4"/><linearGradient id="linear-gradient-23" x1="-8.68" y1="-125.32" x2="-4.74" y2="-125.32" gradientTransform="translate(-13.53 124.44) rotate(18)" xlink:href="#linear-gradient-3"/><linearGradient id="linear-gradient-24" x1="-8.68" y1="-125.1" x2="-4.74" y2="-125.1" gradientTransform="translate(-13.53 124.44) rotate(18)" xlink:href="#linear-gradient-4"/><linearGradient id="linear-gradient-25" x1="-402.54" y1="198.36" x2="-398.6" y2="198.36" gradientTransform="translate(-432.82 -49.75) rotate(-144)" xlink:href="#linear-gradient-3"/><linearGradient id="linear-gradient-26" x1="-402.54" y1="198.57" x2="-398.6" y2="198.57" gradientTransform="translate(-432.82 -49.75) rotate(-144)" xlink:href="#linear-gradient-4"/><linearGradient id="linear-gradient-27" x1="-50.45" y1="-187.91" x2="-46.51" y2="-187.91" gradientTransform="translate(-48.93 185.43) rotate(36)" xlink:href="#linear-gradient-3"/><linearGradient id="linear-gradient-28" x1="-50.45" y1="-187.7" x2="-46.51" y2="-187.7" gradientTransform="translate(-48.93 185.43) rotate(36)" xlink:href="#linear-gradient-4"/><linearGradient id="linear-gradient-29" x1="-181.62" y1="-260.17" x2="-177.67" y2="-260.17" gradientTransform="translate(-165.04 262.36) rotate(72)" xlink:href="#linear-gradient-3"/><linearGradient id="linear-gradient-30" x1="-181.62" y1="-259.96" x2="-177.67" y2="-259.96" gradientTransform="translate(-165.04 262.36) rotate(72)" xlink:href="#linear-gradient-4"/><linearGradient id="linear-gradient-31" x1="-343.15" y1="245.01" x2="-339.21" y2="245.01" gradientTransform="translate(-393.7 -109.5) rotate(-126)" xlink:href="#linear-gradient-3"/><linearGradient id="linear-gradient-32" x1="-343.15" y1="245.22" x2="-339.21" y2="245.22" gradientTransform="translate(-393.7 -109.5) rotate(-126)" xlink:href="#linear-gradient-4"/><linearGradient id="linear-gradient-33" x1="-257.12" y1="-206.7" x2="-253.17" y2="-206.7" gradientTransform="translate(-179.15 270.1) rotate(90)" xlink:href="#linear-gradient-3"/><linearGradient id="linear-gradient-34" x1="-257.12" y1="-206.48" x2="-253.17" y2="-206.48" gradientTransform="translate(-179.15 270.1) rotate(90)" xlink:href="#linear-gradient-4"/><linearGradient id="linear-gradient-35" x1="-110.55" y1="-233.86" x2="-106.61" y2="-233.86" gradientTransform="translate(-100.27 232.95) rotate(54)" xlink:href="#linear-gradient-3"/><linearGradient id="linear-gradient-36" x1="-110.55" y1="-233.64" x2="-106.61" y2="-233.64" gradientTransform="translate(-100.27 232.95) rotate(54)" xlink:href="#linear-gradient-4"/><linearGradient id="linear-gradient-37" x1="-330.22" y1="-185.62" x2="-326.28" y2="-185.62" gradientTransform="translate(-251 273.66) rotate(108)" xlink:href="#linear-gradient-3"/><linearGradient id="linear-gradient-38" x1="-330.22" y1="-185.41" x2="-326.28" y2="-185.41" gradientTransform="translate(-251 273.66) rotate(108)" xlink:href="#linear-gradient-4"/><linearGradient id="linear-gradient-39" x1="-271.91" y1="269.82" x2="-267.97" y2="269.82" gradientTransform="translate(-336.79 -154.32) rotate(-108)" xlink:href="#linear-gradient-3"/><linearGradient id="linear-gradient-40" x1="-271.91" y1="270.04" x2="-267.97" y2="270.04" gradientTransform="translate(-336.79 -154.32) rotate(-108)" xlink:href="#linear-gradient-4"/><linearGradient id="linear-gradient-41" x1="-391.98" y1="-143.18" x2="-388.04" y2="-143.18" gradientTransform="translate(-319.85 253.67) rotate(126)" xlink:href="#linear-gradient-3"/><linearGradient id="linear-gradient-42" x1="-391.98" y1="-142.96" x2="-388.04" y2="-142.96" gradientTransform="translate(-319.85 253.67) rotate(126)" xlink:href="#linear-gradient-4"/><clipPath id="clip-path"><circle class="cls-4" cx="14.91" cy="15.25" r="11.05"/></clipPath><radialGradient id="radial-gradient-4" cx="82.23" cy="48.94" r="42.94" gradientTransform="translate(-33.9 -1.54) scale(0.5)" gradientUnits="userSpaceOnUse"><stop offset="0.01" stop-color="#f6c054"/><stop offset="0.3" stop-color="#f2a942"/><stop offset="0.54" stop-color="#ffea72"/><stop offset="0.58" stop-color="#fff071"/><stop offset="0.59" stop-color="#fff171"/><stop offset="0.76" stop-color="#fada61"/><stop offset="0.96" stop-color="#f3b94a"/></radialGradient><radialGradient id="radial-gradient-5" cx="82.23" cy="48.94" r="42.94" gradientTransform="translate(-33.9 -1.54) scale(0.5)" gradientUnits="userSpaceOnUse"><stop offset="0" stop-color="#ffffc3"/><stop offset="0.95" stop-color="#ffea72"/></radialGradient><linearGradient id="linear-gradient-43" x1="21.65" y1="9.8" x2="8.15" y2="20.7" gradientTransform="translate(27.56 -1.92) rotate(80.76)" gradientUnits="userSpaceOnUse"><stop offset="0.48" stop-color="#cc9434"/><stop offset="0.68" stop-color="#ffea72"/><stop offset="0.76" stop-color="#ffe76c"/><stop offset="0.87" stop-color="#ffde5c"/><stop offset="0.96" stop-color="#ffd44a"/></linearGradient><linearGradient id="linear-gradient-44" x1="10.92" y1="7.24" x2="18.88" y2="23.21" xlink:href="#linear-gradient-43"/><linearGradient id="linear-gradient-45" x1="9.43" y1="9.25" x2="20.52" y2="21.39" gradientUnits="userSpaceOnUse"><stop offset="0.01" stop-color="#f6c054"/><stop offset="0.54" stop-color="#ffea72"/><stop offset="0.58" stop-color="#fff071"/><stop offset="0.59" stop-color="#fff171"/><stop offset="0.82" stop-color="#ffe05a"/><stop offset="0.96" stop-color="#ffd44a"/></linearGradient><linearGradient id="linear-gradient-46" x1="21.58" y1="16.01" x2="22.09" y2="16.01" gradientUnits="userSpaceOnUse"><stop offset="0" stop-color="#f3ce5e"/><stop offset="1" stop-color="#f2be4a"/></linearGradient><linearGradient id="linear-gradient-47" x1="21.39" y1="17.01" x2="21.9" y2="17.01" xlink:href="#linear-gradient-46"/><linearGradient id="linear-gradient-48" x1="21.06" y1="17.97" x2="21.57" y2="17.97" xlink:href="#linear-gradient-46"/><linearGradient id="linear-gradient-49" x1="20.6" y1="18.88" x2="21.11" y2="18.88" xlink:href="#linear-gradient-46"/><linearGradient id="linear-gradient-50" x1="20.01" y1="19.7" x2="20.52" y2="19.7" xlink:href="#linear-gradient-46"/><linearGradient id="linear-gradient-51" x1="19.3" y1="20.43" x2="19.81" y2="20.43" xlink:href="#linear-gradient-46"/><linearGradient id="linear-gradient-52" x1="18.5" y1="21.06" x2="19.01" y2="21.06" xlink:href="#linear-gradient-46"/><linearGradient id="linear-gradient-53" x1="17.61" y1="21.55" x2="18.12" y2="21.55" xlink:href="#linear-gradient-46"/><linearGradient id="linear-gradient-54" x1="16.66" y1="21.92" x2="17.17" y2="21.92" xlink:href="#linear-gradient-46"/><linearGradient id="linear-gradient-55" x1="15.67" y1="22.13" x2="16.18" y2="22.13" xlink:href="#linear-gradient-46"/><linearGradient id="linear-gradient-56" x1="14.65" y1="22.21" x2="15.16" y2="22.21" xlink:href="#linear-gradient-46"/><linearGradient id="linear-gradient-57" x1="13.64" y1="22.13" x2="14.15" y2="22.13" xlink:href="#linear-gradient-46"/><linearGradient id="linear-gradient-58" x1="12.65" y1="21.92" x2="13.16" y2="21.92" xlink:href="#linear-gradient-46"/><linearGradient id="linear-gradient-59" x1="11.7" y1="21.55" x2="12.2" y2="21.55" xlink:href="#linear-gradient-46"/><linearGradient id="linear-gradient-60" x1="10.81" y1="21.06" x2="11.32" y2="21.06" xlink:href="#linear-gradient-46"/><linearGradient id="linear-gradient-61" x1="10.01" y1="20.43" x2="10.51" y2="20.43" xlink:href="#linear-gradient-46"/><linearGradient id="linear-gradient-62" x1="9.3" y1="19.7" x2="9.81" y2="19.7" xlink:href="#linear-gradient-46"/><linearGradient id="linear-gradient-63" x1="8.71" y1="18.88" x2="9.22" y2="18.88" xlink:href="#linear-gradient-46"/><linearGradient id="linear-gradient-64" x1="8.24" y1="17.97" x2="8.75" y2="17.97" xlink:href="#linear-gradient-46"/><linearGradient id="linear-gradient-65" x1="7.92" y1="17.01" x2="8.43" y2="17.01" xlink:href="#linear-gradient-46"/><linearGradient id="linear-gradient-66" x1="7.73" y1="16.01" x2="8.24" y2="16.01" xlink:href="#linear-gradient-46"/><linearGradient id="linear-gradient-67" x1="7.7" y1="14.99" x2="8.21" y2="14.99" xlink:href="#linear-gradient-46"/><linearGradient id="linear-gradient-68" x1="7.81" y1="13.98" x2="8.31" y2="13.98" xlink:href="#linear-gradient-46"/><linearGradient id="linear-gradient-69" x1="8.06" y1="13" x2="8.57" y2="13" xlink:href="#linear-gradient-46"/><linearGradient id="linear-gradient-70" x1="8.46" y1="12.06" x2="8.97" y2="12.06" xlink:href="#linear-gradient-46"/><linearGradient id="linear-gradient-71" x1="8.99" y1="11.19" x2="9.5" y2="11.19" xlink:href="#linear-gradient-46"/><linearGradient id="linear-gradient-72" x1="9.64" y1="10.41" x2="10.15" y2="10.41" xlink:href="#linear-gradient-46"/><linearGradient id="linear-gradient-73" x1="10.39" y1="9.73" x2="10.91" y2="9.73" xlink:href="#linear-gradient-46"/><linearGradient id="linear-gradient-74" x1="11.25" y1="9.17" x2="11.75" y2="9.17" xlink:href="#linear-gradient-46"/><linearGradient id="linear-gradient-75" x1="12.16" y1="8.74" x2="12.67" y2="8.74" xlink:href="#linear-gradient-46"/><linearGradient id="linear-gradient-76" x1="13.14" y1="8.45" x2="13.65" y2="8.45" xlink:href="#linear-gradient-46"/><linearGradient id="linear-gradient-77" x1="14.14" y1="8.3" x2="14.65" y2="8.3" xlink:href="#linear-gradient-46"/><linearGradient id="linear-gradient-78" x1="15.16" y1="8.3" x2="15.67" y2="8.3" xlink:href="#linear-gradient-46"/><linearGradient id="linear-gradient-79" x1="16.17" y1="8.45" x2="16.68" y2="8.45" xlink:href="#linear-gradient-46"/><linearGradient id="linear-gradient-80" x1="17.14" y1="8.74" x2="17.65" y2="8.74" xlink:href="#linear-gradient-46"/><linearGradient id="linear-gradient-81" x1="18.06" y1="9.17" x2="18.57" y2="9.17" xlink:href="#linear-gradient-46"/><linearGradient id="linear-gradient-82" x1="18.91" y1="9.73" x2="19.42" y2="9.73" xlink:href="#linear-gradient-46"/><linearGradient id="linear-gradient-83" x1="19.67" y1="10.41" x2="20.17" y2="10.41" xlink:href="#linear-gradient-46"/><linearGradient id="linear-gradient-84" x1="20.31" y1="11.19" x2="20.83" y2="11.19" xlink:href="#linear-gradient-46"/><linearGradient id="linear-gradient-85" x1="20.85" y1="12.06" x2="21.35" y2="12.06" xlink:href="#linear-gradient-46"/><linearGradient id="linear-gradient-86" x1="21.24" y1="13" x2="21.76" y2="13" xlink:href="#linear-gradient-46"/><linearGradient id="linear-gradient-87" x1="21.5" y1="13.98" x2="22.01" y2="13.98" xlink:href="#linear-gradient-46"/><linearGradient id="linear-gradient-88" x1="21.61" y1="14.99" x2="22.12" y2="14.99" xlink:href="#linear-gradient-46"/><linearGradient id="linear-gradient-132" x1="20.67" y1="9.54" x2="9.48" y2="20.63" gradientUnits="userSpaceOnUse"><stop offset="0" stop-color="#aa7238"/><stop offset="0.25" stop-color="#c08443"/><stop offset="0.35" stop-color="#be8242"/><stop offset="0.39" stop-color="#b87b3d"/><stop offset="0.42" stop-color="#ad7036"/><stop offset="0.44" stop-color="#9d5f2b"/><stop offset="0.46" stop-color="#88491d"/><stop offset="0.47" stop-color="#7a3a14"/><stop offset="0.64" stop-color="#7c3c15"/><stop offset="0.72" stop-color="#83441a"/><stop offset="0.79" stop-color="#8e5123"/><stop offset="0.85" stop-color="#9e642f"/><stop offset="0.9" stop-color="#b37c3e"/><stop offset="0.95" stop-color="#cd9b52"/><stop offset="0.99" stop-color="#ebbe68"/><stop offset="1" stop-color="#f0c46c"/></linearGradient><mask id="mask" x="13.21" y="3.74" width="13.48" height="9.12" maskUnits="userSpaceOnUse"><path class="cls-1" d="M21.53,5.28c3.62,1.88,5.84,4.76,5,6.43s-4.5,1.5-8.12-.38-5.85-4.77-5-6.44S17.91,3.39,21.53,5.28Z"/></mask><radialGradient id="radial-gradient-6" cx="908.92" cy="86.47" r="10.74" gradientTransform="matrix(0.15, -0.28, 0.61, 0.32, -166.04, 236.88)" gradientUnits="userSpaceOnUse"><stop offset="0" stop-color="#ecce88"/><stop offset="1"/></radialGradient><mask id="mask-2" x="17.39" y="5.73" width="5.12" height="5.14" maskUnits="userSpaceOnUse"><path class="cls-2" d="M22.23,9.47A2.56,2.56,0,1,1,21.13,6,2.57,2.57,0,0,1,22.23,9.47Z"/></mask><radialGradient id="radial-gradient-7" cx="346.42" cy="-228.5" r="4.87" gradientTransform="matrix(0.44, 0.23, -0.25, 0.5, -192.3, 42.31)" gradientUnits="userSpaceOnUse"><stop offset="0" stop-color="#ffa177"/><stop offset="0.13" stop-color="#e5916b"/><stop offset="0.4" stop-color="#a3674c"/><stop offset="0.79" stop-color="#3b251c"/><stop offset="1"/></radialGradient><mask id="mask-3" x="5.54" y="18.76" width="7.43" height="5.78" maskUnits="userSpaceOnUse"><path class="cls-3" d="M10.43,19.76c1.94,1.2,3,3,2.34,4.08s-2.75.91-4.7-.3-3-3-2.34-4.07S8.48,18.55,10.43,19.76Z"/></mask><radialGradient id="radial-gradient-8" cx="669.8" cy="-70.04" r="7.02" gradientTransform="matrix(0.17, -0.27, 0.5, 0.31, -67.8, 224.18)" gradientUnits="userSpaceOnUse"><stop offset="0" stop-color="#ecc29a"/><stop offset="1"/></radialGradient><linearGradient id="linear-gradient-133" x1="11.99" y1="18.23" x2="17.56" y2="11.88" gradientUnits="userSpaceOnUse"><stop offset="0" stop-color="#f1c848"/><stop offset="0.19" stop-color="#f0c94f"/><stop offset="0.45" stop-color="#ebcc62"/><stop offset="0.48" stop-color="#ebcc64"/><stop offset="0.75" stop-color="#f5e579"/><stop offset="1" stop-color="#ffff8e"/></linearGradient><linearGradient id="linear-gradient-134" x1="14.91" y1="11.83" x2="14.91" y2="17.96" gradientUnits="userSpaceOnUse"><stop offset="0" stop-color="#ffee7b"/><stop offset="0.15" stop-color="#ffc757"/><stop offset="0.27" stop-color="#e1a11b"/><stop offset="0.28" stop-color="#e3a622"/><stop offset="0.31" stop-color="#edc044"/><stop offset="0.34" stop-color="#f4d35f"/><stop offset="0.37" stop-color="#fae272"/><stop offset="0.41" stop-color="#fdea7d"/><stop offset="0.44" stop-color="#feed81"/><stop offset="0.47" stop-color="#f8e37b"/><stop offset="0.51" stop-color="#e8c76b"/><stop offset="0.57" stop-color="#ce9b51"/><stop offset="0.63" stop-color="#ab5e2d"/><stop offset="0.65" stop-color="#a24f24"/><stop offset="0.76" stop-color="#e0b439"/><stop offset="0.86" stop-color="#f1c848"/><stop offset="1" stop-color="#ffff8e"/></linearGradient><radialGradient id="radial-gradient-9" cx="97.94" cy="44.15" r="36.03" gradientTransform="translate(-33.9 -1.54) scale(0.5)" gradientUnits="userSpaceOnUse"><stop offset="0" stop-color="#ececbb"/><stop offset="1" stop-color="#784f58"/></radialGradient></defs><g class="cls-5"><g id="Layer_2" data-name="Layer 2"><g id="Layer_1-2" data-name="Layer 1"><polygon class="cls-6" points="7.89 21.91 7.89 41.07 14.91 36.51 21.92 41.07 21.92 21.91 7.89 21.91"/><polygon class="cls-7" points="18.96 21.91 14.85 21.91 14.83 21.91 13.96 21.91 13.75 21.91 10.85 21.91 10.85 39.15 14.91 36.51 18.96 39.15 18.96 21.91"/><path class="cls-8" d="M21.92,22.87h-14v8.05h0A12.33,12.33,0,0,0,9.41,29a3.32,3.32,0,0,0,0,1.47,1.61,1.61,0,0,0,.12.33l.12.22,0,.09.19.26v0l.23.25h0a4.39,4.39,0,0,0,1.25.85.82.82,0,0,0,.88,0,11.6,11.6,0,0,0,.85-2.27l0,.18c0,.11,0,.21.06.32a3,3,0,0,0,.4.89,1.51,1.51,0,0,0,.22.28,1.45,1.45,0,0,0,.17.18l.07.06.26.2h0a2.82,2.82,0,0,0,.29.18h0a4.62,4.62,0,0,0,1.46.42.81.81,0,0,0,.82-.3,11.91,11.91,0,0,0,.12-2.42,2.42,2.42,0,0,0,.24.45,2.78,2.78,0,0,0,.64.73l.3.2.22.11.09,0a1.6,1.6,0,0,0,.31.1h0a4.27,4.27,0,0,0,1.85,0,.84.84,0,0,0,.69-.54A11.39,11.39,0,0,0,20.76,29a3.36,3.36,0,0,0,1.16.82Z"/><path class="cls-9" d="M5.2,13.41a6,6,0,0,0-1.35-.28,3.81,3.81,0,0,0-2.52.49A3.38,3.38,0,0,0,0,16.11a.81.81,0,0,0,.3.82,27.23,27.23,0,0,0,3.92.1h.55Z"/><path class="cls-10" d="M1.33,13.62a2.6,2.6,0,0,0-.89,1A8.84,8.84,0,0,1,5,15c.09-.81.18-1.55.18-1.55a6,6,0,0,0-1.35-.28A3.81,3.81,0,0,0,1.33,13.62Z"/><path class="cls-11" d="M6.19,10.44c0-.09-1.11-.65-1.19-.69a3.88,3.88,0,0,0-2.55-.31,3.4,3.4,0,0,0-2,2,.82.82,0,0,0,0,.88,27.1,27.1,0,0,0,3.7,1.3s.51.18.52.17Z"/><path class="cls-12" d="M2.45,9.44a2.76,2.76,0,0,0-1.17.71,8.81,8.81,0,0,1,4.26,1.71l.65-1.42c0-.09-1.11-.65-1.19-.69A3.88,3.88,0,0,0,2.45,9.44Z"/><path class="cls-13" d="M8.06,7.92c.07-.07-.86-1-.92-1A3.86,3.86,0,0,0,4.81,5.82,3.39,3.39,0,0,0,2.28,7.05.84.84,0,0,0,2,7.9a27.27,27.27,0,0,0,3.11,2.38l.44.32Z"/><path class="cls-14" d="M4.81,5.82a2.64,2.64,0,0,0-1.33.31A8.84,8.84,0,0,1,7,9.07L8.06,7.92c.07-.07-.86-1-.92-1A3.86,3.86,0,0,0,4.81,5.82Z"/><path class="cls-15" d="M19.53,24a6,6,0,0,0,.57,1.26A3.88,3.88,0,0,0,22,27.05a3.44,3.44,0,0,0,2.79-.4.85.85,0,0,0,.5-.73A28.35,28.35,0,0,0,23,22.69s-.31-.44-.32-.44Z"/><path class="cls-16" d="M22,27.05a2.78,2.78,0,0,0,1.37.11,8.8,8.8,0,0,1-2.45-3.89L19.53,24a6,6,0,0,0,.57,1.26A3.88,3.88,0,0,0,22,27.05Z"/><path class="cls-17" d="M10.62,6.1a6.51,6.51,0,0,0-.57-1.25A3.85,3.85,0,0,0,8.17,3.1a3.41,3.41,0,0,0-2.79.39.82.82,0,0,0-.49.73A27.5,27.5,0,0,0,7.12,7.45s.31.45.32.44Z"/><path class="cls-18" d="M8.17,3.1A2.63,2.63,0,0,0,6.81,3,8.84,8.84,0,0,1,9.25,6.87l1.37-.77a6.51,6.51,0,0,0-.57-1.25A3.85,3.85,0,0,0,8.17,3.1Z"/><path class="cls-19" d="M16.54,25a6.17,6.17,0,0,0,.15,1.37,3.86,3.86,0,0,0,1.24,2.24,3.41,3.41,0,0,0,2.78.49.84.84,0,0,0,.69-.54,26.91,26.91,0,0,0-1.12-3.76s-.16-.52-.17-.52Z"/><path class="cls-20" d="M17.93,28.59a2.64,2.64,0,0,0,1.27.53,8.64,8.64,0,0,1-1.12-4.45L16.54,25a6.17,6.17,0,0,0,.15,1.37A3.86,3.86,0,0,0,17.93,28.59Z"/><path class="cls-21" d="M13.61,5.16a6.19,6.19,0,0,0-.16-1.36,3.83,3.83,0,0,0-1.24-2.25,3.38,3.38,0,0,0-2.77-.48.8.8,0,0,0-.7.54A27.73,27.73,0,0,0,9.86,5.37s.16.52.17.51Z"/><path class="cls-22" d="M12.21,1.55A2.71,2.71,0,0,0,11,1a8.87,8.87,0,0,1,1.12,4.45l1.54-.31a6.19,6.19,0,0,0-.16-1.36A3.83,3.83,0,0,0,12.21,1.55Z"/><path class="cls-23" d="M13.41,25a5.85,5.85,0,0,0-.28,1.35,3.82,3.82,0,0,0,.49,2.52,3.42,3.42,0,0,0,2.49,1.32.83.83,0,0,0,.82-.3,27.33,27.33,0,0,0,.1-3.93s0-.54,0-.54Z"/><path class="cls-24" d="M13.62,28.82a2.68,2.68,0,0,0,1,.89A8.84,8.84,0,0,1,15,25.13L13.41,25a5.85,5.85,0,0,0-.28,1.35A3.82,3.82,0,0,0,13.62,28.82Z"/><path class="cls-25" d="M16.74,5.2A6.57,6.57,0,0,0,17,3.85a3.87,3.87,0,0,0-.49-2.52A3.38,3.38,0,0,0,14,0a.82.82,0,0,0-.83.3,27.34,27.34,0,0,0-.09,3.92s0,.54,0,.55Z"/><path class="cls-26" d="M16.53,1.33a2.63,2.63,0,0,0-1-.89A8.74,8.74,0,0,1,15.18,5l1.56.18A6.57,6.57,0,0,0,17,3.85,3.87,3.87,0,0,0,16.53,1.33Z"/><path class="cls-27" d="M10.44,24a6.2,6.2,0,0,0-.69,1.2,3.85,3.85,0,0,0-.31,2.54,3.44,3.44,0,0,0,2,2,.84.84,0,0,0,.88,0,28.1,28.1,0,0,0,1.3-3.7s.18-.52.17-.52Z"/><path class="cls-28" d="M9.44,27.69a2.7,2.7,0,0,0,.71,1.17,8.85,8.85,0,0,1,1.71-4.26L10.44,24a6.2,6.2,0,0,0-.69,1.2A3.85,3.85,0,0,0,9.44,27.69Z"/><path class="cls-29" d="M19.71,6.19A5.62,5.62,0,0,0,20.39,5a3.89,3.89,0,0,0,.32-2.55,3.4,3.4,0,0,0-2-2,.82.82,0,0,0-.88,0,25.76,25.76,0,0,0-1.31,3.7s-.17.51-.16.52Z"/><path class="cls-30" d="M20.71,2.45A2.76,2.76,0,0,0,20,1.28a8.81,8.81,0,0,1-1.71,4.26l1.42.65A5.62,5.62,0,0,0,20.39,5,3.89,3.89,0,0,0,20.71,2.45Z"/><path class="cls-31" d="M7.92,22.08C7.85,22,7,23,6.9,23a3.81,3.81,0,0,0-1.08,2.32,3.43,3.43,0,0,0,1.23,2.54.84.84,0,0,0,.85.24A26.59,26.59,0,0,0,10.28,25a5.36,5.36,0,0,0,.32-.44Z"/><path class="cls-32" d="M5.82,25.33a2.67,2.67,0,0,0,.31,1.34,8.8,8.8,0,0,1,2.94-3.53L7.92,22.08C7.85,22,7,23,6.9,23A3.81,3.81,0,0,0,5.82,25.33Z"/><path class="cls-33" d="M22.23,8.06c.07.07,1-.86,1-.92a3.91,3.91,0,0,0,1.08-2.33,3.4,3.4,0,0,0-1.24-2.53A.82.82,0,0,0,22.25,2a28.46,28.46,0,0,0-2.39,3.11l-.32.44Z"/><path class="cls-34" d="M24.33,4.81A2.74,2.74,0,0,0,24,3.48,8.79,8.79,0,0,1,21.07,7l1.16,1.06c.07.07,1-.86,1-.92A3.91,3.91,0,0,0,24.33,4.81Z"/><path class="cls-35" d="M25,13.61a6.21,6.21,0,0,0,1.37-.16,3.81,3.81,0,0,0,2.24-1.24,3.39,3.39,0,0,0,.49-2.77.84.84,0,0,0-.54-.7,26.91,26.91,0,0,0-3.76,1.12l-.52.17Z"/><path class="cls-36" d="M28.59,12.21A2.61,2.61,0,0,0,29.12,11a8.84,8.84,0,0,1-4.45,1.12L25,13.61a6.21,6.21,0,0,0,1.37-.16A3.81,3.81,0,0,0,28.59,12.21Z"/><path class="cls-37" d="M6.1,19.53a6,6,0,0,0-1.25.57A3.83,3.83,0,0,0,3.1,22a3.39,3.39,0,0,0,.39,2.79.85.85,0,0,0,.73.5A27.5,27.5,0,0,0,7.45,23s.45-.31.44-.32Z"/><path class="cls-38" d="M3.1,22A2.67,2.67,0,0,0,3,23.34a8.86,8.86,0,0,1,3.89-2.45L6.1,19.53a6,6,0,0,0-1.25.57A3.83,3.83,0,0,0,3.1,22Z"/><path class="cls-39" d="M25,16.74A6.43,6.43,0,0,0,26.3,17a3.88,3.88,0,0,0,2.52-.49A3.42,3.42,0,0,0,30.14,14a.84.84,0,0,0-.3-.83,27.44,27.44,0,0,0-3.93-.09h-.54Z"/><path class="cls-40" d="M28.82,16.53a2.71,2.71,0,0,0,.89-1,8.73,8.73,0,0,1-4.58-.31C25,16,25,16.74,25,16.74A6.43,6.43,0,0,0,26.3,17,3.88,3.88,0,0,0,28.82,16.53Z"/><path class="cls-41" d="M24,10.62a6.58,6.58,0,0,0,1.26-.57,3.9,3.9,0,0,0,1.75-1.88,3.45,3.45,0,0,0-.4-2.79.82.82,0,0,0-.73-.49,28.35,28.35,0,0,0-3.23,2.23s-.44.31-.44.32Z"/><path class="cls-42" d="M27.05,8.17a2.74,2.74,0,0,0,.11-1.36,8.78,8.78,0,0,1-3.89,2.44c.41.71.77,1.37.77,1.37a6.58,6.58,0,0,0,1.26-.57A3.9,3.9,0,0,0,27.05,8.17Z"/><path class="cls-43" d="M24,19.71a5.71,5.71,0,0,0,1.2.68,3.86,3.86,0,0,0,2.54.32,3.44,3.44,0,0,0,2-2,.84.84,0,0,0,0-.88A26.66,26.66,0,0,0,26,16.56l-.52-.16Z"/><path class="cls-44" d="M27.69,20.71A2.7,2.7,0,0,0,28.86,20a8.85,8.85,0,0,1-4.26-1.71L24,19.71a5.71,5.71,0,0,0,1.2.68A3.86,3.86,0,0,0,27.69,20.71Z"/><path class="cls-45" d="M5.16,16.54a6.15,6.15,0,0,0-1.36.15,3.88,3.88,0,0,0-2.25,1.24,3.41,3.41,0,0,0-.48,2.78.8.8,0,0,0,.54.69,27.73,27.73,0,0,0,3.76-1.12s.52-.16.51-.17Z"/><path class="cls-46" d="M1.55,17.93A2.85,2.85,0,0,0,1,19.2a8.67,8.67,0,0,1,4.45-1.12c-.16-.81-.31-1.54-.31-1.54a6.15,6.15,0,0,0-1.36.15A3.88,3.88,0,0,0,1.55,17.93Z"/><path class="cls-47" d="M22.08,22.23c-.06.07.87,1,.93,1a3.86,3.86,0,0,0,2.32,1.08,3.44,3.44,0,0,0,2.54-1.24.82.82,0,0,0,.24-.84A27.71,27.71,0,0,0,25,19.86l-.44-.32Z"/><path class="cls-48" d="M25.33,24.33A2.78,2.78,0,0,0,26.67,24a8.75,8.75,0,0,1-3.53-2.95l-1.06,1.16c-.06.07.87,1,.93,1A3.86,3.86,0,0,0,25.33,24.33Z"/><g class="cls-49"><path class="cls-50" d="M27,12.13A12.6,12.6,0,0,0,16.4,2.85,12.48,12.48,0,0,0,6.8,24.74,12.49,12.49,0,0,0,27,12.13C26.9,11.73,27.26,13.12,27,12.13Z"/><path class="cls-51" d="M27,12.13A12.58,12.58,0,0,0,16.4,2.85,12.49,12.49,0,0,0,6.8,24.74,12.48,12.48,0,0,0,27,12.13C26.89,11.73,27.25,13.12,27,12.13Z"/><path class="cls-52" d="M27,12.13a12.59,12.59,0,0,0-10.6-9.27A12.6,12.6,0,0,0,3.74,9.68a12.48,12.48,0,0,0,18.08,16A12.6,12.6,0,0,0,27,12.13Z"/><path class="cls-53" d="M27,12.13A12.47,12.47,0,0,0,3.75,9.69a12.59,12.59,0,0,0,3.06,15A12.47,12.47,0,0,0,27,12.13C26.88,11.73,27.24,13.13,27,12.13Z"/><path class="cls-54" d="M27,12.13A12.59,12.59,0,0,0,16.39,2.87,12.59,12.59,0,0,0,3.75,9.69,12.46,12.46,0,0,0,21.81,25.62,12.6,12.6,0,0,0,27,12.13C26.87,11.73,27.23,13.13,27,12.13Z"/><path class="cls-55" d="M27,12.13A12.57,12.57,0,0,0,16.39,2.88,12.59,12.59,0,0,0,3.76,9.69a12.45,12.45,0,0,0,18,15.92A12.57,12.57,0,0,0,27,12.13Z"/><path class="cls-56" d="M27,12.14A12.45,12.45,0,0,0,3.76,9.7a12.45,12.45,0,0,0,18,15.91A12.55,12.55,0,0,0,27,12.14C26.86,11.74,27.22,13.13,27,12.14Z"/><path class="cls-57" d="M27,12.14A12.57,12.57,0,0,0,16.39,2.89,12.57,12.57,0,0,0,3.77,9.7a12.44,12.44,0,0,0,18,15.9A12.56,12.56,0,0,0,27,12.14C26.85,11.74,27.21,13.13,27,12.14Z"/><path class="cls-58" d="M27,12.14A12.43,12.43,0,0,0,3.78,9.7a12.43,12.43,0,0,0,18,15.89A12.54,12.54,0,0,0,27,12.14C26.85,11.74,27.21,13.13,27,12.14Z"/><path class="cls-59" d="M26.94,12.14A12.43,12.43,0,0,0,3.78,9.7a12.56,12.56,0,0,0,3.06,15,12.43,12.43,0,0,0,20.1-12.56C26.84,11.74,27.2,13.13,26.94,12.14Z"/><path class="cls-60" d="M26.94,12.14A12.54,12.54,0,0,0,16.39,2.91,12.42,12.42,0,0,0,6.84,24.69a12.43,12.43,0,0,0,20.1-12.55C26.83,11.75,27.19,13.13,26.94,12.14Z"/><path class="cls-61" d="M26.93,12.14A12.53,12.53,0,0,0,16.39,2.92,12.55,12.55,0,0,0,3.79,9.71a12.42,12.42,0,0,0,18,15.87,12.52,12.52,0,0,0,5.14-13.44Z"/><path class="cls-62" d="M26.92,12.15A12.41,12.41,0,0,0,3.8,9.71a12.41,12.41,0,0,0,18,15.86,12.5,12.5,0,0,0,5.14-13.42C26.82,11.75,27.18,13.14,26.92,12.15Z"/><path class="cls-63" d="M26.92,12.15A12.51,12.51,0,0,0,16.39,2.93,12.4,12.4,0,0,0,6.86,24.68a12.5,12.5,0,0,0,14.92.89,12.53,12.53,0,0,0,5.14-13.42Z"/><path class="cls-64" d="M26.91,12.15A12.4,12.4,0,0,0,3.81,9.72a12.4,12.4,0,0,0,18,15.84,12.51,12.51,0,0,0,5.13-13.41C26.81,11.75,27.17,13.14,26.91,12.15Z"/><path class="cls-65" d="M26.91,12.15A12.4,12.4,0,0,0,3.82,9.72a12.52,12.52,0,0,0,3,15A12.4,12.4,0,0,0,26.91,12.15C26.8,11.75,27.16,13.14,26.91,12.15Z"/><path class="cls-66" d="M26.9,12.15A12.51,12.51,0,0,0,16.38,3,12.5,12.5,0,0,0,3.82,9.72a12.39,12.39,0,0,0,18,15.83,12.49,12.49,0,0,0,5.13-13.4Z"/><path class="cls-67" d="M26.89,12.15A12.38,12.38,0,0,0,3.83,9.73,12.37,12.37,0,0,0,21.76,25.55a12.5,12.5,0,0,0,5.13-13.4Z"/><path class="cls-68" d="M26.89,12.16A12.51,12.51,0,0,0,16.38,3,12.51,12.51,0,0,0,3.83,9.73,12.37,12.37,0,0,0,21.76,25.54a12.47,12.47,0,0,0,5.13-13.38C26.78,11.76,27.14,13.14,26.89,12.16Z"/><path class="cls-69" d="M26.88,12.16A12.47,12.47,0,0,0,16.38,3a12.36,12.36,0,0,0-9.5,21.68,12.37,12.37,0,0,0,20-12.49Z"/><path class="cls-70" d="M26.87,12.16a12.35,12.35,0,0,0-23-2.42,12.35,12.35,0,0,0,17.9,15.79,12.47,12.47,0,0,0,5.12-13.37C26.77,11.76,27.13,13.15,26.87,12.16Z"/><path class="cls-71" d="M26.87,12.16A12.49,12.49,0,0,0,16.38,3,12.47,12.47,0,0,0,3.85,9.74a12.35,12.35,0,0,0,17.9,15.78,12.45,12.45,0,0,0,5.12-13.36Z"/><path class="cls-72" d="M26.86,12.16a12.34,12.34,0,0,0-23-2.42A12.34,12.34,0,0,0,21.75,25.52a12.46,12.46,0,0,0,5.11-13.36Z"/><path class="cls-73" d="M26.85,12.16a12.34,12.34,0,0,0-23-2.42,12.47,12.47,0,0,0,3,14.89,12.34,12.34,0,0,0,20-12.47Z"/><path class="cls-74" d="M26.85,12.16A12.45,12.45,0,0,0,16.38,3,12.46,12.46,0,0,0,3.87,9.75,12.33,12.33,0,0,0,21.74,25.51a12.46,12.46,0,0,0,5.11-13.35Z"/><path class="cls-75" d="M26.84,12.17a12.32,12.32,0,0,0-23-2.42A12.32,12.32,0,0,0,21.74,25.5a12.43,12.43,0,0,0,5.1-13.33C26.74,11.77,27.1,13.15,26.84,12.17Z"/><path class="cls-76" d="M26.84,12.17a12.33,12.33,0,0,0-23-2.42A12.32,12.32,0,0,0,21.73,25.5a12.43,12.43,0,0,0,5.11-13.33C26.73,11.77,27.09,13.15,26.84,12.17Z"/><path class="cls-77" d="M26.83,12.17A12.42,12.42,0,0,0,16.38,3,12.31,12.31,0,0,0,6.92,24.61,12.31,12.31,0,0,0,26.83,12.17Z"/><path class="cls-78" d="M26.82,12.17A12.31,12.31,0,0,0,3.89,9.76,12.31,12.31,0,0,0,21.72,25.49a12.4,12.4,0,0,0,5.1-13.32C26.72,11.78,27.08,13.15,26.82,12.17Z"/><path class="cls-79" d="M26.82,12.17A12.31,12.31,0,0,0,3.9,9.76a12.43,12.43,0,0,0,3,14.84,12.31,12.31,0,0,0,19.9-12.43Z"/><path class="cls-80" d="M26.81,12.17A12.41,12.41,0,0,0,16.37,3,12.43,12.43,0,0,0,3.9,9.77a12.29,12.29,0,0,0,17.82,15.7,12.41,12.41,0,0,0,5.09-13.3Z"/><path class="cls-81" d="M26.8,12.18A12.28,12.28,0,0,0,3.91,9.77a12.28,12.28,0,0,0,17.8,15.7A12.39,12.39,0,0,0,26.8,12.18C26.7,11.78,27.06,13.16,26.8,12.18Z"/><path class="cls-82" d="M26.8,12.18A12.28,12.28,0,0,0,3.92,9.77,12.27,12.27,0,0,0,21.71,25.46,12.39,12.39,0,0,0,26.8,12.18Z"/><path class="cls-83" d="M26.79,12.18A12.38,12.38,0,0,0,16.37,3.06,12.41,12.41,0,0,0,3.92,9.77a12.4,12.4,0,0,0,3,14.81,12.27,12.27,0,0,0,19.85-12.4Z"/><path class="cls-84" d="M26.79,12.18A12.27,12.27,0,0,0,3.93,9.78,12.26,12.26,0,0,0,21.7,25.45a12.39,12.39,0,0,0,5.09-13.27C26.68,11.79,27,13.16,26.79,12.18Z"/><path class="cls-85" d="M26.78,12.18A12.27,12.27,0,0,0,3.93,9.78,12.39,12.39,0,0,0,7,24.57,12.26,12.26,0,0,0,26.78,12.18Z"/><path class="cls-86" d="M26.77,12.18a12.36,12.36,0,0,0-10.4-9.1A12.38,12.38,0,0,0,3.94,9.78,12.25,12.25,0,0,0,21.7,25.44a12.36,12.36,0,0,0,5.07-13.26Z"/><path class="cls-87" d="M26.77,12.19a12.37,12.37,0,0,0-10.4-9.1A12.25,12.25,0,0,0,7,24.56a12.35,12.35,0,0,0,14.73.88,12.37,12.37,0,0,0,5.08-13.25C26.67,11.79,27,13.16,26.77,12.19Z"/><path class="cls-88" d="M26.76,12.19a12.35,12.35,0,0,0-10.39-9.1A12.36,12.36,0,0,0,4,9.79,12.24,12.24,0,0,0,21.69,25.43a12.33,12.33,0,0,0,5.07-13.24Z"/><path class="cls-89" d="M26.75,12.19A12.33,12.33,0,0,0,16.37,3.1,12.36,12.36,0,0,0,4,9.79,12.23,12.23,0,0,0,21.68,25.43a12.34,12.34,0,0,0,5.07-13.24Z"/><path class="cls-90" d="M26.75,12.19A12.24,12.24,0,0,0,4,9.79,12.36,12.36,0,0,0,7,24.54,12.23,12.23,0,0,0,26.75,12.19Z"/><path class="cls-91" d="M26.74,12.19A12.33,12.33,0,0,0,16.36,3.11,12.22,12.22,0,0,0,7,24.54,12.22,12.22,0,0,0,26.74,12.19Z"/><path class="cls-92" d="M26.73,12.19A12.33,12.33,0,0,0,16.36,3.12,12.21,12.21,0,0,0,7,24.53,12.21,12.21,0,0,0,26.73,12.19C26.63,11.8,27,13.17,26.73,12.19Z"/><path class="cls-93" d="M26.73,12.2A12.21,12.21,0,0,0,4,9.8,12.34,12.34,0,0,0,7,24.53,12.21,12.21,0,0,0,26.73,12.2Z"/><path class="cls-94" d="M26.72,12.2A12.32,12.32,0,0,0,16.36,3.13,12.2,12.2,0,0,0,7,24.52,12.2,12.2,0,0,0,26.72,12.2Z"/><path class="cls-95" d="M26.72,12.2A12.31,12.31,0,0,0,16.36,3.14,12.32,12.32,0,0,0,4,9.81,12.19,12.19,0,0,0,21.66,25.39,12.29,12.29,0,0,0,26.72,12.2Z"/><path class="cls-96" d="M26.71,12.2A12.19,12.19,0,0,0,4,9.81,12.19,12.19,0,0,0,21.66,25.39,12.3,12.3,0,0,0,26.71,12.2Z"/><path class="cls-97" d="M26.7,12.2a12.29,12.29,0,0,0-10.34-9A12.31,12.31,0,0,0,4,9.81a12.31,12.31,0,0,0,3,14.7A12.18,12.18,0,0,0,26.7,12.2Z"/><path class="cls-98" d="M26.7,12.2A12.18,12.18,0,0,0,4,9.82,12.17,12.17,0,0,0,21.65,25.38,12.29,12.29,0,0,0,26.7,12.2C26.6,11.82,27,13.18,26.7,12.2Z"/><path class="cls-99" d="M26.69,12.21A12.17,12.17,0,0,0,4,9.82,12.16,12.16,0,0,0,21.65,25.37a12.27,12.27,0,0,0,5-13.16Z"/><path class="cls-100" d="M26.68,12.21a12.27,12.27,0,0,0-10.32-9A12.3,12.3,0,0,0,4,9.82,12.16,12.16,0,0,0,21.64,25.37a12.26,12.26,0,0,0,5-13.16Z"/><path class="cls-101" d="M26.68,12.21A12.16,12.16,0,0,0,4,9.83,12.15,12.15,0,0,0,21.64,25.36a12.27,12.27,0,0,0,5-13.15Z"/><path class="cls-102" d="M26.67,12.21A12.15,12.15,0,0,0,4,9.83,12.15,12.15,0,0,0,21.64,25.35a12.25,12.25,0,0,0,5-13.14Z"/><path class="cls-103" d="M26.66,12.21a12.25,12.25,0,0,0-10.3-9A12.14,12.14,0,0,0,7,24.48,12.14,12.14,0,0,0,26.66,12.21C26.57,11.82,26.91,13.18,26.66,12.21Z"/><path class="cls-104" d="M26.66,12.21A12.14,12.14,0,0,0,4.05,9.83,12.13,12.13,0,0,0,21.63,25.34a12.25,12.25,0,0,0,5-13.13Z"/><path class="cls-105" d="M26.65,12.22A12.13,12.13,0,0,0,4.05,9.84a12.13,12.13,0,0,0,17.58,15.5,12.22,12.22,0,0,0,5-13.12Z"/><path class="cls-106" d="M26.65,12.22a12.24,12.24,0,0,0-10.3-9A12.12,12.12,0,0,0,7,24.46,12.12,12.12,0,0,0,26.65,12.22C26.55,11.83,26.89,13.19,26.65,12.22Z"/><path class="cls-107" d="M26.64,12.22A12.12,12.12,0,0,0,4.06,9.84,12.25,12.25,0,0,0,7,24.46a12.12,12.12,0,0,0,19.6-12.24Z"/><path class="cls-108" d="M26.63,12.22a12.22,12.22,0,0,0-10.28-9,12.11,12.11,0,0,0-9.3,21.23A12.1,12.1,0,0,0,26.63,12.22Z"/><path class="cls-109" d="M26.63,12.22A12.11,12.11,0,0,0,4.07,9.85,12.1,12.1,0,0,0,21.61,25.32a12.23,12.23,0,0,0,5-13.1Z"/><path class="cls-110" d="M26.62,12.22A12.1,12.1,0,0,0,4.08,9.85,12.1,12.1,0,0,0,21.61,25.31a12.2,12.2,0,0,0,5-13.09Z"/><path class="cls-111" d="M26.61,12.23a12.18,12.18,0,0,0-10.26-9A12.22,12.22,0,0,0,4.09,9.86,12.08,12.08,0,0,0,21.6,25.31a12.2,12.2,0,0,0,5-13.08Z"/><path class="cls-112" d="M26.61,12.23A12.09,12.09,0,0,0,4.09,9.86,12.08,12.08,0,0,0,21.6,25.3a12.18,12.18,0,0,0,5-13.07Z"/><path class="cls-113" d="M26.6,12.23A12.08,12.08,0,0,0,4.1,9.86,12.07,12.07,0,0,0,21.6,25.29a12.17,12.17,0,0,0,5-13.06Z"/><path class="cls-114" d="M26.6,12.23a12.18,12.18,0,0,0-10.25-9A12.2,12.2,0,0,0,4.1,9.86,12.07,12.07,0,0,0,21.59,25.29a12.19,12.19,0,0,0,5-13.06C26.5,11.84,26.84,13.19,26.6,12.23Z"/><path class="cls-115" d="M26.59,12.23a12.17,12.17,0,0,0-10.24-9A12.06,12.06,0,0,0,7.08,24.42,12.07,12.07,0,0,0,26.59,12.23Z"/><path class="cls-116" d="M26.58,12.23A12.06,12.06,0,0,0,4.12,9.87,12.06,12.06,0,0,0,21.59,25.28a12.17,12.17,0,0,0,5-13Z"/><path class="cls-117" d="M26.58,12.23a12.16,12.16,0,0,0-10.24-9A12.18,12.18,0,0,0,4.12,9.87a12,12,0,0,0,17.46,15.4,12.15,12.15,0,0,0,5-13C26.48,11.85,26.82,13.2,26.58,12.23Z"/><path class="cls-118" d="M26.57,12.24A12,12,0,0,0,4.13,9.88,12,12,0,0,0,21.58,25.27a12.15,12.15,0,0,0,5-13Z"/><path class="cls-119" d="M26.56,12.24A12,12,0,0,0,4.13,9.88,12,12,0,0,0,21.58,25.26a12.14,12.14,0,0,0,5-13Z"/><path class="cls-120" d="M26.56,12.24A12,12,0,0,0,4.14,9.88,12,12,0,0,0,21.57,25.26a12.15,12.15,0,0,0,5-13C26.46,11.86,26.8,13.2,26.56,12.24Z"/><path class="cls-121" d="M26.55,12.24A12.13,12.13,0,0,0,16.34,3.31,12,12,0,0,0,7.1,24.39,12,12,0,0,0,26.55,12.24Z"/><path class="cls-122" d="M26.54,12.24A12,12,0,0,0,4.15,9.89,12,12,0,0,0,21.57,25.25a12.12,12.12,0,0,0,5-13C26.45,11.86,26.79,13.2,26.54,12.24Z"/><path class="cls-123" d="M26.54,12.24a12.13,12.13,0,0,0-10.2-8.92A12,12,0,0,0,7.11,24.38,12,12,0,0,0,26.54,12.24C26.44,11.86,26.78,13.2,26.54,12.24Z"/><path class="cls-124" d="M26.53,12.25A12,12,0,0,0,4.16,9.89a12,12,0,0,0,17.4,15.34,12.1,12.1,0,0,0,5-13Z"/><path class="cls-125" d="M26.53,12.25A12.12,12.12,0,0,0,16.34,3.33a12,12,0,0,0-9.22,21A12,12,0,0,0,26.53,12.25C26.43,11.86,26.77,13.21,26.53,12.25Z"/><path class="cls-126" d="M26.52,12.25A12.11,12.11,0,0,0,16.34,3.34,12.13,12.13,0,0,0,4.17,9.9,12,12,0,0,0,21.55,25.22a12.09,12.09,0,0,0,5-13Z"/><path class="cls-127" d="M26.51,12.25A12,12,0,0,0,4.18,9.9,12,12,0,0,0,21.55,25.22a12.08,12.08,0,0,0,5-13Z"/><path class="cls-128" d="M26.51,12.25a12.1,12.1,0,0,0-10.17-8.9A12.1,12.1,0,0,0,4.19,9.9,12,12,0,0,0,21.54,25.21a12.1,12.1,0,0,0,5-13C26.41,11.87,26.75,13.21,26.51,12.25Z"/><path class="cls-129" d="M26.5,12.25A12.09,12.09,0,0,0,16.33,3.36a12,12,0,0,0-9.19,21A12,12,0,0,0,26.5,12.25Z"/><path class="cls-130" d="M26.49,12.26A12,12,0,0,0,4.2,9.91,12,12,0,0,0,21.54,25.2a12.06,12.06,0,0,0,4.95-12.94C26.4,11.87,26.74,13.21,26.49,12.26Z"/><path class="cls-131" d="M26.49,12.26A12.08,12.08,0,0,0,16.33,3.37,12.08,12.08,0,0,0,4.2,9.91,12,12,0,0,0,21.53,25.2a12.08,12.08,0,0,0,5-12.94C26.39,11.88,26.73,13.21,26.49,12.26Z"/><path class="cls-132" d="M26.48,12.26A12,12,0,0,0,4.21,9.92,11.95,11.95,0,0,0,21.53,25.19a12,12,0,0,0,4.95-12.93Z"/><path class="cls-133" d="M26.47,12.26A11.94,11.94,0,0,0,4.22,9.92,11.94,11.94,0,0,0,21.53,25.19a12.06,12.06,0,0,0,4.94-12.93C26.38,11.88,26.72,13.22,26.47,12.26Z"/><path class="cls-134" d="M26.47,12.26A11.94,11.94,0,0,0,4.22,9.92a11.94,11.94,0,0,0,17.3,15.26,12,12,0,0,0,4.95-12.92C26.37,11.88,26.71,13.22,26.47,12.26Z"/><path class="cls-135" d="M26.46,12.26A11.93,11.93,0,0,0,4.23,9.93,11.92,11.92,0,0,0,21.52,25.17a12,12,0,0,0,4.94-12.91Z"/><path class="cls-136" d="M26.46,12.27A11.93,11.93,0,0,0,4.23,9.93,11.93,11.93,0,0,0,21.51,25.17a12,12,0,0,0,4.95-12.9Z"/><path class="cls-137" d="M26.45,12.27A12,12,0,0,0,16.33,3.41,12,12,0,0,0,4.24,9.93,11.91,11.91,0,0,0,21.51,25.16a12,12,0,0,0,4.94-12.89C26.35,11.89,26.69,13.22,26.45,12.27Z"/><path class="cls-138" d="M26.44,12.27A11.92,11.92,0,0,0,4.24,9.93,11.92,11.92,0,0,0,21.51,25.16a12,12,0,0,0,4.93-12.89C26.35,11.89,26.69,13.22,26.44,12.27Z"/><path class="cls-139" d="M26.44,12.27A11.91,11.91,0,0,0,4.25,9.94,11.9,11.9,0,0,0,21.5,25.15a12,12,0,0,0,4.94-12.88C26.34,11.89,26.68,13.22,26.44,12.27Z"/><path class="cls-140" d="M26.43,12.27A11.9,11.9,0,0,0,4.26,9.94,11.9,11.9,0,0,0,21.5,25.15a12,12,0,0,0,4.93-12.88Z"/><path class="cls-141" d="M26.42,12.27A11.89,11.89,0,0,0,4.26,9.94,11.89,11.89,0,0,0,21.5,25.14a12,12,0,0,0,4.92-12.87C26.33,11.89,26.67,13.22,26.42,12.27Z"/><path class="cls-142" d="M26.42,12.28A11.89,11.89,0,0,0,4.27,10,11.88,11.88,0,0,0,21.49,25.14a12,12,0,0,0,4.93-12.86C26.32,11.9,26.66,13.22,26.42,12.28Z"/><path class="cls-143" d="M26.41,12.28A11.88,11.88,0,0,0,4.27,10,11.88,11.88,0,0,0,21.49,25.13a12,12,0,0,0,4.92-12.85Z"/><path class="cls-144" d="M26.41,12.28A11.88,11.88,0,0,0,4.28,10,11.88,11.88,0,0,0,21.49,25.13a12,12,0,0,0,4.92-12.85C26.31,11.9,26.65,13.23,26.41,12.28Z"/><path class="cls-145" d="M26.4,12.28A12,12,0,0,0,16.32,3.46,12,12,0,0,0,4.29,10,11.86,11.86,0,0,0,21.48,25.12,12,12,0,0,0,26.4,12.28C26.3,11.9,26.64,13.23,26.4,12.28Z"/><path class="cls-146" d="M26.39,12.28A11.86,11.86,0,0,0,4.29,10,11.86,11.86,0,0,0,21.48,25.11a12,12,0,0,0,4.91-12.83C26.3,11.9,26.64,13.23,26.39,12.28Z"/><path class="cls-147" d="M26.39,12.28A11.86,11.86,0,0,0,4.3,10,11.85,11.85,0,0,0,21.47,25.11a12,12,0,0,0,4.92-12.83C26.29,11.91,26.63,13.23,26.39,12.28Z"/><path class="cls-148" d="M26.38,12.29A12,12,0,0,0,16.32,3.48,12,12,0,0,0,4.3,10,11.85,11.85,0,0,0,21.47,25.1a12,12,0,0,0,4.91-12.81C26.28,11.91,26.62,13.23,26.38,12.29Z"/><path class="cls-149" d="M26.37,12.29A11.84,11.84,0,0,0,4.31,10,11.84,11.84,0,0,0,21.47,25.1a11.93,11.93,0,0,0,4.9-12.81C26.28,11.91,26.62,13.23,26.37,12.29Z"/><path class="cls-150" d="M26.37,12.29A11.83,11.83,0,0,0,4.32,10,11.83,11.83,0,0,0,21.46,25.09a11.93,11.93,0,0,0,4.91-12.8C26.27,11.91,26.61,13.23,26.37,12.29Z"/><path class="cls-151" d="M26.36,12.29a11.94,11.94,0,0,0-10-8.79A11.83,11.83,0,0,0,7.23,24.24,11.83,11.83,0,0,0,26.36,12.29C26.26,11.91,26.6,13.23,26.36,12.29Z"/><path class="cls-152" d="M26.35,12.29a11.92,11.92,0,0,0-10-8.78A12,12,0,0,0,4.33,10,11.82,11.82,0,0,0,21.46,25.08a11.91,11.91,0,0,0,4.89-12.79C26.26,11.91,26.6,13.24,26.35,12.29Z"/><path class="cls-153" d="M26.35,12.29A11.82,11.82,0,0,0,4.33,10a11.81,11.81,0,0,0,17.12,15.1,11.93,11.93,0,0,0,4.9-12.79C26.25,11.92,26.59,13.24,26.35,12.29Z"/><path class="cls-154" d="M26.34,12.3a11.92,11.92,0,0,0-10-8.78A11.93,11.93,0,0,0,4.34,10,11.81,11.81,0,0,0,21.45,25.07,11.9,11.9,0,0,0,26.34,12.3C26.24,11.92,26.58,13.24,26.34,12.3Z"/><path class="cls-155" d="M26.34,12.3A11.81,11.81,0,0,0,4.34,10,11.81,11.81,0,0,0,21.45,25.07,11.92,11.92,0,0,0,26.34,12.3C26.24,11.92,26.58,13.24,26.34,12.3Z"/><path class="cls-156" d="M26.33,12.3A11.8,11.8,0,0,0,4.35,10,11.79,11.79,0,0,0,21.44,25.06,11.9,11.9,0,0,0,26.33,12.3C26.23,11.92,26.57,13.24,26.33,12.3Z"/><path class="cls-157" d="M26.32,12.3A11.78,11.78,0,0,0,4.36,10,11.78,11.78,0,0,0,21.44,25.05,11.88,11.88,0,0,0,26.32,12.3C26.23,11.92,26.57,13.24,26.32,12.3Z"/><path class="cls-158" d="M26.32,12.3A11.79,11.79,0,0,0,4.36,10,11.78,11.78,0,0,0,21.43,25.05,11.91,11.91,0,0,0,26.32,12.3C26.22,11.93,26.56,13.24,26.32,12.3Z"/><path class="cls-159" d="M26.31,12.3A11.78,11.78,0,0,0,4.37,10,11.77,11.77,0,0,0,21.43,25,11.87,11.87,0,0,0,26.31,12.3C26.21,11.93,26.55,13.24,26.31,12.3Z"/><path class="cls-160" d="M26.3,12.3A11.77,11.77,0,0,0,4.37,10,11.77,11.77,0,0,0,21.43,25,11.88,11.88,0,0,0,26.3,12.3C26.21,11.93,26.55,13.24,26.3,12.3Z"/><path class="cls-161" d="M26.3,12.31A11.77,11.77,0,0,0,4.38,10a11.76,11.76,0,0,0,17,15A11.86,11.86,0,0,0,26.3,12.31C26.2,11.93,26.54,13.25,26.3,12.31Z"/><path class="cls-162" d="M26.29,12.31a11.86,11.86,0,0,0-10-8.74,11.75,11.75,0,0,0-9,20.61,11.75,11.75,0,0,0,19-11.87C26.19,11.93,26.53,13.25,26.29,12.31Z"/><path class="cls-163" d="M26.28,12.31a11.85,11.85,0,0,0-10-8.73,11.75,11.75,0,0,0-9,20.6,11.75,11.75,0,0,0,19-11.87C26.19,11.93,26.53,13.25,26.28,12.31Z"/><path class="cls-164" d="M26.28,12.31A11.74,11.74,0,0,0,4.4,10a11.74,11.74,0,0,0,17,15,11.85,11.85,0,0,0,4.87-12.71C26.18,11.94,26.52,13.25,26.28,12.31Z"/><path class="cls-165" d="M26.27,12.31a11.84,11.84,0,0,0-10-8.72A11.88,11.88,0,0,0,4.4,10a11.74,11.74,0,0,0,17,15,11.83,11.83,0,0,0,4.86-12.7C26.18,11.94,26.51,13.25,26.27,12.31Z"/><path class="cls-166" d="M26.27,12.31A11.73,11.73,0,0,0,4.41,10a11.73,11.73,0,0,0,17,15,11.85,11.85,0,0,0,4.86-12.7C26.17,11.94,26.51,13.25,26.27,12.31Z"/><path class="cls-167" d="M26.26,12.32A11.73,11.73,0,0,0,4.41,10a11.72,11.72,0,0,0,17,15,11.82,11.82,0,0,0,4.86-12.68Z"/><path class="cls-168" d="M26.25,12.32A11.83,11.83,0,0,0,16.3,3.61,11.84,11.84,0,0,0,4.42,10a11.71,11.71,0,0,0,17,15,11.81,11.81,0,0,0,4.85-12.67C26.16,11.94,26.49,13.25,26.25,12.32Z"/><path class="cls-169" d="M26.25,12.32A11.71,11.71,0,0,0,4.43,10a11.71,11.71,0,0,0,17,15,11.81,11.81,0,0,0,4.86-12.67C26.15,12,26.49,13.25,26.25,12.32Z"/><path class="cls-170" d="M26.24,12.32A11.71,11.71,0,0,0,4.43,10a11.7,11.7,0,0,0,17,15,11.8,11.8,0,0,0,4.85-12.66C26.14,12,26.48,13.26,26.24,12.32Z"/><path class="cls-171" d="M26.23,12.32A11.8,11.8,0,0,0,16.3,3.63,11.82,11.82,0,0,0,4.44,10a11.69,11.69,0,0,0,17,15,11.8,11.8,0,0,0,4.84-12.66C26.14,12,26.47,13.26,26.23,12.32Z"/><path class="cls-172" d="M26.23,12.32A11.7,11.7,0,0,0,4.44,10,11.69,11.69,0,0,0,21.38,25a11.78,11.78,0,0,0,4.85-12.65C26.13,12,26.47,13.26,26.23,12.32Z"/><path class="cls-173" d="M26.22,12.33A11.68,11.68,0,0,0,4.45,10,11.68,11.68,0,0,0,21.38,25a11.79,11.79,0,0,0,4.84-12.64C26.13,12,26.46,13.26,26.22,12.33Z"/><path class="cls-174" d="M26.22,12.33A11.79,11.79,0,0,0,16.3,3.65a11.67,11.67,0,0,0-9,20.47A11.68,11.68,0,0,0,26.22,12.33Z"/><path class="cls-175" d="M26.21,12.33A11.67,11.67,0,0,0,4.46,10,11.67,11.67,0,0,0,21.37,25a11.77,11.77,0,0,0,4.84-12.63C26.11,12,26.45,13.26,26.21,12.33Z"/><path class="cls-176" d="M26.2,12.33A11.67,11.67,0,0,0,4.47,10,11.66,11.66,0,0,0,21.37,25,11.76,11.76,0,0,0,26.2,12.33C26.11,12,26.44,13.26,26.2,12.33Z"/><path class="cls-177" d="M26.2,12.33a11.77,11.77,0,0,0-9.9-8.66A11.78,11.78,0,0,0,4.47,10.05,11.66,11.66,0,0,0,21.37,25,11.79,11.79,0,0,0,26.2,12.33C26.1,12,26.44,13.26,26.2,12.33Z"/><path class="cls-178" d="M26.19,12.33A11.65,11.65,0,0,0,4.48,10.05,11.65,11.65,0,0,0,21.36,24.94a11.77,11.77,0,0,0,4.83-12.61C26.09,12,26.43,13.26,26.19,12.33Z"/><path class="cls-179" d="M26.18,12.34A11.64,11.64,0,0,0,4.49,10.05,11.64,11.64,0,0,0,21.36,24.93a11.72,11.72,0,0,0,4.82-12.59C26.09,12,26.42,13.27,26.18,12.34Z"/><path class="cls-180" d="M26.18,12.34A11.75,11.75,0,0,0,16.3,3.69,11.76,11.76,0,0,0,4.49,10.06,11.64,11.64,0,0,0,21.36,24.93a11.75,11.75,0,0,0,4.82-12.59C26.08,12,26.42,13.27,26.18,12.34Z"/><path class="cls-181" d="M26.17,12.34A11.63,11.63,0,0,0,4.5,10.06,11.63,11.63,0,0,0,21.35,24.92a11.72,11.72,0,0,0,4.82-12.58C26.08,12,26.41,13.27,26.17,12.34Z"/><path class="cls-182" d="M26.16,12.34A11.74,11.74,0,0,0,16.29,3.7,11.75,11.75,0,0,0,4.5,10.06a11.76,11.76,0,0,0,2.86,14,11.62,11.62,0,0,0,18.8-11.75C26.07,12,26.4,13.27,26.16,12.34Z"/><path class="cls-183" d="M26.16,12.34A11.62,11.62,0,0,0,4.51,10.06,11.61,11.61,0,0,0,21.34,24.91a11.7,11.7,0,0,0,4.82-12.57C26.06,12,26.4,13.27,26.16,12.34Z"/><path class="cls-184" d="M26.15,12.34A11.62,11.62,0,0,0,4.51,10.07,11.61,11.61,0,0,0,21.34,24.91a11.72,11.72,0,0,0,4.81-12.57C26.06,12,26.39,13.27,26.15,12.34Z"/><path class="cls-185" d="M26.15,12.35a11.72,11.72,0,0,0-9.86-8.63A11.61,11.61,0,0,0,7.37,24.07,11.61,11.61,0,0,0,26.15,12.35C26.05,12,26.38,13.27,26.15,12.35Z"/><path class="cls-186" d="M26.14,12.35A11.6,11.6,0,0,0,4.53,10.07,11.6,11.6,0,0,0,21.33,24.9a11.7,11.7,0,0,0,4.81-12.55C26,12,26.38,13.27,26.14,12.35Z"/><path class="cls-187" d="M26.13,12.35a11.59,11.59,0,0,0-21.6-2.27,11.59,11.59,0,0,0,16.8,14.81,11.69,11.69,0,0,0,4.8-12.54C26,12,26.37,13.27,26.13,12.35Z"/><path class="cls-188" d="M26.13,12.35a11.7,11.7,0,0,0-9.84-8.61,11.59,11.59,0,0,0-8.9,20.32A11.59,11.59,0,0,0,26.13,12.35C26,12,26.36,13.28,26.13,12.35Z"/><path class="cls-189" d="M26.12,12.35a11.7,11.7,0,0,0-9.83-8.6A11.7,11.7,0,0,0,4.54,10.08a11.58,11.58,0,0,0,16.78,14.8,11.68,11.68,0,0,0,4.8-12.53C26,12,26.36,13.28,26.12,12.35Z"/><path class="cls-190" d="M26.11,12.35A11.57,11.57,0,0,0,4.55,10.09,11.57,11.57,0,0,0,21.32,24.87a11.67,11.67,0,0,0,4.79-12.52C26,12,26.35,13.28,26.11,12.35Z"/><path class="cls-191" d="M26.11,12.36a11.68,11.68,0,0,0-9.82-8.6A11.57,11.57,0,0,0,7.4,24,11.57,11.57,0,0,0,26.11,12.36C26,12,26.35,13.28,26.11,12.36Z"/><path class="cls-192" d="M26.1,12.36A11.56,11.56,0,0,0,4.56,10.09,11.69,11.69,0,0,0,7.4,24,11.56,11.56,0,0,0,26.1,12.36C26,12,26.34,13.28,26.1,12.36Z"/><path class="cls-193" d="M26.09,12.36A11.55,11.55,0,0,0,4.57,10.09,11.55,11.55,0,0,0,21.31,24.86a11.64,11.64,0,0,0,4.78-12.5C26,12,26.33,13.28,26.09,12.36Z"/><path class="cls-194" d="M26.09,12.36a11.66,11.66,0,0,0-9.81-8.58A11.55,11.55,0,0,0,7.41,24,11.55,11.55,0,0,0,26.09,12.36C26,12,26.33,13.28,26.09,12.36Z"/><path class="cls-195" d="M26.08,12.36A11.54,11.54,0,0,0,4.58,10.1,11.54,11.54,0,0,0,21.3,24.85a11.66,11.66,0,0,0,4.78-12.49C26,12,26.32,13.28,26.08,12.36Z"/><path class="cls-196" d="M26.08,12.36A11.54,11.54,0,0,0,4.58,10.1,11.67,11.67,0,0,0,7.42,24,11.54,11.54,0,0,0,26.08,12.36C26,12,26.31,13.28,26.08,12.36Z"/><path class="cls-197" d="M26.07,12.37A11.64,11.64,0,0,0,16.28,3.8,11.52,11.52,0,0,0,7.43,24,11.52,11.52,0,0,0,26.07,12.37C26,12,26.31,13.29,26.07,12.37Z"/><path class="cls-198" d="M26.06,12.37A11.52,11.52,0,0,0,4.6,10.11,11.51,11.51,0,0,0,21.29,24.83a11.61,11.61,0,0,0,4.77-12.46C26,12,26.3,13.29,26.06,12.37Z"/><path class="cls-199" d="M26.06,12.37A11.52,11.52,0,0,0,4.6,10.11,11.52,11.52,0,0,0,21.29,24.83a11.63,11.63,0,0,0,4.77-12.46C26,12,26.29,13.29,26.06,12.37Z"/><path class="cls-200" d="M26.05,12.37A11.51,11.51,0,0,0,4.61,10.11,11.5,11.5,0,0,0,21.28,24.82a11.61,11.61,0,0,0,4.77-12.45C26,12,26.29,13.29,26.05,12.37Z"/><path class="cls-201" d="M26,12.37A11.5,11.5,0,0,0,4.61,10.12,11.5,11.5,0,0,0,21.28,24.81,11.58,11.58,0,0,0,26,12.37C26,12,26.28,13.29,26,12.37Z"/><path class="cls-202" d="M26,12.37a11.62,11.62,0,0,0-9.76-8.54A11.5,11.5,0,0,0,7.45,24,11.5,11.5,0,0,0,26,12.37C25.94,12,26.27,13.29,26,12.37Z"/><path class="cls-203" d="M26,12.38a11.48,11.48,0,0,0-21.4-2.26A11.48,11.48,0,0,0,21.27,24.8,11.56,11.56,0,0,0,26,12.38C25.94,12,26.27,13.29,26,12.38Z"/><path class="cls-204" d="M26,12.38a11.49,11.49,0,0,0-21.4-2.25A11.48,11.48,0,0,0,21.27,24.8,11.6,11.6,0,0,0,26,12.38C25.93,12,26.26,13.29,26,12.38Z"/><path class="cls-205" d="M26,12.38a11.6,11.6,0,0,0-9.74-8.53A11.48,11.48,0,0,0,7.46,24,11.48,11.48,0,0,0,26,12.38C25.92,12,26.25,13.29,26,12.38Z"/><path class="cls-206" d="M26,12.38A11.47,11.47,0,0,0,4.64,10.13,11.47,11.47,0,0,0,21.26,24.79,11.56,11.56,0,0,0,26,12.38C25.92,12,26.25,13.3,26,12.38Z"/><path class="cls-207" d="M26,12.38A11.47,11.47,0,0,0,4.65,10.13,11.46,11.46,0,0,0,21.26,24.78,11.58,11.58,0,0,0,26,12.38C25.91,12,26.24,13.3,26,12.38Z"/><path class="cls-208" d="M26,12.38a11.57,11.57,0,0,0-9.73-8.51A11.46,11.46,0,0,0,7.47,24,11.46,11.46,0,0,0,26,12.38C25.91,12,26.24,13.3,26,12.38Z"/><path class="cls-209" d="M26,12.38A11.45,11.45,0,0,0,4.66,10.14,11.45,11.45,0,0,0,21.25,24.77,11.54,11.54,0,0,0,26,12.38C25.9,12,26.23,13.3,26,12.38Z"/><path class="cls-210" d="M26,12.39A11.45,11.45,0,0,0,4.67,10.14,11.44,11.44,0,0,0,21.25,24.77,11.55,11.55,0,0,0,26,12.39C25.89,12,26.22,13.3,26,12.39Z"/><path class="cls-211" d="M26,12.39a11.54,11.54,0,0,0-9.71-8.5A11.43,11.43,0,0,0,7.49,23.94,11.43,11.43,0,0,0,26,12.39C25.89,12,26.22,13.3,26,12.39Z"/><path class="cls-212" d="M26,12.39A11.43,11.43,0,0,0,4.68,10.15a11.42,11.42,0,0,0,16.56,14.6A11.51,11.51,0,0,0,26,12.39C25.88,12,26.21,13.3,26,12.39Z"/><path class="cls-213" d="M26,12.39A11.43,11.43,0,0,0,4.68,10.15a11.42,11.42,0,0,0,16.56,14.6A11.52,11.52,0,0,0,26,12.39C25.87,12,26.2,13.3,26,12.39Z"/><path class="cls-214" d="M26,12.39a11.52,11.52,0,0,0-9.69-8.48,11.42,11.42,0,0,0-8.77,20A11.42,11.42,0,0,0,26,12.39C25.87,12,26.2,13.3,26,12.39Z"/><path class="cls-215" d="M26,12.39A11.41,11.41,0,0,0,4.7,10.16,11.41,11.41,0,0,0,21.23,24.74,11.53,11.53,0,0,0,26,12.39C25.86,12,26.19,13.31,26,12.39Z"/><path class="cls-216" d="M26,12.4A11.41,11.41,0,0,0,4.7,10.16,11.4,11.4,0,0,0,21.22,24.73,11.49,11.49,0,0,0,26,12.4C25.86,12,26.18,13.31,26,12.4Z"/><path class="cls-217" d="M25.94,12.4A11.39,11.39,0,0,0,4.71,10.16,11.39,11.39,0,0,0,21.22,24.73,11.5,11.5,0,0,0,25.94,12.4C25.85,12,26.18,13.31,25.94,12.4Z"/><path class="cls-218" d="M25.94,12.4A11.39,11.39,0,0,0,4.71,10.17a11.52,11.52,0,0,0,2.8,13.74A11.4,11.4,0,0,0,25.94,12.4C25.84,12,26.17,13.31,25.94,12.4Z"/><path class="cls-219" d="M25.93,12.4a11.49,11.49,0,0,0-9.66-8.46,11.38,11.38,0,0,0-8.75,20A11.38,11.38,0,0,0,25.93,12.4Z"/><path class="cls-220" d="M25.92,12.4A11.37,11.37,0,0,0,4.73,10.17,11.37,11.37,0,0,0,21.21,24.71,11.46,11.46,0,0,0,25.92,12.4C25.83,12,26.16,13.31,25.92,12.4Z"/><path class="cls-221" d="M25.92,12.4A11.37,11.37,0,0,0,4.73,10.18,11.37,11.37,0,0,0,21.21,24.71,11.49,11.49,0,0,0,25.92,12.4C25.82,12,26.15,13.31,25.92,12.4Z"/><path class="cls-222" d="M25.91,12.41A11.36,11.36,0,0,0,4.74,10.18,11.36,11.36,0,0,0,21.2,24.7a11.45,11.45,0,0,0,4.71-12.29C25.82,12,26.14,13.31,25.91,12.41Z"/><path class="cls-223" d="M25.9,12.41A11.46,11.46,0,0,0,16.26,4,11.47,11.47,0,0,0,4.74,10.18,11.36,11.36,0,0,0,21.2,24.69a11.43,11.43,0,0,0,4.7-12.28C25.81,12,26.14,13.31,25.9,12.41Z"/><path class="cls-224" d="M25.9,12.41A11.35,11.35,0,0,0,4.75,10.18,11.35,11.35,0,0,0,21.2,24.69a11.46,11.46,0,0,0,4.7-12.28Z"/><path class="cls-225" d="M25.89,12.41A11.45,11.45,0,0,0,16.26,4,11.47,11.47,0,0,0,4.75,10.19,11.47,11.47,0,0,0,7.54,23.87,11.35,11.35,0,0,0,25.89,12.41C25.8,12.05,26.13,13.32,25.89,12.41Z"/><path class="cls-226" d="M25.89,12.41A11.34,11.34,0,0,0,4.76,10.19,11.34,11.34,0,0,0,21.19,24.68a11.45,11.45,0,0,0,4.7-12.27C25.79,12.05,26.12,13.32,25.89,12.41Z"/><path class="cls-227" d="M25.88,12.41A11.33,11.33,0,0,0,4.77,10.19,11.32,11.32,0,0,0,21.18,24.67a11.42,11.42,0,0,0,4.7-12.26Z"/><path class="cls-228" d="M25.87,12.42A11.32,11.32,0,0,0,4.77,10.2,11.32,11.32,0,0,0,21.18,24.67a11.42,11.42,0,0,0,4.69-12.25C25.78,12.05,26.11,13.32,25.87,12.42Z"/><path class="cls-229" d="M25.87,12.42A11.32,11.32,0,0,0,4.78,10.2a11.31,11.31,0,0,0,16.4,14.46,11.41,11.41,0,0,0,4.69-12.24C25.77,12.06,26.1,13.32,25.87,12.42Z"/><path class="cls-230" d="M25.86,12.42A11.32,11.32,0,0,0,4.78,10.2,11.31,11.31,0,0,0,21.17,24.66a11.4,11.4,0,0,0,4.69-12.24Z"/><path class="cls-231" d="M25.85,12.42A11.3,11.3,0,0,0,4.79,10.2,11.3,11.3,0,0,0,21.17,24.65a11.39,11.39,0,0,0,4.68-12.23C25.76,12.06,26.09,13.32,25.85,12.42Z"/><path class="cls-232" d="M25.85,12.42a11.3,11.3,0,0,0-21-2.21A11.29,11.29,0,0,0,21.17,24.65a11.42,11.42,0,0,0,4.68-12.23Z"/><path class="cls-233" d="M25.84,12.42a11.3,11.3,0,0,0-21-2.21A11.29,11.29,0,0,0,21.16,24.64a11.39,11.39,0,0,0,4.68-12.22Z"/><path class="cls-234" d="M25.84,12.43A11.39,11.39,0,0,0,16.25,4,11.41,11.41,0,0,0,4.81,10.21,11.28,11.28,0,0,0,21.16,24.63a11.39,11.39,0,0,0,4.68-12.2C25.74,12.06,26.07,13.33,25.84,12.43Z"/><path class="cls-235" d="M25.83,12.43a11.28,11.28,0,0,0-21-2.21A11.28,11.28,0,0,0,21.16,24.63a11.39,11.39,0,0,0,4.67-12.2Z"/><path class="cls-236" d="M25.82,12.43a11.27,11.27,0,0,0-21-2.21,11.26,11.26,0,0,0,16.33,14.4,11.35,11.35,0,0,0,4.67-12.19Z"/><path class="cls-237" d="M25.82,12.43a11.38,11.38,0,0,0-9.57-8.37A11.39,11.39,0,0,0,4.82,10.22a11.27,11.27,0,0,0,16.33,14.4,11.37,11.37,0,0,0,4.67-12.19C25.72,12.07,26.05,13.33,25.82,12.43Z"/><path class="cls-238" d="M25.81,12.43a11.26,11.26,0,0,0-21-2.2A11.25,11.25,0,0,0,21.14,24.61a11.35,11.35,0,0,0,4.67-12.18Z"/><path class="cls-239" d="M25.8,12.43a11.35,11.35,0,0,0-9.55-8.36A11.26,11.26,0,0,0,7.6,23.8,11.25,11.25,0,0,0,25.8,12.43Z"/><path class="cls-240" d="M25.8,12.44a11.35,11.35,0,0,0-9.55-8.36A11.38,11.38,0,0,0,4.84,10.23,11.24,11.24,0,0,0,21.14,24.6,11.34,11.34,0,0,0,25.8,12.44C25.7,12.08,26,13.33,25.8,12.44Z"/><path class="cls-241" d="M25.79,12.44A11.24,11.24,0,0,0,4.85,10.23,11.24,11.24,0,0,0,21.13,24.6a11.34,11.34,0,0,0,4.66-12.16C25.7,12.08,26,13.33,25.79,12.44Z"/><path class="cls-242" d="M25.78,12.44a11.33,11.33,0,0,0-9.53-8.35,11.35,11.35,0,0,0-11.4,6.15A11.23,11.23,0,0,0,21.13,24.59a11.31,11.31,0,0,0,4.65-12.15C25.69,12.08,26,13.34,25.78,12.44Z"/><path class="cls-243" d="M25.78,12.44a11.23,11.23,0,0,0-20.92-2.2A11.23,11.23,0,0,0,21.13,24.59a11.34,11.34,0,0,0,4.65-12.15Z"/><path class="cls-244" d="M25.77,12.44a11.22,11.22,0,0,0-20.9-2.2A11.21,11.21,0,0,0,21.12,24.58a11.32,11.32,0,0,0,4.65-12.14Z"/><path class="cls-245" d="M25.77,12.44a11.22,11.22,0,0,0-20.9-2.19A11.21,11.21,0,0,0,21.12,24.57a11.32,11.32,0,0,0,4.65-12.13C25.67,12.09,26,13.34,25.77,12.44Z"/><path class="cls-246" d="M25.76,12.45a11.2,11.2,0,0,0-20.88-2.2A11.2,11.2,0,0,0,21.12,24.57a11.31,11.31,0,0,0,4.64-12.12C25.67,12.09,26,13.34,25.76,12.45Z"/><path class="cls-247" d="M25.75,12.45a11.2,11.2,0,0,0-20.87-2.2A11.2,11.2,0,0,0,21.11,24.56a11.27,11.27,0,0,0,4.64-12.11C25.66,12.09,26,13.34,25.75,12.45Z"/><path class="cls-248" d="M25.75,12.45a11.2,11.2,0,0,0-20.86-2.2A11.19,11.19,0,0,0,21.11,24.56a11.31,11.31,0,0,0,4.64-12.11C25.65,12.09,26,13.34,25.75,12.45Z"/><path class="cls-249" d="M25.74,12.45a11.3,11.3,0,0,0-9.5-8.31A11.18,11.18,0,0,0,7.65,23.75a11.18,11.18,0,0,0,18.09-11.3C25.65,12.09,26,13.34,25.74,12.45Z"/><path class="cls-250" d="M25.73,12.45A11.18,11.18,0,0,0,4.9,10.26,11.18,11.18,0,0,0,21.1,24.55a11.27,11.27,0,0,0,4.63-12.1C25.64,12.09,26,13.34,25.73,12.45Z"/><path class="cls-251" d="M25.73,12.45a11.29,11.29,0,0,0-9.49-8.3A11.17,11.17,0,0,0,7.66,23.74,11.17,11.17,0,0,0,25.73,12.45Z"/><path class="cls-252" d="M25.72,12.45A11.17,11.17,0,0,0,4.91,10.27,11.16,11.16,0,0,0,21.09,24.54a11.27,11.27,0,0,0,4.63-12.09Z"/><path class="cls-253" d="M25.72,12.46a11.17,11.17,0,0,0-20.8-2.19A11.16,11.16,0,0,0,21.09,24.53a11.26,11.26,0,0,0,4.63-12.07C25.62,12.1,25.94,13.35,25.72,12.46Z"/><path class="cls-254" d="M25.71,12.46A11.16,11.16,0,0,0,4.92,10.27,11.16,11.16,0,0,0,21.09,24.53a11.26,11.26,0,0,0,4.62-12.07C25.62,12.1,25.94,13.35,25.71,12.46Z"/><path class="cls-255" d="M25.7,12.46A11.15,11.15,0,0,0,4.93,10.27,11.15,11.15,0,0,0,21.08,24.52,11.24,11.24,0,0,0,25.7,12.46C25.61,12.1,25.93,13.35,25.7,12.46Z"/><path class="cls-256" d="M25.7,12.46a11.26,11.26,0,0,0-9.46-8.28A11.14,11.14,0,0,0,7.68,23.72a11.15,11.15,0,0,0,18-11.26C25.6,12.11,25.92,13.35,25.7,12.46Z"/><path class="cls-257" d="M25.69,12.46A11.14,11.14,0,0,0,4.94,10.28,11.14,11.14,0,0,0,21.08,24.51a11.23,11.23,0,0,0,4.61-12Z"/><path class="cls-258" d="M25.68,12.46A11.13,11.13,0,0,0,5,10.28,11.12,11.12,0,0,0,21.07,24.5a11.22,11.22,0,0,0,4.61-12Z"/><path class="cls-259" d="M25.68,12.47A11.23,11.23,0,0,0,16.23,4.2,11.24,11.24,0,0,0,5,10.29,11.12,11.12,0,0,0,21.07,24.5a11.21,11.21,0,0,0,4.61-12C25.59,12.11,25.91,13.35,25.68,12.47Z"/><path class="cls-260" d="M25.67,12.47A11.11,11.11,0,0,0,5,10.29a11.11,11.11,0,0,0,16.11,14.2,11.2,11.2,0,0,0,4.6-12C25.58,12.11,25.9,13.36,25.67,12.47Z"/><path class="cls-261" d="M25.66,12.47A11.1,11.1,0,0,0,5,10.29a11.11,11.11,0,0,0,16.09,14.2,11.2,11.2,0,0,0,4.6-12C25.57,12.11,25.89,13.36,25.66,12.47Z"/><path class="cls-262" d="M25.66,12.47a11.21,11.21,0,0,0-9.43-8.25A11.23,11.23,0,0,0,5,10.29,11.1,11.1,0,0,0,21.06,24.48a11.21,11.21,0,0,0,4.6-12Z"/><path class="cls-263" d="M25.65,12.47A11.09,11.09,0,0,0,5,10.3,11.09,11.09,0,0,0,21.05,24.48a11.2,11.2,0,0,0,4.6-12Z"/><path class="cls-264" d="M25.65,12.47A11.1,11.1,0,0,0,5,10.3,11.09,11.09,0,0,0,21.05,24.47a11.19,11.19,0,0,0,4.6-12C25.55,12.12,25.87,13.36,25.65,12.47Z"/><path class="cls-265" d="M25.64,12.48a11.19,11.19,0,0,0-9.41-8.24A11.08,11.08,0,0,0,7.71,23.67,11.08,11.08,0,0,0,25.64,12.48C25.55,12.12,25.87,13.36,25.64,12.48Z"/><path class="cls-266" d="M25.63,12.48A11.08,11.08,0,0,0,5,10.31,11.07,11.07,0,0,0,21,24.46a11.16,11.16,0,0,0,4.59-12C25.54,12.12,25.86,13.36,25.63,12.48Z"/><path class="cls-267" d="M25.63,12.48A11.07,11.07,0,0,0,5,10.31,11.07,11.07,0,0,0,21,24.46a11.18,11.18,0,0,0,4.59-12Z"/><path d="M25.62,12.48A11.06,11.06,0,0,0,5,10.31,11.06,11.06,0,0,0,21,24.45a11.17,11.17,0,0,0,4.58-12Z"/></g><g class="cls-268"><circle class="cls-269" cx="14.91" cy="15.25" r="11.05"/><path class="cls-270" d="M14.91,4.19A11.06,11.06,0,1,0,26,15.25,11.06,11.06,0,0,0,14.91,4.19Zm0,21.8A10.75,10.75,0,1,1,25.66,15.25,10.74,10.74,0,0,1,14.91,26Z"/><circle class="cls-271" cx="14.91" cy="15.25" r="8.73" transform="translate(-2.53 27.51) rotate(-80.76)"/><circle class="cls-272" cx="14.91" cy="15.25" r="8.73" transform="translate(-2.53 27.51) rotate(-80.76)"/><circle class="cls-273" cx="14.91" cy="15.25" r="8.44"/><g class="cls-274"><g class="cls-275"><path class="cls-276" d="M21.79,16.26a.25.25,0,0,1-.21-.28.26.26,0,0,1,.27-.23.25.25,0,0,1,.23.29A.26.26,0,0,1,21.79,16.26Z"/><path class="cls-277" d="M21.58,17.25a.25.25,0,0,1-.18-.31.25.25,0,0,1,.49.13A.24.24,0,0,1,21.58,17.25Z"/><path class="cls-278" d="M21.21,18.2a.24.24,0,0,1-.12-.33.25.25,0,0,1,.32-.14.26.26,0,1,1-.2.47Z"/><path class="cls-279" d="M20.72,19.09a.26.26,0,0,1-.09-.35.26.26,0,1,1,.44.27A.25.25,0,0,1,20.72,19.09Z"/><path class="cls-280" d="M20.09,19.89a.26.26,0,0,1,.33-.39.26.26,0,1,1-.33.39Z"/><path class="cls-281" d="M19.36,20.6a.25.25,0,1,1,.38-.34.25.25,0,1,1-.38.34Z"/><path class="cls-282" d="M18.53,21.19a.27.27,0,0,1,.08-.35.26.26,0,0,1,.35.07.25.25,0,0,1-.07.36A.27.27,0,0,1,18.53,21.19Z"/><path class="cls-283" d="M17.63,21.66a.27.27,0,0,1,.12-.34.25.25,0,0,1,.34.12.25.25,0,0,1-.12.34A.25.25,0,0,1,17.63,21.66Z"/><path class="cls-284" d="M16.67,22a.25.25,0,0,1,.17-.31.27.27,0,0,1,.32.17.26.26,0,0,1-.17.32A.25.25,0,0,1,16.67,22Z"/><path class="cls-285" d="M15.67,22.17a.27.27,0,0,1,.21-.29.26.26,0,0,1,.29.21.24.24,0,0,1-.21.29A.24.24,0,0,1,15.67,22.17Z"/><path class="cls-286" d="M14.65,22.2a.25.25,0,0,1,.26-.24.24.24,0,0,1,.25.24.26.26,0,0,1-.25.27A.27.27,0,0,1,14.65,22.2Z"/><path class="cls-287" d="M13.64,22.09a.27.27,0,0,1,.29-.21.27.27,0,0,1,.22.29.24.24,0,0,1-.29.21A.25.25,0,0,1,13.64,22.09Z"/><path class="cls-288" d="M12.66,21.84a.26.26,0,0,1,.31-.17.26.26,0,0,1,.18.31.26.26,0,0,1-.32.18A.25.25,0,0,1,12.66,21.84Z"/><path class="cls-289" d="M11.72,21.44a.26.26,0,0,1,.34-.12.26.26,0,0,1,.12.34.24.24,0,0,1-.33.12A.25.25,0,0,1,11.72,21.44Z"/><path class="cls-290" d="M10.86,20.91a.26.26,0,0,1,.35-.07.26.26,0,0,1,.07.35.27.27,0,0,1-.36.08A.26.26,0,0,1,10.86,20.91Z"/><path class="cls-291" d="M10.08,20.26a.25.25,0,0,1,.35,0,.26.26,0,0,1,0,.36.25.25,0,0,1-.36,0A.25.25,0,0,1,10.08,20.26Z"/><path class="cls-292" d="M9.4,19.5a.25.25,0,0,1,.35,0,.24.24,0,0,1,0,.35.25.25,0,0,1-.36,0A.26.26,0,0,1,9.4,19.5Z"/><path class="cls-293" d="M8.83,18.65a.27.27,0,0,1,.35.09.26.26,0,0,1-.08.35A.25.25,0,0,1,8.75,19,.26.26,0,0,1,8.83,18.65Z"/><path class="cls-294" d="M8.41,17.73a.25.25,0,0,1,.32.14.25.25,0,0,1-.13.33.26.26,0,0,1-.34-.13A.26.26,0,0,1,8.41,17.73Z"/><path class="cls-295" d="M8.11,16.76a.26.26,0,0,1,.31.18.27.27,0,0,1-.18.31.24.24,0,0,1-.31-.18A.24.24,0,0,1,8.11,16.76Z"/><path class="cls-296" d="M8,15.75a.27.27,0,0,1,.27.23.25.25,0,0,1-.22.28A.26.26,0,0,1,7.73,16,.26.26,0,0,1,8,15.75Z"/><path class="cls-297" d="M8,14.74a.26.26,0,0,1,.24.26.27.27,0,0,1-.27.25A.25.25,0,0,1,7.7,15,.26.26,0,0,1,8,14.74Z"/><path class="cls-298" d="M8.11,13.73a.26.26,0,0,1,.2.3.25.25,0,0,1-.5-.09A.25.25,0,0,1,8.11,13.73Z"/><path class="cls-299" d="M8.41,12.76a.25.25,0,0,1,.15.32.26.26,0,0,1-.32.16.24.24,0,0,1-.16-.32A.25.25,0,0,1,8.41,12.76Z"/><path class="cls-300" d="M8.83,11.84a.25.25,0,0,1,.11.34A.25.25,0,0,1,8.49,12,.24.24,0,0,1,8.83,11.84Z"/><path class="cls-301" d="M9.4,11a.25.25,0,0,1-.3.41A.24.24,0,0,1,9,11.05.26.26,0,0,1,9.4,11Z"/><path class="cls-302" d="M10.08,10.23a.27.27,0,0,1,0,.36.25.25,0,0,1-.37-.35A.26.26,0,0,1,10.08,10.23Z"/><path class="cls-303" d="M10.86,9.58a.26.26,0,0,1,0,.36.27.27,0,0,1-.36,0,.24.24,0,0,1,.05-.35A.25.25,0,0,1,10.86,9.58Z"/><path class="cls-304" d="M11.72,9.05a.26.26,0,0,1-.44.26A.27.27,0,0,1,11.37,9,.25.25,0,0,1,11.72,9.05Z"/><path class="cls-305" d="M12.66,8.66a.25.25,0,0,1-.15.32.27.27,0,0,1-.33-.15.24.24,0,0,1,.15-.32A.24.24,0,0,1,12.66,8.66Z"/><path class="cls-306" d="M13.64,8.4a.26.26,0,0,1-.19.3.25.25,0,0,1-.3-.19.26.26,0,0,1,.19-.31A.24.24,0,0,1,13.64,8.4Z"/><path class="cls-307" d="M14.65,8.29a.26.26,0,0,1-.23.27.26.26,0,0,1-.27-.24.24.24,0,0,1,.23-.27A.25.25,0,0,1,14.65,8.29Z"/><path class="cls-308" d="M15.67,8.32a.28.28,0,0,1-.27.24.26.26,0,0,1-.24-.27.26.26,0,0,1,.27-.24A.24.24,0,0,1,15.67,8.32Z"/><path class="cls-309" d="M16.67,8.51a.25.25,0,0,1-.3.19.27.27,0,0,1-.2-.3.25.25,0,0,1,.31-.2A.27.27,0,0,1,16.67,8.51Z"/><path class="cls-310" d="M17.63,8.83A.26.26,0,0,1,17.3,9a.25.25,0,0,1-.14-.32.24.24,0,0,1,.33-.15A.24.24,0,0,1,17.63,8.83Z"/><path class="cls-311" d="M18.53,9.31a.26.26,0,0,1-.34.09.28.28,0,0,1-.1-.35.25.25,0,0,1,.35-.1A.25.25,0,0,1,18.53,9.31Z"/><path class="cls-312" d="M19.36,9.89a.25.25,0,0,1-.35,0A.26.26,0,0,1,19,9.58a.25.25,0,0,1,.36,0A.23.23,0,0,1,19.36,9.89Z"/><path class="cls-313" d="M20.09,10.6a.24.24,0,0,1-.35,0,.26.26,0,0,1,0-.36.25.25,0,1,1,.35.37Z"/><path class="cls-314" d="M20.72,11.4a.27.27,0,0,1-.36-.06.26.26,0,0,1,.42-.29A.24.24,0,0,1,20.72,11.4Z"/><path class="cls-315" d="M21.21,12.29a.26.26,0,0,1-.34-.11.27.27,0,0,1,.11-.34.25.25,0,0,1,.35.11A.25.25,0,0,1,21.21,12.29Z"/><path class="cls-316" d="M21.58,13.24a.26.26,0,0,1-.32-.16.25.25,0,0,1,.15-.32.26.26,0,0,1,.33.16A.24.24,0,0,1,21.58,13.24Z"/><path class="cls-317" d="M21.79,14.23a.25.25,0,0,1-.29-.2.28.28,0,0,1,.21-.3.25.25,0,0,1,.3.21A.26.26,0,0,1,21.79,14.23Z"/><path class="cls-318" d="M21.88,15.25a.26.26,0,0,1-.27-.25.25.25,0,0,1,.24-.26.26.26,0,0,1,.27.24A.25.25,0,0,1,21.88,15.25Z"/></g><g class="cls-275"><path class="cls-276" d="M21.79,16.26a.25.25,0,0,1-.21-.28.26.26,0,0,1,.27-.23.25.25,0,0,1,.23.29A.26.26,0,0,1,21.79,16.26Z"/><path class="cls-277" d="M21.58,17.25a.25.25,0,0,1-.18-.31.25.25,0,0,1,.49.13A.24.24,0,0,1,21.58,17.25Z"/><path class="cls-278" d="M21.21,18.2a.24.24,0,0,1-.12-.33.25.25,0,0,1,.32-.14.26.26,0,1,1-.2.47Z"/><path class="cls-279" d="M20.72,19.09a.26.26,0,0,1-.09-.35.26.26,0,1,1,.44.27A.25.25,0,0,1,20.72,19.09Z"/><path class="cls-280" d="M20.09,19.89a.26.26,0,0,1,.33-.39.26.26,0,1,1-.33.39Z"/><path class="cls-281" d="M19.36,20.6a.25.25,0,1,1,.38-.34.25.25,0,1,1-.38.34Z"/><path class="cls-282" d="M18.53,21.19a.27.27,0,0,1,.08-.35.26.26,0,0,1,.35.07.25.25,0,0,1-.07.36A.27.27,0,0,1,18.53,21.19Z"/><path class="cls-283" d="M17.63,21.66a.27.27,0,0,1,.12-.34.25.25,0,0,1,.34.12.25.25,0,0,1-.12.34A.25.25,0,0,1,17.63,21.66Z"/><path class="cls-284" d="M16.67,22a.25.25,0,0,1,.17-.31.27.27,0,0,1,.32.17.26.26,0,0,1-.17.32A.25.25,0,0,1,16.67,22Z"/><path class="cls-285" d="M15.67,22.17a.27.27,0,0,1,.21-.29.26.26,0,0,1,.29.21.24.24,0,0,1-.21.29A.24.24,0,0,1,15.67,22.17Z"/><path class="cls-286" d="M14.65,22.2a.25.25,0,0,1,.26-.24.24.24,0,0,1,.25.24.26.26,0,0,1-.25.27A.27.27,0,0,1,14.65,22.2Z"/><path class="cls-287" d="M13.64,22.09a.27.27,0,0,1,.29-.21.27.27,0,0,1,.22.29.24.24,0,0,1-.29.21A.25.25,0,0,1,13.64,22.09Z"/><path class="cls-288" d="M12.66,21.84a.26.26,0,0,1,.31-.17.26.26,0,0,1,.18.31.26.26,0,0,1-.32.18A.25.25,0,0,1,12.66,21.84Z"/><path class="cls-289" d="M11.72,21.44a.26.26,0,0,1,.34-.12.26.26,0,0,1,.12.34.24.24,0,0,1-.33.12A.25.25,0,0,1,11.72,21.44Z"/><path class="cls-290" d="M10.86,20.91a.26.26,0,0,1,.35-.07.26.26,0,0,1,.07.35.27.27,0,0,1-.36.08A.26.26,0,0,1,10.86,20.91Z"/><path class="cls-291" d="M10.08,20.26a.25.25,0,0,1,.35,0,.26.26,0,0,1,0,.36.25.25,0,0,1-.36,0A.25.25,0,0,1,10.08,20.26Z"/><path class="cls-292" d="M9.4,19.5a.25.25,0,0,1,.35,0,.24.24,0,0,1,0,.35.25.25,0,0,1-.36,0A.26.26,0,0,1,9.4,19.5Z"/><path class="cls-293" d="M8.83,18.65a.27.27,0,0,1,.35.09.26.26,0,0,1-.08.35A.25.25,0,0,1,8.75,19,.26.26,0,0,1,8.83,18.65Z"/><path class="cls-294" d="M8.41,17.73a.25.25,0,0,1,.32.14.25.25,0,0,1-.13.33.26.26,0,0,1-.34-.13A.26.26,0,0,1,8.41,17.73Z"/><path class="cls-295" d="M8.11,16.76a.26.26,0,0,1,.31.18.27.27,0,0,1-.18.31.24.24,0,0,1-.31-.18A.24.24,0,0,1,8.11,16.76Z"/><path class="cls-296" d="M8,15.75a.27.27,0,0,1,.27.23.25.25,0,0,1-.22.28A.26.26,0,0,1,7.73,16,.26.26,0,0,1,8,15.75Z"/><path class="cls-297" d="M8,14.74a.26.26,0,0,1,.24.26.27.27,0,0,1-.27.25A.25.25,0,0,1,7.7,15,.26.26,0,0,1,8,14.74Z"/><path class="cls-298" d="M8.11,13.73a.26.26,0,0,1,.2.3.25.25,0,0,1-.5-.09A.25.25,0,0,1,8.11,13.73Z"/><path class="cls-299" d="M8.41,12.76a.25.25,0,0,1,.15.32.26.26,0,0,1-.32.16.24.24,0,0,1-.16-.32A.25.25,0,0,1,8.41,12.76Z"/><path class="cls-300" d="M8.83,11.84a.25.25,0,0,1,.11.34A.25.25,0,0,1,8.49,12,.24.24,0,0,1,8.83,11.84Z"/><path class="cls-301" d="M9.4,11a.25.25,0,0,1-.3.41A.24.24,0,0,1,9,11.05.26.26,0,0,1,9.4,11Z"/><path class="cls-302" d="M10.08,10.23a.27.27,0,0,1,0,.36.25.25,0,0,1-.37-.35A.26.26,0,0,1,10.08,10.23Z"/><path class="cls-303" d="M10.86,9.58a.26.26,0,0,1,0,.36.27.27,0,0,1-.36,0,.24.24,0,0,1,.05-.35A.25.25,0,0,1,10.86,9.58Z"/><path class="cls-304" d="M11.72,9.05a.26.26,0,0,1-.44.26A.27.27,0,0,1,11.37,9,.25.25,0,0,1,11.72,9.05Z"/><path class="cls-305" d="M12.66,8.66a.25.25,0,0,1-.15.32.27.27,0,0,1-.33-.15.24.24,0,0,1,.15-.32A.24.24,0,0,1,12.66,8.66Z"/><path class="cls-306" d="M13.64,8.4a.26.26,0,0,1-.19.3.25.25,0,0,1-.3-.19.26.26,0,0,1,.19-.31A.24.24,0,0,1,13.64,8.4Z"/><path class="cls-307" d="M14.65,8.29a.26.26,0,0,1-.23.27.26.26,0,0,1-.27-.24.24.24,0,0,1,.23-.27A.25.25,0,0,1,14.65,8.29Z"/><path class="cls-308" d="M15.67,8.32a.28.28,0,0,1-.27.24.26.26,0,0,1-.24-.27.26.26,0,0,1,.27-.24A.24.24,0,0,1,15.67,8.32Z"/><path class="cls-309" d="M16.67,8.51a.25.25,0,0,1-.3.19.27.27,0,0,1-.2-.3.25.25,0,0,1,.31-.2A.27.27,0,0,1,16.67,8.51Z"/><path class="cls-310" d="M17.63,8.83A.26.26,0,0,1,17.3,9a.25.25,0,0,1-.14-.32.24.24,0,0,1,.33-.15A.24.24,0,0,1,17.63,8.83Z"/><path class="cls-311" d="M18.53,9.31a.26.26,0,0,1-.34.09.28.28,0,0,1-.1-.35.25.25,0,0,1,.35-.1A.25.25,0,0,1,18.53,9.31Z"/><path class="cls-312" d="M19.36,9.89a.25.25,0,0,1-.35,0A.26.26,0,0,1,19,9.58a.25.25,0,0,1,.36,0A.23.23,0,0,1,19.36,9.89Z"/><path class="cls-313" d="M20.09,10.6a.24.24,0,0,1-.35,0,.26.26,0,0,1,0-.36.25.25,0,1,1,.35.37Z"/><path class="cls-314" d="M20.72,11.4a.27.27,0,0,1-.36-.06.26.26,0,0,1,.42-.29A.24.24,0,0,1,20.72,11.4Z"/><path class="cls-315" d="M21.21,12.29a.26.26,0,0,1-.34-.11.27.27,0,0,1,.11-.34.25.25,0,0,1,.35.11A.25.25,0,0,1,21.21,12.29Z"/><path class="cls-316" d="M21.58,13.24a.26.26,0,0,1-.32-.16.25.25,0,0,1,.15-.32.26.26,0,0,1,.33.16A.24.24,0,0,1,21.58,13.24Z"/><path class="cls-317" d="M21.79,14.23a.25.25,0,0,1-.29-.2.28.28,0,0,1,.21-.3.25.25,0,0,1,.3.21A.26.26,0,0,1,21.79,14.23Z"/><path class="cls-318" d="M21.88,15.25a.26.26,0,0,1-.27-.25.25.25,0,0,1,.24-.26.26.26,0,0,1,.27.24A.25.25,0,0,1,21.88,15.25Z"/></g></g><path class="cls-319" d="M14.91,6.81a8.44,8.44,0,1,0,8.44,8.44A8.44,8.44,0,0,0,14.91,6.81Zm0,16.33a7.9,7.9,0,1,1,7.89-7.89A7.9,7.9,0,0,1,14.91,23.14Z"/><g class="cls-320"><path class="cls-321" d="M21.53,5.28c3.62,1.88,5.84,4.76,5,6.43s-4.5,1.5-8.12-.38-5.85-4.77-5-6.44S17.91,3.39,21.53,5.28Z"/></g><g class="cls-322"><path class="cls-323" d="M22.23,9.47A2.56,2.56,0,1,1,21.13,6,2.57,2.57,0,0,1,22.23,9.47Z"/></g><g class="cls-324"><path class="cls-325" d="M10.43,19.76c1.94,1.2,3,3,2.34,4.08s-2.75.91-4.7-.3-3-3-2.34-4.07S8.48,18.55,10.43,19.76Z"/></g><path class="cls-326" d="M19.65,13.26a1.82,1.82,0,0,0-1.13-.16c-.38,0-.75.15-1.14.22a3.08,3.08,0,0,1-.61,0,1.72,1.72,0,0,1-1.16-.65.59.59,0,0,0,.05-.19.83.83,0,1,0-1.59.22,1.62,1.62,0,0,1-1,.49,2.09,2.09,0,0,1-.61,0c-.38-.06-.76-.17-1.14-.22a1.91,1.91,0,0,0-1.13.17,1.37,1.37,0,0,0-.6,1.59,2.14,2.14,0,0,0,.59.83,6.19,6.19,0,0,1,.72.73l.21.3a.78.78,0,0,0-.2.09L11.27,18s2.27-.15,3.64-.1,3.64.1,3.64.1l.39-1.35-.14,0a1.86,1.86,0,0,1,.14-.23,6.22,6.22,0,0,1,.72-.73,2.28,2.28,0,0,0,.6-.84A1.37,1.37,0,0,0,19.65,13.26Zm-1.52.67a.55.55,0,0,1,.17.23.5.5,0,0,1-.08.44,1.26,1.26,0,0,1-.33.32l-.06.05a3.83,3.83,0,0,0-2.7-1v-.75l.1,0a1.39,1.39,0,0,0,.73.6l.08,0a1.49,1.49,0,0,0,.3.18,2,2,0,0,0,1.49-.13l.06,0A.8.8,0,0,1,18.13,13.93Zm-6.21.86a1.35,1.35,0,0,1-.32-.31.54.54,0,0,1-.09-.44.5.5,0,0,1,.18-.23.58.58,0,0,1,.25-.12l.05,0a2,2,0,0,0,1.5.13,1.22,1.22,0,0,0,.29-.17l.09,0a1.43,1.43,0,0,0,.62-.46l.09,0v.72a3.5,3.5,0,0,0-2.62.88ZM10.25,15a1,1,0,0,1,.09-1.11,1.08,1.08,0,0,1,.52-.27,1.41,1.41,0,0,1,.35-.05,1,1,0,0,0-.21.4,1,1,0,0,0,0,.51,1.13,1.13,0,0,0,.43.58l.24.18c-.05.09-.09.17-.13.26a1.09,1.09,0,0,1-.46.35h0A2.7,2.7,0,0,1,10.25,15Zm9.31.12a2.63,2.63,0,0,1-.75.81,1,1,0,0,1-.64-.53l-.05,0v0l.29-.22a1.21,1.21,0,0,0,.43-.57,1,1,0,0,0,0-.52,1.25,1.25,0,0,0-.2-.4,2,2,0,0,1,.34,0,1.05,1.05,0,0,1,.53.28A1,1,0,0,1,19.56,15.08Z"/><path class="cls-327" d="M19.49,13.34a1.93,1.93,0,0,0-1.09-.15c-.37,0-.74.15-1.1.21a3,3,0,0,1-.59,0,1.64,1.64,0,0,1-1.12-.61.58.58,0,0,0,0-.19A.8.8,0,1,0,14,12.45a.82.82,0,0,0,.06.41,1.63,1.63,0,0,1-1,.46,2.88,2.88,0,0,1-.59,0c-.37-.06-.73-.17-1.1-.21a1.85,1.85,0,0,0-1.09.16,1.27,1.27,0,0,0-.58,1.51,2.07,2.07,0,0,0,.57.78,6.52,6.52,0,0,1,.7.69,1.86,1.86,0,0,1,.25.46l-.25,0,.37,1.15s2.2-.14,3.52-.1,3.51.1,3.51.1l.37-1.15-.19,0a1.33,1.33,0,0,1,.2-.35,5.7,5.7,0,0,1,.7-.69,2.22,2.22,0,0,0,.57-.79A1.3,1.3,0,0,0,19.49,13.34ZM18,14a.46.46,0,0,1,.17.22.44.44,0,0,1-.08.41,1.47,1.47,0,0,1-.31.3l-.07.05a3.75,3.75,0,0,0-2.6-1v-.7l.1-.05a1.29,1.29,0,0,0,.7.58l.08,0a1.18,1.18,0,0,0,.29.16,2,2,0,0,0,1.44-.12l.05,0A.66.66,0,0,1,18,14Zm-6,.81a1.14,1.14,0,0,1-.32-.3.5.5,0,0,1-.08-.41.52.52,0,0,1,.17-.22.74.74,0,0,1,.24-.11l.05,0a2,2,0,0,0,1.45.12,1.56,1.56,0,0,0,.28-.16l.08,0a1.29,1.29,0,0,0,.61-.44l.08,0V14a3.36,3.36,0,0,0-2.52.83ZM10.42,15a.92.92,0,0,1,.08-1,1.05,1.05,0,0,1,.51-.27,1.86,1.86,0,0,1,.33,0,1.07,1.07,0,0,0-.2.38.87.87,0,0,0,0,.48,1.12,1.12,0,0,0,.41.55l.24.17a1.41,1.41,0,0,0-.13.24,1,1,0,0,1-.45.33h0A2.42,2.42,0,0,1,10.42,15Zm9,.12a2.64,2.64,0,0,1-.73.76,2.78,2.78,0,0,1-.66-.48v0l.27-.21a1.06,1.06,0,0,0,.42-.54.91.91,0,0,0,0-.49,1,1,0,0,0-.19-.38,1.88,1.88,0,0,1,.33,0,1.08,1.08,0,0,1,.51.26A.93.93,0,0,1,19.4,15.07Z"/></g><path class="cls-328" d="M28.53,16.69a2.09,2.09,0,0,0,.29-.16l.28-.22.17-.18a.46.46,0,0,0,.07-.07,2.48,2.48,0,0,0,.19-.26h0a4.15,4.15,0,0,0,.6-1.75.84.84,0,0,0-.3-.83,11.48,11.48,0,0,0-2.42-.11,4,4,0,0,0,.71-.43,2.5,2.5,0,0,0,.46-.46h0a2.4,2.4,0,0,0,.19-.29c0-.08.08-.15.11-.22l0-.09c0-.1.08-.21.11-.31v0c0-.11.05-.22.07-.33h0a4.5,4.5,0,0,0,0-1.51.84.84,0,0,0-.54-.7,11.39,11.39,0,0,0-2.34.64l.14-.12a4,4,0,0,0,.33-.39,3.64,3.64,0,0,0,.38-.7h0c0-.11.07-.23.1-.34l0-.24s0-.07,0-.1,0-.22,0-.33h0a4.21,4.21,0,0,0-.55-1.77.82.82,0,0,0-.73-.49,11.75,11.75,0,0,0-2,1.33,3.18,3.18,0,0,0,.43-1.41c0-.12,0-.24,0-.36a2,2,0,0,0-.05-.24s0-.06,0-.09a2.81,2.81,0,0,0-.1-.31v0A2.88,2.88,0,0,0,24,3.48h0a4.5,4.5,0,0,0-.93-1.2A.82.82,0,0,0,22.25,2a11.22,11.22,0,0,0-1.52,1.89,3,3,0,0,0,.07-.83,2.91,2.91,0,0,0-.09-.65c0-.11-.08-.22-.13-.33a1.51,1.51,0,0,0-.11-.22l0-.09a2.48,2.48,0,0,0-.19-.26h0A2.75,2.75,0,0,0,20,1.28h0A4.61,4.61,0,0,0,18.75.43a.82.82,0,0,0-.88,0A11.9,11.9,0,0,0,17,2.72a3.17,3.17,0,0,0-.48-1.39,3,3,0,0,0-.22-.28L16.13.88a.46.46,0,0,0-.07-.07A2.48,2.48,0,0,0,15.8.62h0a2.91,2.91,0,0,0-.3-.17h0A4.34,4.34,0,0,0,14,0a.82.82,0,0,0-.83.3,11.43,11.43,0,0,0-.11,2.42,3.14,3.14,0,0,0-.89-1.18h0l-.29-.2-.23-.11-.08,0-.31-.1h0a4.08,4.08,0,0,0-1.84,0,.8.8,0,0,0-.7.54,11.53,11.53,0,0,0,.64,2.33A3.18,3.18,0,0,0,8.17,3.1,1.91,1.91,0,0,0,7.83,3a1,1,0,0,0-.24,0l-.1,0a1.82,1.82,0,0,0-.33,0h0a4.34,4.34,0,0,0-1.77.54.82.82,0,0,0-.49.73,11.69,11.69,0,0,0,1.33,2L6,6.12A2.35,2.35,0,0,0,5.53,6a2.79,2.79,0,0,0-.39-.1l-.33,0a2.17,2.17,0,0,0-.36,0l-.24,0-.09,0L3.8,6h0A4.19,4.19,0,0,0,2.28,7.05.84.84,0,0,0,2,7.9,11.34,11.34,0,0,0,3.93,9.41a3.47,3.47,0,0,0-1.16,0l-.32.07-.33.12-.22.12-.09,0-.26.19h0A4.16,4.16,0,0,0,.43,11.4a.82.82,0,0,0,0,.88,11.42,11.42,0,0,0,2.26.85,3.18,3.18,0,0,0-1.39.49,1.93,1.93,0,0,0-.28.22L.88,14l-.07.07-.19.26v0a2.75,2.75,0,0,0-.17.29h0A4.39,4.39,0,0,0,0,16.11a.81.81,0,0,0,.3.82,11.91,11.91,0,0,0,2.42.12l-.17.07a3.72,3.72,0,0,0-.66.46,2.5,2.5,0,0,0-.32.33l0,0c-.07.1-.14.2-.2.3a2.14,2.14,0,0,0-.1.22.41.41,0,0,0-.05.09,2.81,2.81,0,0,0-.1.31h0A3.4,3.4,0,0,0,1,19.2H1a4.27,4.27,0,0,0,.05,1.51.8.8,0,0,0,.54.69,11.53,11.53,0,0,0,2.33-.64A3.18,3.18,0,0,0,3.1,22h0a2.07,2.07,0,0,0-.1.33,1.13,1.13,0,0,0,0,.25.3.3,0,0,0,0,.1A1.71,1.71,0,0,0,3,23v0a4.25,4.25,0,0,0,.54,1.76.85.85,0,0,0,.73.5,12,12,0,0,0,2-1.34,3.09,3.09,0,0,0-.43,1.41,2.14,2.14,0,0,0,0,.36c0,.08,0,.17,0,.25s0,.06,0,.09a2.81,2.81,0,0,0,.1.31H6c0,.11.09.21.14.32h0a4.68,4.68,0,0,0,.92,1.2.83.83,0,0,0,.84.24v13l3-1.92h0l4.06-2.64,7,4.56V27l0,0,.34.1.25,0H23a4.12,4.12,0,0,0,1.76-.55.85.85,0,0,0,.5-.73,12.43,12.43,0,0,0-1.33-2l.15.09a2.82,2.82,0,0,0,.61.23,2.77,2.77,0,0,0,.64.11h.36l.24-.05H26l.31-.1h0a4.1,4.1,0,0,0,1.52-1.06.82.82,0,0,0,.24-.84,11.22,11.22,0,0,0-1.89-1.52,2.87,2.87,0,0,0,.5.07,3.17,3.17,0,0,0,1-.09l.34-.13.22-.11.08,0,.27-.19h0l.25-.22h0a4.64,4.64,0,0,0,.86-1.25.84.84,0,0,0,0-.88A11.8,11.8,0,0,0,27.42,17a3.19,3.19,0,0,0,.81-.19A1.94,1.94,0,0,0,28.53,16.69Z"/></g></g></g></svg>