<svg width="197" height="308" viewBox="0 0 197 308" fill="none" xmlns="http://www.w3.org/2000/svg">
<g opacity="0.7" filter="url(#filter0_d_438_3143)">
<rect x="38.6758" y="13.6562" width="119.649" height="204.29" fill="url(#paint0_radial_438_3143)"/>
</g>
<path d="M56.0793 0.369141H140.921L158.325 13.6563H38.6758L56.0793 0.369141Z" fill="#FFA6A6"/>
<path d="M101.233 104.656C100.593 104.656 100.017 104.432 99.5047 103.984C99.0567 103.536 98.8327 102.96 98.8327 102.256V56.5602L85.6807 66.6402C85.1047 67.0882 84.4967 67.2482 83.8567 67.1202C83.2807 66.9922 82.7687 66.6402 82.3207 66.0642L76.6567 58.6722C76.2727 58.0962 76.1127 57.4882 76.1767 56.8482C76.3047 56.1442 76.6887 55.6002 77.3287 55.2162L99.4087 38.1282C99.7927 37.8722 100.145 37.7122 100.465 37.6482C100.849 37.5202 101.265 37.4562 101.713 37.4562H113.713C114.353 37.4562 114.897 37.6802 115.345 38.1282C115.857 38.5762 116.113 39.1522 116.113 39.8562V102.256C116.113 102.96 115.857 103.536 115.345 103.984C114.897 104.432 114.353 104.656 113.713 104.656H101.233Z" fill="white"/>
<defs>
<filter id="filter0_d_438_3143" x="0.675781" y="13.6562" width="195.649" height="294.289" filterUnits="userSpaceOnUse" color-interpolation-filters="sRGB">
<feFlood flood-opacity="0" result="BackgroundImageFix"/>
<feColorMatrix in="SourceAlpha" type="matrix" values="0 0 0 0 0 0 0 0 0 0 0 0 0 0 0 0 0 0 127 0" result="hardAlpha"/>
<feMorphology radius="14" operator="dilate" in="SourceAlpha" result="effect1_dropShadow_438_3143"/>
<feOffset dy="52"/>
<feGaussianBlur stdDeviation="12"/>
<feComposite in2="hardAlpha" operator="out"/>
<feColorMatrix type="matrix" values="0 0 0 0 0 0 0 0 0 0 0 0 0 0 0 0 0 0 0.25 0"/>
<feBlend mode="normal" in2="BackgroundImageFix" result="effect1_dropShadow_438_3143"/>
<feBlend mode="normal" in="SourceGraphic" in2="effect1_dropShadow_438_3143" result="shape"/>
</filter>
<radialGradient id="paint0_radial_438_3143" cx="0" cy="0" r="1" gradientUnits="userSpaceOnUse" gradientTransform="translate(117.086 35.6631) rotate(95.8217) scale(183.228 106.924)">
<stop stop-color="#DB00D8"/>
<stop offset="1" stop-color="#C50000"/>
</radialGradient>
</defs>
</svg>
