<svg width="110" height="134" viewBox="0 0 110 134" fill="none" xmlns="http://www.w3.org/2000/svg">
<rect opacity="0.7" x="0.0898438" y="12.0293" width="109.56" height="121.934" fill="url(#paint0_radial_438_3161)"/>
<path d="M0.0898437 0.132812H93.7136L109.65 12.0288H0.0898438L0.0898437 0.132812Z" fill="#FFBCBC"/>
<path d="M54.1596 69.4293C52.0796 69.4293 50.3063 69.1893 48.8396 68.7093C47.373 68.2026 46.173 67.5626 45.2396 66.7893C44.3063 65.9893 43.613 65.1493 43.1596 64.2693C42.7063 63.3626 42.4663 62.496 42.4396 61.6693C42.4396 61.4293 42.5196 61.2293 42.6796 61.0693C42.8663 60.9093 43.0796 60.8293 43.3196 60.8293H48.5196C48.8396 60.8293 49.093 60.896 49.2796 61.0293C49.4663 61.136 49.6396 61.3226 49.7996 61.5893C50.013 62.096 50.3196 62.5093 50.7196 62.8293C51.1463 63.1493 51.653 63.376 52.2396 63.5093C52.8263 63.616 53.4663 63.6693 54.1596 63.6693C55.5196 63.6693 56.573 63.3626 57.3196 62.7493C58.093 62.1093 58.4796 61.2426 58.4796 60.1493C58.4796 59.0026 58.1196 58.1893 57.3996 57.7093C56.6796 57.2026 55.653 56.9493 54.3196 56.9493H49.8796C49.5863 56.9493 49.3463 56.856 49.1596 56.6693C48.973 56.4826 48.8796 56.2426 48.8796 55.9493V53.7093C48.8796 53.3893 48.9463 53.1093 49.0796 52.8693C49.213 52.6293 49.3596 52.456 49.5196 52.3493L56.0796 46.7893H44.9596C44.693 46.7893 44.453 46.696 44.2396 46.5093C44.053 46.3226 43.9596 46.0826 43.9596 45.7893V42.0293C43.9596 41.736 44.053 41.496 44.2396 41.3093C44.453 41.1226 44.693 41.0293 44.9596 41.0293H63.3596C63.653 41.0293 63.893 41.1226 64.0796 41.3093C64.293 41.496 64.3996 41.736 64.3996 42.0293V45.4293C64.3996 45.7226 64.333 45.9893 64.1996 46.2293C64.0663 46.4426 63.9196 46.616 63.7596 46.7493L57.6796 52.3893L57.9596 52.4693C59.4796 52.656 60.8396 53.0693 62.0396 53.7093C63.2396 54.3226 64.1863 55.1893 64.8796 56.3093C65.573 57.4293 65.9196 58.856 65.9196 60.5893C65.9196 62.4026 65.3996 63.976 64.3596 65.3093C63.3463 66.616 61.9596 67.6293 60.1996 68.3493C58.4396 69.0693 56.4263 69.4293 54.1596 69.4293Z" fill="white"/>
<defs>
<radialGradient id="paint0_radial_438_3161" cx="0" cy="0" r="1" gradientUnits="userSpaceOnUse" gradientTransform="translate(71.888 25.1645) rotate(98.8901) scale(110.122 97.2327)">
<stop stop-color="#DB0084"/>
<stop offset="1" stop-color="#C50000"/>
</radialGradient>
</defs>
</svg>
