<svg width="110" height="167" viewBox="0 0 110 167" fill="none" xmlns="http://www.w3.org/2000/svg">
<rect opacity="0.7" x="0.349609" y="14.8887" width="109.56" height="151.244" fill="url(#paint0_radial_438_3125)"/>
<path d="M15.2896 0.132812H109.909V14.8884H0.349609L15.2896 0.132812Z" fill="#FFBCBC"/>
<path d="M38.6052 88.8887C38.1359 88.8887 37.7305 88.7393 37.3892 88.4407C37.0905 88.142 36.9412 87.758 36.9412 87.2887V82.7447C36.9412 82.446 37.0265 81.998 37.1972 81.4007C37.3679 80.7607 37.8159 80.1633 38.5412 79.6087L45.1972 73.0807C48.6105 70.478 51.4052 68.2807 53.5812 66.4887C55.7999 64.654 57.4425 63.0327 58.5092 61.6247C59.5759 60.2167 60.1092 58.894 60.1092 57.6567C60.1092 56.206 59.7252 55.0113 58.9572 54.0727C58.2319 53.0913 56.9519 52.6007 55.1172 52.6007C53.8799 52.6007 52.8345 52.878 51.9812 53.4327C51.1705 53.9447 50.5519 54.6273 50.1252 55.4807C49.6985 56.334 49.3999 57.2087 49.2292 58.1047C49.0585 58.6593 48.7599 59.0433 48.3332 59.2567C47.9492 59.47 47.5225 59.5767 47.0532 59.5767H39.0532C38.6692 59.5767 38.3492 59.4487 38.0932 59.1927C37.8372 58.9367 37.7092 58.6167 37.7092 58.2327C37.7519 56.1847 38.1785 54.2647 38.9892 52.4727C39.8425 50.6807 41.0159 49.102 42.5092 47.7367C44.0452 46.3287 45.8585 45.2407 47.9492 44.4727C50.0825 43.7047 52.4719 43.3207 55.1172 43.3207C58.7439 43.3207 61.8159 43.8967 64.3332 45.0487C66.8932 46.2007 68.8345 47.822 70.1572 49.9127C71.4799 51.9607 72.1412 54.3713 72.1412 57.1447C72.1412 59.2353 71.6719 61.198 70.7332 63.0327C69.8372 64.8247 68.5359 66.5527 66.8292 68.2167C65.1652 69.838 63.1812 71.5233 60.8772 73.2727L54.9892 79.2247H71.4372C71.9065 79.2247 72.2905 79.374 72.5892 79.6727C72.9305 79.9713 73.1012 80.3553 73.1012 80.8247V87.2887C73.1012 87.758 72.9305 88.142 72.5892 88.4407C72.2905 88.7393 71.9065 88.8887 71.4372 88.8887H38.6052Z" fill="white"/>
<defs>
<radialGradient id="paint0_radial_438_3125" cx="0" cy="0" r="1" gradientUnits="userSpaceOnUse" gradientTransform="translate(72.1477 31.1813) rotate(97.1874) scale(136.021 97.6417)">
<stop stop-color="#DB0084"/>
<stop offset="1" stop-color="#C50000"/>
</radialGradient>
</defs>
</svg>
