<svg xmlns="http://www.w3.org/2000/svg" xmlns:xlink="http://www.w3.org/1999/xlink" viewBox="0 0 34 36.94"><defs><style>.cls-1,.cls-10,.cls-12,.cls-258,.cls-3,.cls-302,.cls-32{mix-blend-mode:multiply;}.cls-1{fill:url(#radial-gradient);}.cls-2{fill:url(#radial-gradient-2);}.cls-3{fill:url(#radial-gradient-3);}.cls-4{fill:none;}.cls-5{isolation:isolate;}.cls-6{fill:url(#linear-gradient);}.cls-7{fill:url(#linear-gradient-2);}.cls-8{fill:url(#linear-gradient-3);}.cls-9{fill:url(#linear-gradient-4);}.cls-10{fill:#223859;}.cls-10,.cls-257{opacity:0.5;}.cls-11{fill:url(#linear-gradient-5);}.cls-12{fill:#265e81;}.cls-12,.cls-254{opacity:0.75;}.cls-13{fill:url(#linear-gradient-6);}.cls-14{fill:url(#linear-gradient-7);}.cls-15{fill:url(#linear-gradient-8);}.cls-16{fill:url(#linear-gradient-9);}.cls-17{fill:url(#linear-gradient-10);}.cls-18{fill:url(#linear-gradient-11);}.cls-19{fill:url(#linear-gradient-12);}.cls-20{fill:url(#linear-gradient-13);}.cls-21{fill:url(#linear-gradient-14);}.cls-22{fill:url(#linear-gradient-15);}.cls-23{fill:url(#linear-gradient-16);}.cls-24{fill:url(#linear-gradient-17);}.cls-25{fill:url(#linear-gradient-18);}.cls-26{fill:url(#linear-gradient-19);}.cls-27{fill:url(#linear-gradient-20);}.cls-28{fill:url(#linear-gradient-21);}.cls-29{fill:url(#linear-gradient-22);}.cls-30{fill:url(#linear-gradient-23);}.cls-31{fill:url(#linear-gradient-24);}.cls-302,.cls-311,.cls-32{opacity:0.55;}.cls-33{fill:#fff;opacity:0;}.cls-34{fill:#fefefe;opacity:0;}.cls-35{fill:#fdfdfd;opacity:0.01;}.cls-36{fill:#fbfbfb;opacity:0.01;}.cls-37{fill:#fafafa;opacity:0.02;}.cls-38{fill:#f9f9f9;opacity:0.02;}.cls-39{fill:#f8f8f8;opacity:0.03;}.cls-40{fill:#f7f7f7;opacity:0.03;}.cls-41{fill:#f6f6f6;opacity:0.04;}.cls-42{fill:#f4f4f4;opacity:0.04;}.cls-43{fill:#f3f3f3;opacity:0.05;}.cls-44{fill:#f2f2f2;opacity:0.05;}.cls-45{fill:#f1f1f1;opacity:0.06;}.cls-46{fill:#f0f0f0;opacity:0.06;}.cls-47{fill:#efefef;opacity:0.06;}.cls-48{fill:#ededed;opacity:0.07;}.cls-49{fill:#ececec;opacity:0.07;}.cls-50{fill:#ebebeb;opacity:0.08;}.cls-51{fill:#eaeaea;opacity:0.08;}.cls-52{fill:#e9e9e9;opacity:0.09;}.cls-53{fill:#e8e8e8;opacity:0.09;}.cls-54{fill:#e6e6e6;opacity:0.1;}.cls-55{fill:#e5e5e5;opacity:0.1;}.cls-56{fill:#e4e4e4;opacity:0.11;}.cls-57{fill:#e3e3e3;opacity:0.11;}.cls-58{fill:#e2e2e2;opacity:0.11;}.cls-59{fill:#e1e1e1;opacity:0.12;}.cls-60{fill:#dfdfdf;opacity:0.12;}.cls-61{fill:#dedede;opacity:0.13;}.cls-62{fill:#ddd;opacity:0.13;}.cls-63{fill:#dcdcdc;opacity:0.14;}.cls-64{fill:#dbdbdb;opacity:0.14;}.cls-65{fill:#dadada;opacity:0.15;}.cls-66{fill:#d8d8d8;opacity:0.15;}.cls-67{fill:#d7d7d7;opacity:0.16;}.cls-68{fill:#d6d6d6;opacity:0.16;}.cls-69{fill:#d5d5d5;opacity:0.17;}.cls-70{fill:#d4d4d4;opacity:0.17;}.cls-71{fill:#d3d3d3;opacity:0.17;}.cls-72{fill:#d1d1d1;opacity:0.18;}.cls-73{fill:#d0d0d0;opacity:0.18;}.cls-74{fill:#cfcfcf;opacity:0.19;}.cls-75{fill:#cecece;opacity:0.19;}.cls-76{fill:#cdcdcd;opacity:0.2;}.cls-77{fill:#ccc;opacity:0.2;}.cls-78{fill:#cacaca;opacity:0.21;}.cls-79{fill:#c9c9c9;opacity:0.21;}.cls-80{fill:#c8c8c8;opacity:0.22;}.cls-81{fill:#c7c7c7;opacity:0.22;}.cls-82{fill:#c6c6c6;opacity:0.22;}.cls-83{fill:#c5c5c5;opacity:0.23;}.cls-84{fill:#c3c3c3;opacity:0.23;}.cls-85{fill:#c2c2c2;opacity:0.24;}.cls-86{fill:#c1c1c1;opacity:0.24;}.cls-87{fill:silver;opacity:0.25;}.cls-88{fill:#bfbfbf;opacity:0.25;}.cls-89{fill:#bdbdbd;opacity:0.26;}.cls-90{fill:#bcbcbc;opacity:0.26;}.cls-91{fill:#bbb;opacity:0.27;}.cls-92{fill:#bababa;opacity:0.27;}.cls-93{fill:#b9b9b9;opacity:0.28;}.cls-94{fill:#b8b8b8;opacity:0.28;}.cls-95{fill:#b6b6b6;opacity:0.28;}.cls-96{fill:#b5b5b5;opacity:0.29;}.cls-97{fill:#b4b4b4;opacity:0.29;}.cls-98{fill:#b3b3b3;opacity:0.3;}.cls-99{fill:#b2b2b2;opacity:0.3;}.cls-100{fill:#b1b1b1;opacity:0.31;}.cls-101{fill:#afafaf;opacity:0.31;}.cls-102{fill:#aeaeae;opacity:0.32;}.cls-103{fill:#adadad;opacity:0.32;}.cls-104{fill:#acacac;opacity:0.33;}.cls-105{fill:#ababab;opacity:0.33;}.cls-106{fill:#aaa;opacity:0.33;}.cls-107{fill:#a8a8a8;opacity:0.34;}.cls-108{fill:#a7a7a7;opacity:0.34;}.cls-109{fill:#a6a6a6;opacity:0.35;}.cls-110{fill:#a5a5a5;opacity:0.35;}.cls-111{fill:#a4a4a4;opacity:0.36;}.cls-112{fill:#a3a3a3;opacity:0.36;}.cls-113{fill:#a1a1a1;opacity:0.37;}.cls-114{fill:#a0a0a0;opacity:0.37;}.cls-115{fill:#9f9f9f;opacity:0.38;}.cls-116{fill:#9e9e9e;opacity:0.38;}.cls-117{fill:#9d9d9d;opacity:0.39;}.cls-118{fill:#9c9c9c;opacity:0.39;}.cls-119{fill:#9a9a9a;opacity:0.39;}.cls-120{fill:#999;opacity:0.4;}.cls-121{fill:#989898;opacity:0.4;}.cls-122{fill:#979797;opacity:0.41;}.cls-123{fill:#969696;opacity:0.41;}.cls-124{fill:#959595;opacity:0.42;}.cls-125{fill:#939393;opacity:0.42;}.cls-126{fill:#929292;opacity:0.43;}.cls-127{fill:#919191;opacity:0.43;}.cls-128{fill:#909090;opacity:0.44;}.cls-129{fill:#8f8f8f;opacity:0.44;}.cls-130{fill:#8e8e8e;opacity:0.44;}.cls-131{fill:#8c8c8c;opacity:0.45;}.cls-132{fill:#8b8b8b;opacity:0.45;}.cls-133{fill:#8a8a8a;opacity:0.46;}.cls-134{fill:#898989;opacity:0.46;}.cls-135{fill:#888;opacity:0.47;}.cls-136{fill:#878787;opacity:0.47;}.cls-137{fill:#858585;opacity:0.48;}.cls-138{fill:#848484;opacity:0.48;}.cls-139{fill:#838383;opacity:0.49;}.cls-140{fill:#828282;opacity:0.49;}.cls-141{fill:#818181;opacity:0.5;}.cls-142{fill:gray;opacity:0.5;}.cls-143{fill:#7e7e7e;opacity:0.5;}.cls-144{fill:#7d7d7d;opacity:0.51;}.cls-145{fill:#7c7c7c;opacity:0.51;}.cls-146{fill:#7b7b7b;opacity:0.52;}.cls-147{fill:#7a7a7a;opacity:0.52;}.cls-148{fill:#787878;opacity:0.53;}.cls-149{fill:#777;opacity:0.53;}.cls-150{fill:#767676;opacity:0.54;}.cls-151{fill:#757575;opacity:0.54;}.cls-152{fill:#747474;opacity:0.55;}.cls-153{fill:#737373;opacity:0.55;}.cls-154{fill:#717171;opacity:0.56;}.cls-155{fill:#707070;opacity:0.56;}.cls-156{fill:#6f6f6f;opacity:0.56;}.cls-157{fill:#6e6e6e;opacity:0.57;}.cls-158{fill:#6d6d6d;opacity:0.57;}.cls-159{fill:#6c6c6c;opacity:0.58;}.cls-160{fill:#6a6a6a;opacity:0.58;}.cls-161{fill:#696969;opacity:0.59;}.cls-162{fill:#686868;opacity:0.59;}.cls-163{fill:#676767;opacity:0.6;}.cls-164{fill:#666;opacity:0.6;}.cls-165{fill:#656565;opacity:0.61;}.cls-166{fill:#636363;opacity:0.61;}.cls-167{fill:#626262;opacity:0.61;}.cls-168{fill:#616161;opacity:0.62;}.cls-169{fill:#606060;opacity:0.62;}.cls-170{fill:#5f5f5f;opacity:0.63;}.cls-171{fill:#5e5e5e;opacity:0.63;}.cls-172{fill:#5c5c5c;opacity:0.64;}.cls-173{fill:#5b5b5b;opacity:0.64;}.cls-174{fill:#5a5a5a;opacity:0.65;}.cls-175{fill:#595959;opacity:0.65;}.cls-176{fill:#585858;opacity:0.66;}.cls-177{fill:#575757;opacity:0.66;}.cls-178{fill:#555;opacity:0.67;}.cls-179{fill:#545454;opacity:0.67;}.cls-180{fill:#535353;opacity:0.67;}.cls-181{fill:#525252;opacity:0.68;}.cls-182{fill:#515151;opacity:0.68;}.cls-183{fill:#505050;opacity:0.69;}.cls-184{fill:#4e4e4e;opacity:0.69;}.cls-185{fill:#4d4d4d;opacity:0.7;}.cls-186{fill:#4c4c4c;opacity:0.7;}.cls-187{fill:#4b4b4b;opacity:0.71;}.cls-188{fill:#4a4a4a;opacity:0.71;}.cls-189{fill:#494949;opacity:0.72;}.cls-190{fill:#474747;opacity:0.72;}.cls-191{fill:#464646;opacity:0.72;}.cls-192{fill:#454545;opacity:0.73;}.cls-193{fill:#444;opacity:0.73;}.cls-194{fill:#434343;opacity:0.74;}.cls-195{fill:#424242;opacity:0.74;}.cls-196{fill:#404040;opacity:0.75;}.cls-197{fill:#3f3f3f;opacity:0.75;}.cls-198{fill:#3e3e3e;opacity:0.76;}.cls-199{fill:#3d3d3d;opacity:0.76;}.cls-200{fill:#3c3c3c;opacity:0.77;}.cls-201{fill:#3a3a3a;opacity:0.77;}.cls-202{fill:#393939;opacity:0.78;}.cls-203{fill:#383838;opacity:0.78;}.cls-204{fill:#373737;opacity:0.78;}.cls-205{fill:#363636;opacity:0.79;}.cls-206{fill:#353535;opacity:0.79;}.cls-207{fill:#333;opacity:0.8;}.cls-208{fill:#323232;opacity:0.8;}.cls-209{fill:#313131;opacity:0.81;}.cls-210{fill:#303030;opacity:0.81;}.cls-211{fill:#2f2f2f;opacity:0.82;}.cls-212{fill:#2e2e2e;opacity:0.82;}.cls-213{fill:#2c2c2c;opacity:0.83;}.cls-214{fill:#2b2b2b;opacity:0.83;}.cls-215{fill:#2a2a2a;opacity:0.83;}.cls-216{fill:#292929;opacity:0.84;}.cls-217{fill:#282828;opacity:0.84;}.cls-218{fill:#272727;opacity:0.85;}.cls-219{fill:#252525;opacity:0.85;}.cls-220{fill:#242424;opacity:0.86;}.cls-221{fill:#232323;opacity:0.86;}.cls-222{fill:#222;opacity:0.87;}.cls-223{fill:#212121;opacity:0.87;}.cls-224{fill:#202020;opacity:0.88;}.cls-225{fill:#1e1e1e;opacity:0.88;}.cls-226{fill:#1d1d1d;opacity:0.89;}.cls-227{fill:#1c1c1c;opacity:0.89;}.cls-228{fill:#1b1b1b;opacity:0.89;}.cls-229{fill:#1a1a1a;opacity:0.9;}.cls-230{fill:#191919;opacity:0.9;}.cls-231{fill:#171717;opacity:0.91;}.cls-232{fill:#161616;opacity:0.91;}.cls-233{fill:#151515;opacity:0.92;}.cls-234{fill:#141414;opacity:0.92;}.cls-235{fill:#131313;opacity:0.93;}.cls-236{fill:#121212;opacity:0.93;}.cls-237{fill:#101010;opacity:0.94;}.cls-238{fill:#0f0f0f;opacity:0.94;}.cls-239{fill:#0e0e0e;opacity:0.94;}.cls-240{fill:#0d0d0d;opacity:0.95;}.cls-241{fill:#0c0c0c;opacity:0.95;}.cls-242{fill:#0b0b0b;opacity:0.96;}.cls-243{fill:#090909;opacity:0.96;}.cls-244{fill:#080808;opacity:0.97;}.cls-245{fill:#070707;opacity:0.97;}.cls-246{fill:#060606;opacity:0.98;}.cls-247{fill:#050505;opacity:0.98;}.cls-248{fill:#040404;opacity:0.99;}.cls-249{fill:#020202;opacity:0.99;}.cls-250{fill:#010101;opacity:1;}.cls-251{clip-path:url(#clip-path);}.cls-252{fill:url(#linear-gradient-25);}.cls-253{fill:url(#linear-gradient-26);}.cls-254,.cls-304,.cls-306,.cls-308{mix-blend-mode:screen;}.cls-254{fill:url(#linear-gradient-27);}.cls-255{fill:url(#linear-gradient-28);}.cls-256{fill:url(#linear-gradient-29);}.cls-258{opacity:0.85;}.cls-259{fill:url(#linear-gradient-30);}.cls-260{fill:url(#linear-gradient-31);}.cls-261{fill:url(#linear-gradient-32);}.cls-262{fill:url(#linear-gradient-33);}.cls-263{fill:url(#linear-gradient-34);}.cls-264{fill:url(#linear-gradient-35);}.cls-265{fill:url(#linear-gradient-36);}.cls-266{fill:url(#linear-gradient-37);}.cls-267{fill:url(#linear-gradient-38);}.cls-268{fill:url(#linear-gradient-39);}.cls-269{fill:url(#linear-gradient-40);}.cls-270{fill:url(#linear-gradient-41);}.cls-271{fill:url(#linear-gradient-42);}.cls-272{fill:url(#linear-gradient-43);}.cls-273{fill:url(#linear-gradient-44);}.cls-274{fill:url(#linear-gradient-45);}.cls-275{fill:url(#linear-gradient-46);}.cls-276{fill:url(#linear-gradient-47);}.cls-277{fill:url(#linear-gradient-48);}.cls-278{fill:url(#linear-gradient-49);}.cls-279{fill:url(#linear-gradient-50);}.cls-280{fill:url(#linear-gradient-51);}.cls-281{fill:url(#linear-gradient-52);}.cls-282{fill:url(#linear-gradient-53);}.cls-283{fill:url(#linear-gradient-54);}.cls-284{fill:url(#linear-gradient-55);}.cls-285{fill:url(#linear-gradient-56);}.cls-286{fill:url(#linear-gradient-57);}.cls-287{fill:url(#linear-gradient-58);}.cls-288{fill:url(#linear-gradient-59);}.cls-289{fill:url(#linear-gradient-60);}.cls-290{fill:url(#linear-gradient-61);}.cls-291{fill:url(#linear-gradient-62);}.cls-292{fill:url(#linear-gradient-63);}.cls-293{fill:url(#linear-gradient-64);}.cls-294{fill:url(#linear-gradient-65);}.cls-295{fill:url(#linear-gradient-66);}.cls-296{fill:url(#linear-gradient-67);}.cls-297{fill:url(#linear-gradient-68);}.cls-298{fill:url(#linear-gradient-69);}.cls-299{fill:url(#linear-gradient-70);}.cls-300{fill:url(#linear-gradient-71);}.cls-301{fill:url(#linear-gradient-72);}.cls-302{fill:url(#radial-gradient-4);}.cls-303{mask:url(#mask);}.cls-304{fill:url(#radial-gradient-5);}.cls-305{mask:url(#mask-2);}.cls-306{fill:url(#radial-gradient-6);}.cls-307{mask:url(#mask-3);}.cls-308{fill:url(#radial-gradient-7);}.cls-309{fill:url(#linear-gradient-116);}.cls-310{fill:url(#linear-gradient-117);}.cls-311{mix-blend-mode:overlay;fill:url(#radial-gradient-8);}</style><radialGradient id="radial-gradient" cx="861.15" cy="-53.81" r="10.38" gradientTransform="matrix(0.15, -0.28, 0.61, 0.32, -71.38, 268.13)" gradientUnits="userSpaceOnUse"><stop offset="0" stop-color="#fff"/><stop offset="0.14" stop-color="#e2e2e2"/><stop offset="0.43" stop-color="#999"/><stop offset="0.87" stop-color="#262626"/><stop offset="1"/></radialGradient><radialGradient id="radial-gradient-2" cx="263.91" cy="-138.93" r="4.71" gradientTransform="matrix(0.44, 0.23, -0.25, 0.5, -130.7, 16.95)" gradientUnits="userSpaceOnUse"><stop offset="0" stop-color="#fff"/><stop offset="0.21" stop-color="#c4c4c4"/><stop offset="0.6" stop-color="#5c5c5c"/><stop offset="0.87" stop-color="#1a1a1a"/><stop offset="1"/></radialGradient><radialGradient id="radial-gradient-3" cx="599.98" cy="-226.59" r="7.02" gradientTransform="matrix(0.17, -0.27, 0.5, 0.31, 24.55, 254.11)" xlink:href="#radial-gradient"/><linearGradient id="linear-gradient" x1="5.66" y1="4.9" x2="-1.15" y2="15.99" gradientTransform="translate(7.91 17.22) rotate(7.33)" gradientUnits="userSpaceOnUse"><stop offset="0" stop-color="#3ca6da"/><stop offset="0.55" stop-color="#0674b3"/><stop offset="0.72" stop-color="#056faf"/><stop offset="0.9" stop-color="#0262a2"/><stop offset="1" stop-color="#005898"/></linearGradient><linearGradient id="linear-gradient-2" x1="11.88" y1="23.55" x2="5.87" y2="31.45" gradientUnits="userSpaceOnUse"><stop offset="0" stop-color="#f0e8e5"/><stop offset="0.44" stop-color="#ede3df"/><stop offset="1" stop-color="#e3d5cf"/></linearGradient><linearGradient id="linear-gradient-3" x1="-291.95" y1="43.16" x2="-298.77" y2="54.25" gradientTransform="matrix(-0.99, 0.13, 0.13, 0.99, -273.96, 17.22)" xlink:href="#linear-gradient"/><linearGradient id="linear-gradient-4" x1="-288.17" y1="23.55" x2="-294.18" y2="31.45" gradientTransform="matrix(-1, 0, 0, 1, -266.05, 0)" xlink:href="#linear-gradient-2"/><linearGradient id="linear-gradient-5" x1="-85.38" y1="108.63" x2="-81.44" y2="108.63" gradientTransform="translate(-103.88 -68.22) rotate(-90)" gradientUnits="userSpaceOnUse"><stop offset="0.17" stop-color="#3ca6da"/><stop offset="0.38" stop-color="#1c7cb7"/><stop offset="0.57" stop-color="#005898"/></linearGradient><linearGradient id="linear-gradient-6" x1="-46.95" y1="92.77" x2="-43.01" y2="92.77" gradientTransform="translate(-69.01 -60.12) rotate(-72)" xlink:href="#linear-gradient-5"/><linearGradient id="linear-gradient-7" x1="-14.02" y1="65.62" x2="-10.07" y2="65.62" gradientTransform="translate(-38.95 -40.48) rotate(-54)" xlink:href="#linear-gradient-5"/><linearGradient id="linear-gradient-8" x1="-239.71" y1="-19.14" x2="-235.77" y2="-19.14" gradientTransform="translate(-178.93 149.35) rotate(144)" xlink:href="#linear-gradient-5"/><linearGradient id="linear-gradient-9" x1="7.86" y1="30.29" x2="11.8" y2="30.29" gradientTransform="translate(-15.96 -13.67) rotate(-36)" xlink:href="#linear-gradient-5"/><linearGradient id="linear-gradient-10" x1="-249.73" y1="20.93" x2="-245.79" y2="20.93" gradientTransform="translate(-207.99 123.36) rotate(162)" xlink:href="#linear-gradient-5"/><linearGradient id="linear-gradient-11" x1="18.07" y1="-11.29" x2="22.01" y2="-11.29" gradientTransform="translate(-2.32 20.17) rotate(-18)" xlink:href="#linear-gradient-5"/><linearGradient id="linear-gradient-12" x1="-246.7" y1="63.4" x2="-242.76" y2="63.4" gradientTransform="translate(-227.39 90.95) rotate(180)" xlink:href="#linear-gradient-5"/><linearGradient id="linear-gradient-13" x1="15.13" y1="-52.69" x2="19.07" y2="-52.69" gradientTransform="translate(0 55.29)" xlink:href="#linear-gradient-5"/><linearGradient id="linear-gradient-14" x1="-231.43" y1="102.31" x2="-227.49" y2="102.31" gradientTransform="translate(-236.37 53.37) rotate(-162)" xlink:href="#linear-gradient-5"/><linearGradient id="linear-gradient-15" x1="-1.21" y1="-91.71" x2="2.74" y2="-91.71" gradientTransform="translate(-8.1 90.16) rotate(18)" xlink:href="#linear-gradient-5"/><linearGradient id="linear-gradient-16" x1="-203.61" y1="134.42" x2="-199.66" y2="134.42" gradientTransform="translate(-232.15 15.46) rotate(-144)" xlink:href="#linear-gradient-5"/><linearGradient id="linear-gradient-17" x1="-27.52" y1="-123.97" x2="-23.58" y2="-123.97" gradientTransform="translate(-27.74 120.22) rotate(36)" xlink:href="#linear-gradient-5"/><linearGradient id="linear-gradient-18" x1="-104.3" y1="-156.72" x2="-100.35" y2="-156.72" gradientTransform="translate(-88.39 156.85) rotate(72)" xlink:href="#linear-gradient-5"/><linearGradient id="linear-gradient-19" x1="-168.28" y1="157" x2="-164.34" y2="157" gradientTransform="translate(-217.57 -19.76) rotate(-126)" xlink:href="#linear-gradient-5"/><linearGradient id="linear-gradient-20" x1="-146.19" y1="-97.92" x2="-142.25" y2="-97.92" gradientTransform="translate(-68.22 159.17) rotate(90)" xlink:href="#linear-gradient-5"/><linearGradient id="linear-gradient-21" x1="-63.57" y1="-145.86" x2="-59.62" y2="-145.86" gradientTransform="translate(-54.55 143.21) rotate(54)" xlink:href="#linear-gradient-5"/><linearGradient id="linear-gradient-22" x1="-185.68" y1="-82.17" x2="-181.74" y2="-82.17" gradientTransform="translate(-105.8 168.15) rotate(108)" xlink:href="#linear-gradient-5"/><linearGradient id="linear-gradient-23" x1="-127.37" y1="166.37" x2="-123.43" y2="166.37" gradientTransform="translate(-191.58 -48.82) rotate(-108)" xlink:href="#linear-gradient-5"/><linearGradient id="linear-gradient-24" x1="-217.12" y1="-55.18" x2="-213.17" y2="-55.18" gradientTransform="translate(-143.71 163.93) rotate(126)" xlink:href="#linear-gradient-5"/><clipPath id="clip-path"><circle class="cls-4" cx="17" cy="15.25" r="11.05"/></clipPath><linearGradient id="linear-gradient-25" x1="24.7" y1="7.58" x2="8.99" y2="23.23" gradientUnits="userSpaceOnUse"><stop offset="0.05" stop-color="#eeeff4"/><stop offset="0.1" stop-color="#c4c3c9"/><stop offset="0.31" stop-color="#e5e5e8"/><stop offset="0.5" stop-color="#c2c3ca"/><stop offset="0.69" stop-color="#dbdcde"/><stop offset="0.84" stop-color="#dde0e5"/><stop offset="0.92" stop-color="#e0e3e8"/><stop offset="0.98" stop-color="#e9ebf0"/><stop offset="1" stop-color="#eeeff4"/></linearGradient><linearGradient id="linear-gradient-26" x1="24.39" y1="6.94" x2="9.7" y2="23.46" gradientUnits="userSpaceOnUse"><stop offset="0.05" stop-color="#eeeff4"/><stop offset="0.31" stop-color="#e5e5e8"/><stop offset="1" stop-color="#eeeff4"/></linearGradient><linearGradient id="linear-gradient-27" x1="23.74" y1="9.8" x2="10.24" y2="20.7" gradientTransform="translate(29.32 -3.98) rotate(80.76)" gradientUnits="userSpaceOnUse"><stop offset="0.48" stop-color="#cc9434"/><stop offset="0.68" stop-color="#ffea72"/><stop offset="0.76" stop-color="#ffe76c"/><stop offset="0.87" stop-color="#ffde5c"/><stop offset="0.96" stop-color="#ffd44a"/></linearGradient><linearGradient id="linear-gradient-28" x1="22.85" y1="8.43" x2="11.37" y2="21.82" gradientTransform="translate(29.32 -3.98) rotate(80.76)" xlink:href="#linear-gradient-26"/><linearGradient id="linear-gradient-29" x1="21.91" y1="11.22" x2="9.61" y2="21.31" gradientUnits="userSpaceOnUse"><stop offset="0" stop-color="#eeeff4"/><stop offset="0.26" stop-color="#c4c3c9"/><stop offset="0.65" stop-color="#eeeef0"/><stop offset="0.95" stop-color="#dddde2"/></linearGradient><linearGradient id="linear-gradient-30" x1="23.67" y1="16.01" x2="24.18" y2="16.01" gradientUnits="userSpaceOnUse"><stop offset="0" stop-color="#ebece8"/><stop offset="1" stop-color="#444"/></linearGradient><linearGradient id="linear-gradient-31" x1="23.48" y1="17.01" x2="23.99" y2="17.01" xlink:href="#linear-gradient-30"/><linearGradient id="linear-gradient-32" x1="23.16" y1="17.97" x2="23.67" y2="17.97" xlink:href="#linear-gradient-30"/><linearGradient id="linear-gradient-33" x1="22.69" y1="18.88" x2="23.2" y2="18.88" xlink:href="#linear-gradient-30"/><linearGradient id="linear-gradient-34" x1="22.1" y1="19.7" x2="22.61" y2="19.7" xlink:href="#linear-gradient-30"/><linearGradient id="linear-gradient-35" x1="21.4" y1="20.43" x2="21.9" y2="20.43" xlink:href="#linear-gradient-30"/><linearGradient id="linear-gradient-36" x1="20.59" y1="21.06" x2="21.1" y2="21.06" xlink:href="#linear-gradient-30"/><linearGradient id="linear-gradient-37" x1="19.71" y1="21.55" x2="20.21" y2="21.55" xlink:href="#linear-gradient-30"/><linearGradient id="linear-gradient-38" x1="18.75" y1="21.92" x2="19.26" y2="21.92" xlink:href="#linear-gradient-30"/><linearGradient id="linear-gradient-39" x1="17.76" y1="22.13" x2="18.27" y2="22.13" xlink:href="#linear-gradient-30"/><linearGradient id="linear-gradient-40" x1="16.75" y1="22.21" x2="17.26" y2="22.21" xlink:href="#linear-gradient-30"/><linearGradient id="linear-gradient-41" x1="15.73" y1="22.13" x2="16.24" y2="22.13" xlink:href="#linear-gradient-30"/><linearGradient id="linear-gradient-42" x1="14.74" y1="21.92" x2="15.25" y2="21.92" xlink:href="#linear-gradient-30"/><linearGradient id="linear-gradient-43" x1="13.79" y1="21.55" x2="14.3" y2="21.55" xlink:href="#linear-gradient-30"/><linearGradient id="linear-gradient-44" x1="12.9" y1="21.06" x2="13.41" y2="21.06" xlink:href="#linear-gradient-30"/><linearGradient id="linear-gradient-45" x1="12.1" y1="20.43" x2="12.61" y2="20.43" xlink:href="#linear-gradient-30"/><linearGradient id="linear-gradient-46" x1="11.39" y1="19.7" x2="11.9" y2="19.7" xlink:href="#linear-gradient-30"/><linearGradient id="linear-gradient-47" x1="10.8" y1="18.88" x2="11.31" y2="18.88" xlink:href="#linear-gradient-30"/><linearGradient id="linear-gradient-48" x1="10.34" y1="17.97" x2="10.85" y2="17.97" xlink:href="#linear-gradient-30"/><linearGradient id="linear-gradient-49" x1="10.01" y1="17.01" x2="10.52" y2="17.01" xlink:href="#linear-gradient-30"/><linearGradient id="linear-gradient-50" x1="9.82" y1="16.01" x2="10.33" y2="16.01" xlink:href="#linear-gradient-30"/><linearGradient id="linear-gradient-51" x1="9.79" y1="14.99" x2="10.3" y2="14.99" xlink:href="#linear-gradient-30"/><linearGradient id="linear-gradient-52" x1="9.9" y1="13.98" x2="10.41" y2="13.98" xlink:href="#linear-gradient-30"/><linearGradient id="linear-gradient-53" x1="10.15" y1="13" x2="10.67" y2="13" xlink:href="#linear-gradient-30"/><linearGradient id="linear-gradient-54" x1="10.56" y1="12.06" x2="11.06" y2="12.06" xlink:href="#linear-gradient-30"/><linearGradient id="linear-gradient-55" x1="11.08" y1="11.19" x2="11.59" y2="11.19" xlink:href="#linear-gradient-30"/><linearGradient id="linear-gradient-56" x1="11.74" y1="10.41" x2="12.24" y2="10.41" xlink:href="#linear-gradient-30"/><linearGradient id="linear-gradient-57" x1="12.49" y1="9.73" x2="13" y2="9.73" xlink:href="#linear-gradient-30"/><linearGradient id="linear-gradient-58" x1="13.34" y1="9.17" x2="13.85" y2="9.17" xlink:href="#linear-gradient-30"/><linearGradient id="linear-gradient-59" x1="14.26" y1="8.74" x2="14.77" y2="8.74" xlink:href="#linear-gradient-30"/><linearGradient id="linear-gradient-60" x1="15.23" y1="8.45" x2="15.74" y2="8.45" xlink:href="#linear-gradient-30"/><linearGradient id="linear-gradient-61" x1="16.24" y1="8.3" x2="16.75" y2="8.3" xlink:href="#linear-gradient-30"/><linearGradient id="linear-gradient-62" x1="17.26" y1="8.3" x2="17.77" y2="8.3" xlink:href="#linear-gradient-30"/><linearGradient id="linear-gradient-63" x1="18.26" y1="8.45" x2="18.77" y2="8.45" xlink:href="#linear-gradient-30"/><linearGradient id="linear-gradient-64" x1="19.24" y1="8.74" x2="19.75" y2="8.74" xlink:href="#linear-gradient-30"/><linearGradient id="linear-gradient-65" x1="20.16" y1="9.17" x2="20.66" y2="9.17" xlink:href="#linear-gradient-30"/><linearGradient id="linear-gradient-66" x1="21" y1="9.73" x2="21.52" y2="9.73" xlink:href="#linear-gradient-30"/><linearGradient id="linear-gradient-67" x1="21.76" y1="10.41" x2="22.27" y2="10.41" xlink:href="#linear-gradient-30"/><linearGradient id="linear-gradient-68" x1="22.41" y1="11.19" x2="22.92" y2="11.19" xlink:href="#linear-gradient-30"/><linearGradient id="linear-gradient-69" x1="22.94" y1="12.06" x2="23.45" y2="12.06" xlink:href="#linear-gradient-30"/><linearGradient id="linear-gradient-70" x1="23.34" y1="13" x2="23.85" y2="13" xlink:href="#linear-gradient-30"/><linearGradient id="linear-gradient-71" x1="23.6" y1="13.98" x2="24.1" y2="13.98" xlink:href="#linear-gradient-30"/><linearGradient id="linear-gradient-72" x1="23.7" y1="14.99" x2="24.21" y2="14.99" xlink:href="#linear-gradient-30"/><radialGradient id="radial-gradient-4" cx="-9.13" cy="33.57" r="19.68" gradientTransform="translate(21.57 -1.54) scale(0.5)" gradientUnits="userSpaceOnUse"><stop offset="0.57" stop-color="#cbd2d6"/><stop offset="0.97" stop-color="#5c707e"/></radialGradient><mask id="mask" x="15.53" y="4.05" width="13.03" height="8.81" maskUnits="userSpaceOnUse"><path class="cls-1" d="M23.57,5.53c3.5,1.82,5.65,4.61,4.81,6.22S24,13.2,20.52,11.38s-5.65-4.61-4.81-6.22S20.07,3.71,23.57,5.53Z"/></mask><radialGradient id="radial-gradient-5" cx="861.15" cy="-53.81" r="10.38" gradientTransform="matrix(0.15, -0.28, 0.61, 0.32, -71.38, 268.13)" gradientUnits="userSpaceOnUse"><stop offset="0" stop-color="#ebeae6"/><stop offset="1"/></radialGradient><mask id="mask-2" x="19.57" y="5.97" width="4.95" height="4.97" maskUnits="userSpaceOnUse"><path class="cls-2" d="M24.24,9.58a2.47,2.47,0,1,1-1.06-3.34A2.47,2.47,0,0,1,24.24,9.58Z"/></mask><radialGradient id="radial-gradient-6" cx="263.91" cy="-138.93" r="4.71" gradientTransform="matrix(0.44, 0.23, -0.25, 0.5, -130.7, 16.95)" gradientUnits="userSpaceOnUse"><stop offset="0" stop-color="#fff9ef"/><stop offset="0.13" stop-color="#e5e0d7"/><stop offset="0.4" stop-color="#a3a099"/><stop offset="0.79" stop-color="#3b3a37"/><stop offset="1"/></radialGradient><mask id="mask-3" x="7.63" y="18.76" width="7.43" height="5.78" maskUnits="userSpaceOnUse"><path class="cls-3" d="M12.52,19.76c1.94,1.2,3,3,2.35,4.08s-2.76.91-4.7-.3-3-3-2.35-4.07S10.58,18.55,12.52,19.76Z"/></mask><radialGradient id="radial-gradient-7" cx="599.98" cy="-226.59" r="7.02" gradientTransform="matrix(0.17, -0.27, 0.5, 0.31, 24.55, 254.11)" xlink:href="#radial-gradient-5"/><linearGradient id="linear-gradient-116" x1="14.68" y1="16.44" x2="20.57" y2="13.66" gradientUnits="userSpaceOnUse"><stop offset="0" stop-color="#9b9ba7"/><stop offset="0.65" stop-color="#eeeef0"/><stop offset="0.95" stop-color="#dddde2"/></linearGradient><linearGradient id="linear-gradient-117" x1="17.27" y1="11.52" x2="17.27" y2="18.08" gradientUnits="userSpaceOnUse"><stop offset="0.05" stop-color="#eeeff4"/><stop offset="0.17" stop-color="#e5e5e8"/><stop offset="0.25" stop-color="#c8c8ce"/><stop offset="0.33" stop-color="#afafb9"/><stop offset="0.41" stop-color="#a0a0ac"/><stop offset="0.47" stop-color="#9b9ba7"/><stop offset="0.65" stop-color="#707081"/><stop offset="0.79" stop-color="#bebec5"/><stop offset="0.81" stop-color="#c9c9d0"/><stop offset="0.85" stop-color="#d3d3da"/><stop offset="0.88" stop-color="#d7d7de"/><stop offset="0.91" stop-color="#e3e4e9"/><stop offset="0.95" stop-color="#ebecf2"/><stop offset="1" stop-color="#eeeff4"/></linearGradient><radialGradient id="radial-gradient-8" cx="-9.13" cy="40.02" r="35.5" gradientTransform="translate(21.57 -1.54) scale(0.5)" gradientUnits="userSpaceOnUse"><stop offset="0" stop-color="#ececbb"/><stop offset="1" stop-color="#784f58"/></radialGradient></defs><g class="cls-5"><g id="Layer_2" data-name="Layer 2"><g id="Layer_1-2" data-name="Layer 1"><path class="cls-6" d="M7.77,20.7S1.06,25.9,0,32.36c0,0,5-.67,5.94-.66,0,0,1.47,3.66,3.14,5.24,0,0,4.09-9.26,7.7-11.69C16.78,25.25,8.15,20.4,7.77,20.7Z"/><path class="cls-7" d="M2.62,32c1.43-.17,2.81-.32,3.32-.32a25.39,25.39,0,0,0,1.45,3c.52-1.15,1.58-3.4,2.16-4.32a38.32,38.32,0,0,1,4.31-5.6c-1.14-.85-3.13-1.94-4.27-2.71a21.65,21.65,0,0,0-2.78,3A24,24,0,0,0,2.62,32Z"/><path class="cls-8" d="M26.23,20.7S33,25.9,34,32.36c0,0-5-.67-5.94-.66,0,0-1.46,3.66-3.14,5.24,0,0-4.09-9.26-7.7-11.69C17.22,25.25,25.86,20.4,26.23,20.7Z"/><path class="cls-9" d="M31.38,32c-1.43-.17-2.81-.32-3.32-.32a25.39,25.39,0,0,1-1.45,3c-.52-1.15-1.58-3.4-2.16-4.32a38.52,38.52,0,0,0-4.3-5.6c1.14-.85,3.12-1.94,4.27-2.71a22.28,22.28,0,0,1,2.78,3A24,24,0,0,1,31.38,32Z"/><path class="cls-10" d="M12.53,26.48l-.85-.39c-.25-.12-.27,0-.42.25L9.71,24.91a9.89,9.89,0,0,1-1.3-1.2h0c-.05-.05-.31.21-.34.23L6.74,21.58c-.46.41-.9.84-1.33,1.29h0a28,28,0,0,0-1.95,2.25c.25.59.71,1.51,1.45,1.11A18.85,18.85,0,0,0,7.15,24.7a4,4,0,0,0-.53,1.74h0A3.36,3.36,0,0,0,7,28.08H7c.27.53,1.43,2.37,2.25,1.73a11.06,11.06,0,0,0,1.79-2.28,3.79,3.79,0,0,0,.08,1.95,2.68,2.68,0,0,0,.83,1.3l.21.2c.3-.49.6-1,.91-1.47s.65-1.06,1-1.57h0c.12-.19.26-.38.39-.57Z"/><path class="cls-10" d="M21.49,26.48l.85-.39c.26-.12.27,0,.42.25l1.55-1.43a9.89,9.89,0,0,0,1.3-1.2h0c.06-.05.31.21.34.23l1.33-2.36c.46.41.9.84,1.33,1.29h0a26.14,26.14,0,0,1,1.95,2.25c-.25.59-.71,1.51-1.45,1.11a18.73,18.73,0,0,1-2.23-1.53,4,4,0,0,1,.52,1.74h0A3.35,3.35,0,0,1,27,28.08h0c-.27.53-1.44,2.37-2.25,1.73A10.77,10.77,0,0,1,23,27.53a3.69,3.69,0,0,1-.08,1.95,2.68,2.68,0,0,1-.83,1.3,2,2,0,0,1-.21.2c-.29-.49-.6-1-.91-1.47s-.65-1.06-1-1.57h0l-.4-.57Z"/><path class="cls-11" d="M7.35,13.41A6,6,0,0,0,6,13.13a3.81,3.81,0,0,0-2.52.49,3.38,3.38,0,0,0-1.32,2.49.81.81,0,0,0,.3.82,27.18,27.18,0,0,0,3.92.1h.55Z"/><path class="cls-12" d="M3.48,13.62a2.52,2.52,0,0,0-.89,1A8.84,8.84,0,0,1,7.17,15c.09-.81.18-1.55.18-1.55A6,6,0,0,0,6,13.13,3.81,3.81,0,0,0,3.48,13.62Z"/><path class="cls-13" d="M8.34,10.44c0-.09-1.11-.65-1.19-.69A3.88,3.88,0,0,0,4.6,9.44a3.4,3.4,0,0,0-2,2,.82.82,0,0,0,0,.88,27.1,27.1,0,0,0,3.7,1.3l.51.17Z"/><path class="cls-12" d="M4.6,9.44a2.76,2.76,0,0,0-1.17.71,8.81,8.81,0,0,1,4.26,1.71l.65-1.42c0-.09-1.11-.65-1.19-.69A3.88,3.88,0,0,0,4.6,9.44Z"/><path class="cls-14" d="M10.21,7.92c.07-.07-.86-1-.92-1A3.86,3.86,0,0,0,7,5.82,3.39,3.39,0,0,0,4.43,7.05a.84.84,0,0,0-.24.85A27.27,27.27,0,0,0,7.3,10.28l.44.32Z"/><path class="cls-12" d="M7,5.82a2.64,2.64,0,0,0-1.33.31A8.84,8.84,0,0,1,9.15,9.07l1.06-1.15c.07-.07-.86-1-.92-1A3.86,3.86,0,0,0,7,5.82Z"/><path class="cls-15" d="M21.68,24a6,6,0,0,0,.57,1.26,3.88,3.88,0,0,0,1.87,1.75,3.44,3.44,0,0,0,2.79-.4.85.85,0,0,0,.5-.73,28.35,28.35,0,0,0-2.23-3.23s-.31-.44-.32-.44Z"/><path class="cls-12" d="M24.12,27.05a2.78,2.78,0,0,0,1.37.11A8.8,8.8,0,0,1,23,23.27L21.68,24a6,6,0,0,0,.57,1.26A3.88,3.88,0,0,0,24.12,27.05Z"/><path class="cls-16" d="M12.77,6.1a6.51,6.51,0,0,0-.57-1.25A3.85,3.85,0,0,0,10.32,3.1a3.41,3.41,0,0,0-2.79.39A.82.82,0,0,0,7,4.22,27.5,27.5,0,0,0,9.27,7.45s.31.45.32.44Z"/><path class="cls-12" d="M10.32,3.1A2.63,2.63,0,0,0,9,3,8.84,8.84,0,0,1,11.4,6.87l1.37-.77a6.51,6.51,0,0,0-.57-1.25A3.85,3.85,0,0,0,10.32,3.1Z"/><path class="cls-17" d="M18.69,25a6.17,6.17,0,0,0,.15,1.37,3.86,3.86,0,0,0,1.24,2.24,3.41,3.41,0,0,0,2.78.49.84.84,0,0,0,.69-.54,26.91,26.91,0,0,0-1.12-3.76s-.16-.52-.17-.52Z"/><path class="cls-12" d="M20.08,28.59a2.64,2.64,0,0,0,1.27.53,8.75,8.75,0,0,1-1.13-4.45L18.69,25a6.17,6.17,0,0,0,.15,1.37A3.86,3.86,0,0,0,20.08,28.59Z"/><path class="cls-18" d="M15.76,5.16A6.19,6.19,0,0,0,15.6,3.8a3.83,3.83,0,0,0-1.24-2.25,3.38,3.38,0,0,0-2.77-.48.8.8,0,0,0-.7.54A27.73,27.73,0,0,0,12,5.37s.16.52.17.51Z"/><path class="cls-12" d="M14.36,1.55A2.71,2.71,0,0,0,13.1,1a8.87,8.87,0,0,1,1.12,4.45l1.54-.31A6.19,6.19,0,0,0,15.6,3.8,3.83,3.83,0,0,0,14.36,1.55Z"/><path class="cls-19" d="M15.56,25a5.85,5.85,0,0,0-.28,1.35,3.82,3.82,0,0,0,.49,2.52,3.42,3.42,0,0,0,2.49,1.32.83.83,0,0,0,.82-.3,27.33,27.33,0,0,0,.1-3.93s0-.54,0-.54Z"/><path class="cls-12" d="M15.77,28.82a2.68,2.68,0,0,0,1,.89,8.84,8.84,0,0,1,.31-4.58L15.56,25a5.85,5.85,0,0,0-.28,1.35A3.82,3.82,0,0,0,15.77,28.82Z"/><path class="cls-20" d="M18.89,5.2a6.57,6.57,0,0,0,.28-1.35,3.87,3.87,0,0,0-.49-2.52A3.38,3.38,0,0,0,16.19,0a.82.82,0,0,0-.83.3,27.34,27.34,0,0,0-.09,3.92s0,.54,0,.55Z"/><path class="cls-12" d="M18.68,1.33a2.63,2.63,0,0,0-1-.89A8.74,8.74,0,0,1,17.33,5l1.56.18a6.57,6.57,0,0,0,.28-1.35A3.87,3.87,0,0,0,18.68,1.33Z"/><path class="cls-21" d="M12.59,24a6.2,6.2,0,0,0-.69,1.2,3.85,3.85,0,0,0-.31,2.54,3.44,3.44,0,0,0,2,2,.84.84,0,0,0,.88,0,28.1,28.1,0,0,0,1.3-3.7s.18-.52.17-.52Z"/><path class="cls-12" d="M11.59,27.69a2.7,2.7,0,0,0,.71,1.17A8.85,8.85,0,0,1,14,24.6L12.59,24a6.2,6.2,0,0,0-.69,1.2A3.85,3.85,0,0,0,11.59,27.69Z"/><path class="cls-22" d="M21.86,6.19A5.62,5.62,0,0,0,22.54,5a3.82,3.82,0,0,0,.31-2.55,3.35,3.35,0,0,0-2-2,.82.82,0,0,0-.88,0,25.76,25.76,0,0,0-1.31,3.7l-.17.52Z"/><path class="cls-12" d="M22.85,2.45a2.64,2.64,0,0,0-.7-1.17,8.81,8.81,0,0,1-1.71,4.26l1.42.65A5.62,5.62,0,0,0,22.54,5,3.82,3.82,0,0,0,22.85,2.45Z"/><path class="cls-23" d="M10.07,22.08c-.07-.06-1,.87-1,.93A3.81,3.81,0,0,0,8,25.33,3.43,3.43,0,0,0,9.2,27.87a.84.84,0,0,0,.85.24A26.59,26.59,0,0,0,12.43,25a5.36,5.36,0,0,0,.32-.44Z"/><path class="cls-12" d="M8,25.33a2.67,2.67,0,0,0,.31,1.34,8.8,8.8,0,0,1,2.94-3.53l-1.15-1.06c-.07-.06-1,.87-1,.93A3.81,3.81,0,0,0,8,25.33Z"/><path class="cls-24" d="M24.38,8.06c.07.07,1-.86,1-.92a3.91,3.91,0,0,0,1.08-2.33,3.4,3.4,0,0,0-1.24-2.53A.82.82,0,0,0,24.4,2,27.27,27.27,0,0,0,22,5.15l-.32.44Z"/><path class="cls-12" d="M26.48,4.81a2.74,2.74,0,0,0-.31-1.33,8.79,8.79,0,0,1-3,3.52l1.16,1.06c.07.07,1-.86,1-.92A3.91,3.91,0,0,0,26.48,4.81Z"/><path class="cls-25" d="M27.13,13.61a6.21,6.21,0,0,0,1.37-.16,3.81,3.81,0,0,0,2.24-1.24,3.39,3.39,0,0,0,.49-2.77.84.84,0,0,0-.54-.7,26.91,26.91,0,0,0-3.76,1.12l-.52.17Z"/><path class="cls-12" d="M30.74,12.21A2.61,2.61,0,0,0,31.27,11a8.84,8.84,0,0,1-4.45,1.12l.31,1.54a6.21,6.21,0,0,0,1.37-.16A3.81,3.81,0,0,0,30.74,12.21Z"/><path class="cls-26" d="M8.25,19.53A6,6,0,0,0,7,20.1,3.83,3.83,0,0,0,5.25,22a3.39,3.39,0,0,0,.39,2.79.85.85,0,0,0,.73.5A27.5,27.5,0,0,0,9.6,23s.45-.31.44-.32Z"/><path class="cls-12" d="M5.25,22a2.67,2.67,0,0,0-.12,1.37A8.86,8.86,0,0,1,9,20.89l-.77-1.36A6,6,0,0,0,7,20.1,3.83,3.83,0,0,0,5.25,22Z"/><path class="cls-27" d="M27.1,16.74a6.43,6.43,0,0,0,1.35.28A3.85,3.85,0,0,0,31,16.53,3.4,3.4,0,0,0,32.29,14a.84.84,0,0,0-.3-.83,27.44,27.44,0,0,0-3.93-.09h-.54Z"/><path class="cls-12" d="M31,16.53a2.65,2.65,0,0,0,.9-1,8.73,8.73,0,0,1-4.58-.31c-.09.82-.18,1.56-.18,1.56a6.43,6.43,0,0,0,1.35.28A3.85,3.85,0,0,0,31,16.53Z"/><path class="cls-28" d="M26.19,10.62a6.58,6.58,0,0,0,1.26-.57A3.9,3.9,0,0,0,29.2,8.17a3.45,3.45,0,0,0-.4-2.79.82.82,0,0,0-.73-.49,28.35,28.35,0,0,0-3.23,2.23s-.44.31-.44.32Z"/><path class="cls-12" d="M29.2,8.17a2.74,2.74,0,0,0,.11-1.36,8.78,8.78,0,0,1-3.89,2.44c.41.71.77,1.37.77,1.37a6.58,6.58,0,0,0,1.26-.57A3.9,3.9,0,0,0,29.2,8.17Z"/><path class="cls-29" d="M26.1,19.71a5.71,5.71,0,0,0,1.2.68,3.86,3.86,0,0,0,2.54.32,3.44,3.44,0,0,0,2-2,.84.84,0,0,0,0-.88,26.66,26.66,0,0,0-3.7-1.31l-.52-.16Z"/><path class="cls-12" d="M29.84,20.71A2.7,2.7,0,0,0,31,20a8.85,8.85,0,0,1-4.26-1.71l-.65,1.42a5.71,5.71,0,0,0,1.2.68A3.86,3.86,0,0,0,29.84,20.71Z"/><path class="cls-30" d="M7.31,16.54A6.15,6.15,0,0,0,6,16.69,3.88,3.88,0,0,0,3.7,17.93a3.41,3.41,0,0,0-.48,2.78.8.8,0,0,0,.54.69,27.73,27.73,0,0,0,3.76-1.12s.52-.16.51-.17Z"/><path class="cls-12" d="M3.7,17.93a2.74,2.74,0,0,0-.53,1.27,8.67,8.67,0,0,1,4.45-1.12l-.31-1.54A6.15,6.15,0,0,0,6,16.69,3.88,3.88,0,0,0,3.7,17.93Z"/><path class="cls-31" d="M24.23,22.23c-.06.07.87,1,.93,1a3.86,3.86,0,0,0,2.32,1.08A3.44,3.44,0,0,0,30,23.09a.82.82,0,0,0,.24-.84,27.71,27.71,0,0,0-3.12-2.39l-.44-.32Z"/><path class="cls-12" d="M27.48,24.33A2.78,2.78,0,0,0,28.82,24a8.75,8.75,0,0,1-3.53-2.95l-1.06,1.16c-.06.07.87,1,.93,1A3.86,3.86,0,0,0,27.48,24.33Z"/><g class="cls-32"><path class="cls-33" d="M29.09,12.14A12.49,12.49,0,0,0,5.82,9.69a12.48,12.48,0,0,0,18.09,16,12.6,12.6,0,0,0,5.18-13.51C29,11.74,29.34,13.14,29.09,12.14Z"/><path class="cls-34" d="M29.08,12.14A12.49,12.49,0,0,0,5.82,9.69a12.48,12.48,0,0,0,18.09,16,12.58,12.58,0,0,0,5.17-13.5C29,11.74,29.34,13.14,29.08,12.14Z"/><path class="cls-35" d="M29.08,12.14A12.48,12.48,0,0,0,5.83,9.7,12.47,12.47,0,0,0,23.91,25.64a12.59,12.59,0,0,0,5.17-13.5C29,11.74,29.33,13.14,29.08,12.14Z"/><path class="cls-36" d="M29.07,12.14A12.47,12.47,0,0,0,5.83,9.7,12.47,12.47,0,0,0,23.9,25.63a12.58,12.58,0,0,0,5.17-13.49Z"/><path class="cls-37" d="M29.06,12.14A12.47,12.47,0,0,0,5.84,9.7,12.46,12.46,0,0,0,23.9,25.63a12.58,12.58,0,0,0,5.16-13.49Z"/><path class="cls-38" d="M29.06,12.15A12.46,12.46,0,0,0,5.85,9.7a12.45,12.45,0,0,0,18,15.92,12.57,12.57,0,0,0,5.17-13.47C29,11.75,29.31,13.14,29.06,12.15Z"/><path class="cls-39" d="M29.05,12.15A12.45,12.45,0,0,0,5.85,9.71a12.45,12.45,0,0,0,18,15.91,12.56,12.56,0,0,0,5.16-13.47C29,11.75,29.31,13.14,29.05,12.15Z"/><path class="cls-40" d="M29,12.15A12.44,12.44,0,0,0,5.86,9.71a12.44,12.44,0,0,0,18,15.9A12.54,12.54,0,0,0,29,12.15C28.94,11.75,29.3,13.14,29,12.15Z"/><path class="cls-41" d="M29,12.15A12.57,12.57,0,0,0,18.48,2.91,12.57,12.57,0,0,0,5.86,9.71a12.44,12.44,0,0,0,18,15.9A12.56,12.56,0,0,0,29,12.15C28.93,11.75,29.29,13.14,29,12.15Z"/><path class="cls-42" d="M29,12.15A12.43,12.43,0,0,0,5.87,9.72a12.43,12.43,0,0,0,18,15.88A12.53,12.53,0,0,0,29,12.15Z"/><path class="cls-43" d="M29,12.15A12.41,12.41,0,0,0,5.88,9.72a12.42,12.42,0,0,0,18,15.88A12.54,12.54,0,0,0,29,12.15Z"/><path class="cls-44" d="M29,12.16A12.42,12.42,0,0,0,5.88,9.72a12.41,12.41,0,0,0,18,15.87A12.53,12.53,0,0,0,29,12.16Z"/><path class="cls-45" d="M29,12.16A12.41,12.41,0,0,0,5.89,9.72a12.41,12.41,0,0,0,18,15.86A12.49,12.49,0,0,0,29,12.16C28.91,11.76,29.27,13.15,29,12.16Z"/><path class="cls-46" d="M29,12.16A12.41,12.41,0,0,0,5.89,9.73a12.4,12.4,0,0,0,18,15.85A12.53,12.53,0,0,0,29,12.16C28.9,11.76,29.26,13.15,29,12.16Z"/><path class="cls-47" d="M29,12.16A12.4,12.4,0,0,0,5.9,9.73a12.39,12.39,0,0,0,18,15.84A12.49,12.49,0,0,0,29,12.16Z"/><path class="cls-48" d="M29,12.16A12.4,12.4,0,0,0,5.9,9.73a12.39,12.39,0,0,0,18,15.84A12.51,12.51,0,0,0,29,12.16Z"/><path class="cls-49" d="M29,12.16A12.51,12.51,0,0,0,18.47,3,12.51,12.51,0,0,0,5.91,9.74a12.38,12.38,0,0,0,18,15.82A12.51,12.51,0,0,0,29,12.16C28.88,11.77,29.24,13.15,29,12.16Z"/><path class="cls-50" d="M29,12.17A12.37,12.37,0,0,0,5.92,9.74,12.37,12.37,0,0,0,23.85,25.56,12.49,12.49,0,0,0,29,12.17Z"/><path class="cls-51" d="M29,12.17a12.37,12.37,0,0,0-23-2.43A12.37,12.37,0,0,0,23.85,25.55,12.48,12.48,0,0,0,29,12.17C28.87,11.77,29.23,13.16,29,12.17Z"/><path class="cls-52" d="M29,12.17a12.37,12.37,0,0,0-23-2.43A12.36,12.36,0,0,0,23.84,25.55,12.47,12.47,0,0,0,29,12.17Z"/><path class="cls-53" d="M29,12.17a12.36,12.36,0,0,0-23-2.42A12.36,12.36,0,0,0,23.84,25.54,12.46,12.46,0,0,0,29,12.17Z"/><path class="cls-54" d="M29,12.17a12.35,12.35,0,0,0-23-2.42,12.35,12.35,0,0,0,17.9,15.79A12.47,12.47,0,0,0,29,12.17Z"/><path class="cls-55" d="M29,12.17A12.34,12.34,0,0,0,6,9.75,12.34,12.34,0,0,0,23.83,25.53,12.45,12.45,0,0,0,29,12.17Z"/><path class="cls-56" d="M28.94,12.18A12.34,12.34,0,0,0,6,9.76,12.33,12.33,0,0,0,23.83,25.52a12.43,12.43,0,0,0,5.11-13.34C28.84,11.78,29.2,13.16,28.94,12.18Z"/><path class="cls-57" d="M28.94,12.18A12.34,12.34,0,0,0,6,9.76,12.33,12.33,0,0,0,23.83,25.52a12.45,12.45,0,0,0,5.11-13.34C28.83,11.78,29.19,13.16,28.94,12.18Z"/><path class="cls-58" d="M28.93,12.18A12.33,12.33,0,0,0,6,9.76,12.32,12.32,0,0,0,23.82,25.51a12.43,12.43,0,0,0,5.11-13.33Z"/><path class="cls-59" d="M28.92,12.18A12.32,12.32,0,0,0,6,9.77,12.31,12.31,0,0,0,23.82,25.51a12.41,12.41,0,0,0,5.1-13.33C28.82,11.79,29.18,13.16,28.92,12.18Z"/><path class="cls-60" d="M28.92,12.18A12.32,12.32,0,0,0,6,9.77,12.31,12.31,0,0,0,23.82,25.5a12.43,12.43,0,0,0,5.1-13.32Z"/><path class="cls-61" d="M28.91,12.18A12.31,12.31,0,0,0,6,9.77,12.3,12.3,0,0,0,23.81,25.5a12.43,12.43,0,0,0,5.1-13.32Z"/><path class="cls-62" d="M28.9,12.18A12.3,12.3,0,0,0,6,9.77,12.3,12.3,0,0,0,23.81,25.49,12.39,12.39,0,0,0,28.9,12.18Z"/><path class="cls-63" d="M28.9,12.19A12.42,12.42,0,0,0,18.46,3.05,12.42,12.42,0,0,0,6,9.78,12.29,12.29,0,0,0,23.8,25.49a12.41,12.41,0,0,0,5.1-13.3Z"/><path class="cls-64" d="M28.89,12.19A12.28,12.28,0,0,0,6,9.78a12.28,12.28,0,0,0,17.8,15.7,12.38,12.38,0,0,0,5.09-13.29Z"/><path class="cls-65" d="M28.89,12.19A12.29,12.29,0,0,0,6,9.78a12.28,12.28,0,0,0,17.8,15.7,12.41,12.41,0,0,0,5.09-13.29C28.78,11.8,29.14,13.17,28.89,12.19Z"/><path class="cls-66" d="M28.88,12.19A12.27,12.27,0,0,0,6,9.79,12.27,12.27,0,0,0,23.79,25.47a12.39,12.39,0,0,0,5.09-13.28Z"/><path class="cls-67" d="M28.87,12.19A12.26,12.26,0,0,0,6,9.79,12.26,12.26,0,0,0,23.79,25.46a12.36,12.36,0,0,0,5.08-13.27Z"/><path class="cls-68" d="M28.87,12.19A12.27,12.27,0,0,0,6,9.79,12.26,12.26,0,0,0,23.79,25.46a12.4,12.4,0,0,0,5.08-13.27Z"/><path class="cls-69" d="M28.86,12.2A12.25,12.25,0,0,0,6,9.79,12.25,12.25,0,0,0,23.78,25.45,12.34,12.34,0,0,0,28.86,12.2C28.76,11.8,29.11,13.17,28.86,12.2Z"/><path class="cls-70" d="M28.85,12.2A12.25,12.25,0,0,0,6,9.8,12.25,12.25,0,0,0,23.78,25.45,12.35,12.35,0,0,0,28.85,12.2C28.75,11.81,29.11,13.18,28.85,12.2Z"/><path class="cls-71" d="M28.85,12.2A12.24,12.24,0,0,0,6,9.8,12.24,12.24,0,0,0,23.78,25.44,12.36,12.36,0,0,0,28.85,12.2Z"/><path class="cls-72" d="M28.84,12.2A12.24,12.24,0,0,0,6,9.8,12.24,12.24,0,0,0,23.77,25.44,12.33,12.33,0,0,0,28.84,12.2Z"/><path class="cls-73" d="M28.83,12.2A12.22,12.22,0,0,0,6.05,9.81,12.22,12.22,0,0,0,23.77,25.43,12.33,12.33,0,0,0,28.83,12.2C28.73,11.81,29.09,13.18,28.83,12.2Z"/><path class="cls-74" d="M28.83,12.2A12.22,12.22,0,0,0,6.06,9.81a12.22,12.22,0,0,0,17.7,15.62A12.34,12.34,0,0,0,28.83,12.2Z"/><path class="cls-75" d="M28.82,12.21A12.21,12.21,0,0,0,6.06,9.81a12.21,12.21,0,0,0,17.7,15.61,12.32,12.32,0,0,0,5.06-13.21Z"/><path class="cls-76" d="M28.82,12.21A12.21,12.21,0,0,0,6.07,9.81,12.21,12.21,0,0,0,23.76,25.42a12.34,12.34,0,0,0,5.06-13.21Z"/><path class="cls-77" d="M28.81,12.21A12.21,12.21,0,0,0,6.07,9.82,12.2,12.2,0,0,0,23.75,25.41a12.3,12.3,0,0,0,5.06-13.2Z"/><path class="cls-78" d="M28.8,12.21A12.19,12.19,0,0,0,6.08,9.82,12.19,12.19,0,0,0,23.75,25.4,12.3,12.3,0,0,0,28.8,12.21Z"/><path class="cls-79" d="M28.8,12.21A12.19,12.19,0,0,0,6.09,9.82,12.18,12.18,0,0,0,23.75,25.4,12.3,12.3,0,0,0,28.8,12.21Z"/><path class="cls-80" d="M28.79,12.21A12.19,12.19,0,0,0,6.09,9.83,12.18,12.18,0,0,0,23.74,25.39a12.28,12.28,0,0,0,5.05-13.18C28.69,11.83,29,13.19,28.79,12.21Z"/><path class="cls-81" d="M28.78,12.22A12.17,12.17,0,0,0,6.1,9.83,12.17,12.17,0,0,0,23.74,25.39a12.27,12.27,0,0,0,5-13.17Z"/><path class="cls-82" d="M28.78,12.22A12.17,12.17,0,0,0,6.1,9.83,12.17,12.17,0,0,0,23.74,25.38a12.27,12.27,0,0,0,5-13.16Z"/><path class="cls-83" d="M28.77,12.22A12.16,12.16,0,0,0,6.11,9.84,12.16,12.16,0,0,0,23.73,25.38a12.27,12.27,0,0,0,5-13.16Z"/><path class="cls-84" d="M28.76,12.22A12.15,12.15,0,0,0,6.12,9.84,12.15,12.15,0,0,0,23.73,25.37a12.25,12.25,0,0,0,5-13.15Z"/><path class="cls-85" d="M28.76,12.22A12.15,12.15,0,0,0,6.12,9.84a12.15,12.15,0,0,0,17.6,15.53,12.27,12.27,0,0,0,5-13.15Z"/><path class="cls-86" d="M28.75,12.22A12.14,12.14,0,0,0,6.13,9.84,12.14,12.14,0,0,0,23.72,25.36a12.24,12.24,0,0,0,5-13.14Z"/><path class="cls-87" d="M28.75,12.23A12.14,12.14,0,0,0,6.13,9.85,12.14,12.14,0,0,0,23.72,25.36a12.26,12.26,0,0,0,5-13.13Z"/><path class="cls-88" d="M28.74,12.23A12.13,12.13,0,0,0,6.14,9.85a12.12,12.12,0,0,0,17.57,15.5,12.24,12.24,0,0,0,5-13.12Z"/><path class="cls-89" d="M28.73,12.23A12.12,12.12,0,0,0,6.14,9.85,12.12,12.12,0,0,0,23.71,25.34a12.2,12.2,0,0,0,5-13.11Z"/><path class="cls-90" d="M28.73,12.23A12.12,12.12,0,0,0,6.15,9.86,12.11,12.11,0,0,0,23.71,25.34a12.23,12.23,0,0,0,5-13.11Z"/><path class="cls-91" d="M28.72,12.23A12.11,12.11,0,0,0,6.16,9.86,12.1,12.1,0,0,0,23.7,25.33a12.2,12.2,0,0,0,5-13.1Z"/><path class="cls-92" d="M28.71,12.23A12.1,12.1,0,0,0,6.16,9.86,12.1,12.1,0,0,0,23.7,25.33a12.2,12.2,0,0,0,5-13.1Z"/><path class="cls-93" d="M28.71,12.24A12.1,12.1,0,0,0,6.17,9.86,12.09,12.09,0,0,0,23.7,25.32a12.21,12.21,0,0,0,5-13.08Z"/><path class="cls-94" d="M28.7,12.24A12.09,12.09,0,0,0,6.17,9.87,12.09,12.09,0,0,0,23.69,25.32a12.2,12.2,0,0,0,5-13.08Z"/><path class="cls-95" d="M28.7,12.24A12.09,12.09,0,0,0,6.18,9.87,12.08,12.08,0,0,0,23.69,25.31a12.21,12.21,0,0,0,5-13.07Z"/><path class="cls-96" d="M28.69,12.24A12.08,12.08,0,0,0,6.19,9.87,12.07,12.07,0,0,0,23.68,25.31a12.18,12.18,0,0,0,5-13.07Z"/><path class="cls-97" d="M28.68,12.24A12.07,12.07,0,0,0,6.19,9.88,12.07,12.07,0,0,0,23.68,25.3a12.17,12.17,0,0,0,5-13.06Z"/><path class="cls-98" d="M28.68,12.24A12.06,12.06,0,0,0,6.2,9.88,12.06,12.06,0,0,0,23.68,25.3a12.2,12.2,0,0,0,5-13.06C28.58,11.86,28.92,13.21,28.68,12.24Z"/><path class="cls-99" d="M28.67,12.25A12.06,12.06,0,0,0,6.2,9.88,12.05,12.05,0,0,0,23.67,25.29a12.15,12.15,0,0,0,5-13Z"/><path class="cls-100" d="M28.66,12.25A12,12,0,0,0,6.21,9.88a12,12,0,0,0,17.46,15.4,12.14,12.14,0,0,0,5-13Z"/><path class="cls-101" d="M28.66,12.25A12.16,12.16,0,0,0,18.43,3.3,12.18,12.18,0,0,0,6.21,9.89,12,12,0,0,0,23.67,25.28a12.16,12.16,0,0,0,5-13C28.56,11.86,28.9,13.21,28.66,12.25Z"/><path class="cls-102" d="M28.65,12.25A12,12,0,0,0,6.22,9.89,12,12,0,0,0,23.66,25.27a12.12,12.12,0,0,0,5-13Z"/><path class="cls-103" d="M28.64,12.25A12,12,0,0,0,6.23,9.89,12,12,0,0,0,23.66,25.27a12.12,12.12,0,0,0,5-13C28.55,11.87,28.89,13.21,28.64,12.25Z"/><path class="cls-104" d="M28.64,12.25A12,12,0,0,0,6.23,9.9,12,12,0,0,0,23.66,25.26a12.14,12.14,0,0,0,5-13Z"/><path class="cls-105" d="M28.63,12.25A12,12,0,0,0,6.24,9.9,12,12,0,0,0,23.65,25.26a12.14,12.14,0,0,0,5-13Z"/><path class="cls-106" d="M28.63,12.26A12,12,0,0,0,6.24,9.9,12,12,0,0,0,23.65,25.25a12.12,12.12,0,0,0,5-13Z"/><path class="cls-107" d="M28.62,12.26A12,12,0,0,0,6.25,9.91a12,12,0,0,0,17.4,15.34,12.13,12.13,0,0,0,5-13Z"/><path class="cls-108" d="M28.61,12.26A12,12,0,0,0,6.26,9.91,12,12,0,0,0,23.64,25.24a12.09,12.09,0,0,0,5-13Z"/><path class="cls-109" d="M28.61,12.26A12,12,0,0,0,6.26,9.91,12,12,0,0,0,23.64,25.24a12.11,12.11,0,0,0,5-13C28.51,11.88,28.85,13.22,28.61,12.26Z"/><path class="cls-110" d="M28.6,12.26A12,12,0,0,0,6.27,9.91,12,12,0,0,0,23.63,25.23a12.09,12.09,0,0,0,5-13Z"/><path class="cls-111" d="M28.59,12.26A12,12,0,0,0,6.27,9.92a12,12,0,0,0,17.36,15.3,12.07,12.07,0,0,0,5-13C28.5,11.88,28.84,13.22,28.59,12.26Z"/><path class="cls-112" d="M28.59,12.27A12,12,0,0,0,6.28,9.92a12,12,0,0,0,17.35,15.3,12.08,12.08,0,0,0,5-12.95Z"/><path class="cls-113" d="M28.58,12.27A12,12,0,0,0,6.29,9.92,12,12,0,0,0,23.62,25.21a12,12,0,0,0,5-12.94Z"/><path class="cls-114" d="M28.57,12.27A12,12,0,0,0,6.29,9.93,12,12,0,0,0,23.62,25.21a12.06,12.06,0,0,0,4.95-12.94C28.48,11.89,28.82,13.22,28.57,12.27Z"/><path class="cls-115" d="M28.57,12.27A12,12,0,0,0,6.3,9.93,11.95,11.95,0,0,0,23.62,25.2a12.07,12.07,0,0,0,4.95-12.93C28.47,11.89,28.81,13.23,28.57,12.27Z"/><path class="cls-116" d="M28.56,12.27A11.95,11.95,0,0,0,6.3,9.93,11.95,11.95,0,0,0,23.61,25.2a12,12,0,0,0,4.95-12.93Z"/><path class="cls-117" d="M28.56,12.27A11.95,11.95,0,0,0,6.31,9.93a11.93,11.93,0,0,0,17.3,15.26,12.06,12.06,0,0,0,4.95-12.92C28.46,11.89,28.8,13.23,28.56,12.27Z"/><path class="cls-118" d="M28.55,12.28A11.93,11.93,0,0,0,6.31,9.94a11.94,11.94,0,0,0,17.3,15.25,12,12,0,0,0,4.94-12.91C28.45,11.9,28.79,13.23,28.55,12.28Z"/><path class="cls-119" d="M28.54,12.28A11.93,11.93,0,0,0,6.32,9.94,11.92,11.92,0,0,0,23.6,25.18a12,12,0,0,0,4.94-12.9C28.45,11.9,28.79,13.23,28.54,12.28Z"/><path class="cls-120" d="M28.54,12.28A12,12,0,0,0,18.42,3.42,12,12,0,0,0,6.33,9.94,11.92,11.92,0,0,0,23.6,25.18a12,12,0,0,0,4.94-12.9C28.44,11.9,28.78,13.23,28.54,12.28Z"/><path class="cls-121" d="M28.53,12.28A11.91,11.91,0,0,0,6.33,10,11.91,11.91,0,0,0,23.59,25.17a12,12,0,0,0,4.94-12.89Z"/><path class="cls-122" d="M28.52,12.28A11.9,11.9,0,0,0,6.34,10,11.9,11.9,0,0,0,23.59,25.16a12,12,0,0,0,4.93-12.88C28.43,11.9,28.77,13.23,28.52,12.28Z"/><path class="cls-123" d="M28.52,12.28A11.9,11.9,0,0,0,6.34,10,11.9,11.9,0,0,0,23.59,25.16a12,12,0,0,0,4.93-12.88C28.42,11.9,28.76,13.23,28.52,12.28Z"/><path class="cls-124" d="M28.51,12.29A11.89,11.89,0,0,0,6.35,10a11.89,11.89,0,0,0,17.23,15.2,12,12,0,0,0,4.93-12.86Z"/><path class="cls-125" d="M28.51,12.29A11.89,11.89,0,0,0,6.36,10,11.88,11.88,0,0,0,23.58,25.15a12,12,0,0,0,4.93-12.86C28.41,11.91,28.75,13.24,28.51,12.29Z"/><path class="cls-126" d="M28.5,12.29A11.88,11.88,0,0,0,6.36,10,11.88,11.88,0,0,0,23.58,25.14,12,12,0,0,0,28.5,12.29C28.4,11.91,28.74,13.24,28.5,12.29Z"/><path class="cls-127" d="M28.49,12.29A11.87,11.87,0,0,0,6.37,10a11.87,11.87,0,0,0,17.2,15.18,12,12,0,0,0,4.92-12.85Z"/><path class="cls-128" d="M28.49,12.29A11.87,11.87,0,0,0,6.37,10a11.86,11.86,0,0,0,17.2,15.16,12,12,0,0,0,4.92-12.84C28.39,11.91,28.73,13.24,28.49,12.29Z"/><path class="cls-129" d="M28.48,12.29A11.86,11.86,0,0,0,6.38,10,11.86,11.86,0,0,0,23.57,25.13a12,12,0,0,0,4.91-12.84C28.38,11.92,28.72,13.24,28.48,12.29Z"/><path class="cls-130" d="M28.47,12.3A11.86,11.86,0,0,0,6.38,10,11.85,11.85,0,0,0,23.56,25.12,11.93,11.93,0,0,0,28.47,12.3C28.38,11.92,28.72,13.24,28.47,12.3Z"/><path class="cls-131" d="M28.47,12.3A11.85,11.85,0,0,0,6.39,10,11.85,11.85,0,0,0,23.56,25.12,12,12,0,0,0,28.47,12.3C28.37,11.92,28.71,13.24,28.47,12.3Z"/><path class="cls-132" d="M28.46,12.3A11.84,11.84,0,0,0,6.4,10,11.83,11.83,0,0,0,23.55,25.11,12,12,0,0,0,28.46,12.3C28.36,11.92,28.7,13.24,28.46,12.3Z"/><path class="cls-133" d="M28.45,12.3A11.83,11.83,0,0,0,6.4,10,11.83,11.83,0,0,0,23.55,25.1a11.91,11.91,0,0,0,4.9-12.8C28.36,11.92,28.7,13.25,28.45,12.3Z"/><path class="cls-134" d="M28.45,12.3A11.83,11.83,0,0,0,6.41,10,11.83,11.83,0,0,0,23.55,25.1a12,12,0,0,0,4.9-12.8C28.35,11.92,28.69,13.25,28.45,12.3Z"/><path class="cls-135" d="M28.44,12.3A11.82,11.82,0,0,0,6.41,10a11.82,11.82,0,0,0,17.13,15.1,11.91,11.91,0,0,0,4.9-12.79C28.34,11.93,28.68,13.25,28.44,12.3Z"/><path class="cls-136" d="M28.44,12.31A11.82,11.82,0,0,0,6.42,10a11.81,11.81,0,0,0,17.12,15.1,11.92,11.92,0,0,0,4.9-12.78C28.34,11.93,28.68,13.25,28.44,12.31Z"/><path class="cls-137" d="M28.43,12.31A11.8,11.8,0,0,0,6.43,10,11.8,11.8,0,0,0,23.54,25.08a11.92,11.92,0,0,0,4.89-12.77C28.33,11.93,28.67,13.25,28.43,12.31Z"/><path class="cls-138" d="M28.42,12.31A11.8,11.8,0,0,0,6.43,10a11.8,11.8,0,0,0,17.1,15.08,11.9,11.9,0,0,0,4.89-12.77C28.33,11.93,28.67,13.25,28.42,12.31Z"/><path class="cls-139" d="M28.42,12.31A11.8,11.8,0,0,0,6.44,10,11.79,11.79,0,0,0,23.53,25.07a11.9,11.9,0,0,0,4.89-12.76C28.32,11.93,28.66,13.25,28.42,12.31Z"/><path class="cls-140" d="M28.41,12.31A11.79,11.79,0,0,0,6.44,10,11.79,11.79,0,0,0,23.53,25.07a11.89,11.89,0,0,0,4.88-12.76C28.31,11.94,28.65,13.25,28.41,12.31Z"/><path class="cls-141" d="M28.4,12.31A11.78,11.78,0,0,0,6.45,10,11.78,11.78,0,0,0,23.52,25.06,11.88,11.88,0,0,0,28.4,12.31C28.31,11.94,28.65,13.25,28.4,12.31Z"/><path class="cls-142" d="M28.4,12.32A11.77,11.77,0,0,0,6.46,10,11.77,11.77,0,0,0,23.52,25.06,11.91,11.91,0,0,0,28.4,12.32C28.3,11.94,28.64,13.26,28.4,12.32Z"/><path class="cls-143" d="M28.39,12.32A11.77,11.77,0,0,0,6.46,10a11.77,11.77,0,0,0,17.05,15,11.86,11.86,0,0,0,4.88-12.73C28.29,11.94,28.63,13.26,28.39,12.32Z"/><path class="cls-144" d="M28.38,12.32A11.76,11.76,0,0,0,6.47,10a11.76,11.76,0,0,0,17,15,11.85,11.85,0,0,0,4.87-12.72C28.29,11.94,28.63,13.26,28.38,12.32Z"/><path class="cls-145" d="M28.38,12.32A11.76,11.76,0,0,0,6.47,10a11.75,11.75,0,0,0,17,15,11.87,11.87,0,0,0,4.87-12.72C28.28,11.94,28.62,13.26,28.38,12.32Z"/><path class="cls-146" d="M28.37,12.32A11.75,11.75,0,0,0,6.48,10a11.74,11.74,0,0,0,17,15,11.83,11.83,0,0,0,4.87-12.71C28.28,12,28.61,13.26,28.37,12.32Z"/><path class="cls-147" d="M28.37,12.32A11.75,11.75,0,0,0,6.48,10a11.74,11.74,0,0,0,17,15,11.87,11.87,0,0,0,4.87-12.71C28.27,12,28.61,13.26,28.37,12.32Z"/><path class="cls-148" d="M28.36,12.33A11.74,11.74,0,0,0,6.49,10a11.74,11.74,0,0,0,17,15,11.83,11.83,0,0,0,4.86-12.69Z"/><path class="cls-149" d="M28.35,12.33A11.72,11.72,0,0,0,6.5,10a11.72,11.72,0,0,0,17,15,11.82,11.82,0,0,0,4.86-12.69C28.26,12,28.59,13.26,28.35,12.33Z"/><path class="cls-150" d="M28.35,12.33A11.73,11.73,0,0,0,6.5,10a11.72,11.72,0,0,0,17,15,11.82,11.82,0,0,0,4.86-12.68Z"/><path class="cls-151" d="M28.34,12.33A11.72,11.72,0,0,0,6.51,10a11.72,11.72,0,0,0,17,15,11.83,11.83,0,0,0,4.85-12.68C28.24,12,28.58,13.27,28.34,12.33Z"/><path class="cls-152" d="M28.33,12.33A11.71,11.71,0,0,0,6.51,10a11.71,11.71,0,0,0,17,15,11.8,11.8,0,0,0,4.85-12.67C28.24,12,28.57,13.27,28.33,12.33Z"/><path class="cls-153" d="M28.33,12.33A11.71,11.71,0,0,0,6.52,10a11.7,11.7,0,0,0,17,15,11.82,11.82,0,0,0,4.85-12.67C28.23,12,28.57,13.27,28.33,12.33Z"/><path class="cls-154" d="M28.32,12.33A11.7,11.7,0,0,0,6.53,10,11.69,11.69,0,0,0,23.47,25a11.8,11.8,0,0,0,4.85-12.66C28.23,12,28.56,13.27,28.32,12.33Z"/><path class="cls-155" d="M28.32,12.34A11.7,11.7,0,0,0,6.53,10,11.69,11.69,0,0,0,23.47,25a11.79,11.79,0,0,0,4.85-12.64Z"/><path class="cls-156" d="M28.31,12.34A11.68,11.68,0,0,0,6.54,10.05,11.68,11.68,0,0,0,23.47,25a11.79,11.79,0,0,0,4.84-12.64Z"/><path class="cls-157" d="M28.3,12.34A11.68,11.68,0,0,0,6.54,10.05,11.67,11.67,0,0,0,23.46,25,11.76,11.76,0,0,0,28.3,12.34C28.21,12,28.54,13.27,28.3,12.34Z"/><path class="cls-158" d="M28.3,12.34A11.67,11.67,0,0,0,6.55,10.05,11.67,11.67,0,0,0,23.46,25,11.79,11.79,0,0,0,28.3,12.34C28.2,12,28.54,13.27,28.3,12.34Z"/><path class="cls-159" d="M28.29,12.34A11.67,11.67,0,0,0,6.55,10.06,11.66,11.66,0,0,0,23.46,25a11.76,11.76,0,0,0,4.83-12.62C28.19,12,28.53,13.27,28.29,12.34Z"/><path class="cls-160" d="M28.28,12.34A11.66,11.66,0,0,0,6.56,10.06,11.66,11.66,0,0,0,23.45,25a11.75,11.75,0,0,0,4.83-12.62C28.19,12,28.52,13.28,28.28,12.34Z"/><path class="cls-161" d="M28.28,12.35A11.65,11.65,0,0,0,6.57,10.06,11.65,11.65,0,0,0,23.45,25a11.76,11.76,0,0,0,4.83-12.6Z"/><path class="cls-162" d="M28.27,12.35a11.65,11.65,0,0,0-21.7-2.28A11.65,11.65,0,0,0,23.45,25a11.76,11.76,0,0,0,4.82-12.6C28.18,12,28.51,13.28,28.27,12.35Z"/><path class="cls-163" d="M28.26,12.35A11.63,11.63,0,0,0,6.58,10.07,11.63,11.63,0,0,0,23.44,24.94a11.72,11.72,0,0,0,4.82-12.59C28.17,12,28.5,13.28,28.26,12.35Z"/><path class="cls-164" d="M28.26,12.35A11.64,11.64,0,0,0,6.58,10.07,11.63,11.63,0,0,0,23.44,24.94a11.75,11.75,0,0,0,4.82-12.59C28.16,12,28.5,13.28,28.26,12.35Z"/><path class="cls-165" d="M28.25,12.35A11.63,11.63,0,0,0,6.59,10.07,11.63,11.63,0,0,0,23.44,24.93a11.73,11.73,0,0,0,4.81-12.58C28.16,12,28.49,13.28,28.25,12.35Z"/><path class="cls-166" d="M28.25,12.35A11.62,11.62,0,0,0,6.6,10.08,11.61,11.61,0,0,0,23.43,24.92a11.72,11.72,0,0,0,4.82-12.57C28.15,12,28.48,13.28,28.25,12.35Z"/><path class="cls-167" d="M28.24,12.36A11.61,11.61,0,0,0,6.6,10.08,11.61,11.61,0,0,0,23.43,24.92a11.71,11.71,0,0,0,4.81-12.56C28.14,12,28.48,13.28,28.24,12.36Z"/><path class="cls-168" d="M28.23,12.36A11.6,11.6,0,0,0,6.61,10.08,11.6,11.6,0,0,0,23.42,24.91a11.69,11.69,0,0,0,4.81-12.55C28.14,12,28.47,13.28,28.23,12.36Z"/><path class="cls-169" d="M28.23,12.36A11.6,11.6,0,0,0,6.61,10.09,11.6,11.6,0,0,0,23.42,24.91a11.71,11.71,0,0,0,4.81-12.55C28.13,12,28.46,13.29,28.23,12.36Z"/><path class="cls-170" d="M28.22,12.36a11.59,11.59,0,0,0-21.6-2.27A11.59,11.59,0,0,0,23.42,24.9a11.69,11.69,0,0,0,4.8-12.54C28.12,12,28.46,13.29,28.22,12.36Z"/><path class="cls-171" d="M28.21,12.36A11.58,11.58,0,0,0,6.63,10.09,11.58,11.58,0,0,0,23.41,24.9a11.69,11.69,0,0,0,4.8-12.54C28.12,12,28.45,13.29,28.21,12.36Z"/><path class="cls-172" d="M28.21,12.36A11.58,11.58,0,0,0,6.63,10.09a11.58,11.58,0,0,0,16.78,14.8,11.69,11.69,0,0,0,4.8-12.53C28.11,12,28.45,13.29,28.21,12.36Z"/><path class="cls-173" d="M28.2,12.37A11.57,11.57,0,0,0,6.64,10.1,11.57,11.57,0,0,0,23.41,24.89,11.68,11.68,0,0,0,28.2,12.37C28.11,12,28.44,13.29,28.2,12.37Z"/><path class="cls-174" d="M28.19,12.37A11.56,11.56,0,0,0,6.64,10.1,11.57,11.57,0,0,0,23.4,24.88a11.64,11.64,0,0,0,4.79-12.51C28.1,12,28.43,13.29,28.19,12.37Z"/><path class="cls-175" d="M28.19,12.37A11.56,11.56,0,0,0,6.65,10.1,11.56,11.56,0,0,0,23.4,24.88a11.68,11.68,0,0,0,4.79-12.51C28.09,12,28.43,13.29,28.19,12.37Z"/><path class="cls-176" d="M28.18,12.37A11.56,11.56,0,0,0,6.65,10.11,11.56,11.56,0,0,0,23.4,24.87a11.65,11.65,0,0,0,4.78-12.5C28.09,12,28.42,13.29,28.18,12.37Z"/><path class="cls-177" d="M28.18,12.37A11.55,11.55,0,0,0,6.66,10.11,11.54,11.54,0,0,0,23.39,24.86a11.64,11.64,0,0,0,4.79-12.49C28.08,12,28.41,13.29,28.18,12.37Z"/><path class="cls-178" d="M28.17,12.37a11.54,11.54,0,0,0-21.5-2.26A11.54,11.54,0,0,0,23.39,24.86a11.65,11.65,0,0,0,4.78-12.49C28.07,12,28.41,13.3,28.17,12.37Z"/><path class="cls-179" d="M28.16,12.38A11.54,11.54,0,0,0,6.67,10.11,11.53,11.53,0,0,0,23.38,24.85a11.61,11.61,0,0,0,4.78-12.47C28.07,12,28.4,13.3,28.16,12.38Z"/><path class="cls-180" d="M28.16,12.38A11.53,11.53,0,0,0,6.68,10.12a11.52,11.52,0,0,0,16.7,14.73,11.64,11.64,0,0,0,4.78-12.47C28.06,12,28.39,13.3,28.16,12.38Z"/><path class="cls-181" d="M28.15,12.38A11.52,11.52,0,0,0,6.68,10.12a11.52,11.52,0,0,0,16.7,14.72,11.62,11.62,0,0,0,4.77-12.46C28.06,12,28.39,13.3,28.15,12.38Z"/><path class="cls-182" d="M28.14,12.38A11.51,11.51,0,0,0,6.69,10.12,11.51,11.51,0,0,0,23.37,24.84a11.61,11.61,0,0,0,4.77-12.46C28.05,12,28.38,13.3,28.14,12.38Z"/><path class="cls-183" d="M28.14,12.38A11.5,11.5,0,0,0,6.7,10.13a11.5,11.5,0,0,0,16.67,14.7,11.61,11.61,0,0,0,4.77-12.45C28,12,28.37,13.3,28.14,12.38Z"/><path class="cls-184" d="M28.13,12.38A11.5,11.5,0,0,0,6.7,10.13a11.5,11.5,0,0,0,16.67,14.7,11.6,11.6,0,0,0,4.76-12.45C28,12,28.37,13.3,28.13,12.38Z"/><path class="cls-185" d="M28.13,12.39A11.5,11.5,0,0,0,6.71,10.13,11.49,11.49,0,0,0,23.36,24.82a11.6,11.6,0,0,0,4.77-12.43C28,12,28.36,13.3,28.13,12.39Z"/><path class="cls-186" d="M28.12,12.39A11.49,11.49,0,0,0,6.71,10.14,11.49,11.49,0,0,0,23.36,24.82a11.6,11.6,0,0,0,4.76-12.43C28,12,28.35,13.3,28.12,12.39Z"/><path class="cls-187" d="M28.11,12.39A11.48,11.48,0,0,0,6.72,10.14,11.48,11.48,0,0,0,23.36,24.81a11.57,11.57,0,0,0,4.75-12.42C28,12,28.35,13.31,28.11,12.39Z"/><path class="cls-188" d="M28.11,12.39A11.48,11.48,0,0,0,6.72,10.14,11.47,11.47,0,0,0,23.35,24.8a11.58,11.58,0,0,0,4.76-12.41C28,12,28.34,13.31,28.11,12.39Z"/><path class="cls-189" d="M28.1,12.39A11.47,11.47,0,0,0,6.73,10.14,11.47,11.47,0,0,0,23.35,24.8,11.58,11.58,0,0,0,28.1,12.39C28,12,28.34,13.31,28.1,12.39Z"/><path class="cls-190" d="M28.09,12.39A11.46,11.46,0,0,0,6.74,10.15a11.45,11.45,0,0,0,16.6,14.64,11.55,11.55,0,0,0,4.75-12.4C28,12,28.33,13.31,28.09,12.39Z"/><path class="cls-191" d="M28.09,12.4A11.46,11.46,0,0,0,6.74,10.15a11.45,11.45,0,0,0,16.6,14.64A11.57,11.57,0,0,0,28.09,12.4C28,12,28.32,13.31,28.09,12.4Z"/><path class="cls-192" d="M28.08,12.4A11.45,11.45,0,0,0,6.75,10.15,11.44,11.44,0,0,0,23.34,24.78,11.54,11.54,0,0,0,28.08,12.4C28,12,28.32,13.31,28.08,12.4Z"/><path class="cls-193" d="M28.07,12.4A11.44,11.44,0,0,0,6.75,10.16,11.44,11.44,0,0,0,23.33,24.78,11.53,11.53,0,0,0,28.07,12.4C28,12,28.31,13.31,28.07,12.4Z"/><path class="cls-194" d="M28.07,12.4A11.43,11.43,0,0,0,6.76,10.16,11.43,11.43,0,0,0,23.33,24.77,11.53,11.53,0,0,0,28.07,12.4C28,12,28.3,13.31,28.07,12.4Z"/><path class="cls-195" d="M28.06,12.4A11.43,11.43,0,0,0,6.77,10.16,11.43,11.43,0,0,0,23.33,24.77,11.54,11.54,0,0,0,28.06,12.4C28,12,28.3,13.31,28.06,12.4Z"/><path class="cls-196" d="M28.06,12.4A11.43,11.43,0,0,0,6.77,10.16a11.42,11.42,0,0,0,16.55,14.6A11.51,11.51,0,0,0,28.06,12.4C28,12,28.29,13.32,28.06,12.4Z"/><path class="cls-197" d="M28.05,12.4A11.41,11.41,0,0,0,6.78,10.17,11.41,11.41,0,0,0,23.32,24.76,11.52,11.52,0,0,0,28.05,12.4Z"/><path class="cls-198" d="M28,12.41A11.41,11.41,0,0,0,6.78,10.17,11.41,11.41,0,0,0,23.32,24.75,11.51,11.51,0,0,0,28,12.41C28,12,28.28,13.32,28,12.41Z"/><path class="cls-199" d="M28,12.41A11.41,11.41,0,0,0,6.79,10.17,11.4,11.4,0,0,0,23.31,24.74,11.5,11.5,0,0,0,28,12.41C27.94,12,28.27,13.32,28,12.41Z"/><path class="cls-200" d="M28,12.41A11.39,11.39,0,0,0,6.8,10.18,11.39,11.39,0,0,0,23.31,24.74,11.5,11.5,0,0,0,28,12.41Z"/><path class="cls-201" d="M28,12.41A11.39,11.39,0,0,0,6.8,10.18,11.38,11.38,0,0,0,23.3,24.73,11.46,11.46,0,0,0,28,12.41C27.93,12.05,28.26,13.32,28,12.41Z"/><path class="cls-202" d="M28,12.41A11.39,11.39,0,0,0,6.81,10.18,11.38,11.38,0,0,0,23.3,24.73,11.5,11.5,0,0,0,28,12.41C27.92,12.05,28.25,13.32,28,12.41Z"/><path class="cls-203" d="M28,12.41a11.38,11.38,0,0,0-21.2-2.23A11.38,11.38,0,0,0,23.3,24.72,11.48,11.48,0,0,0,28,12.41Z"/><path class="cls-204" d="M28,12.42A11.36,11.36,0,0,0,6.82,10.19,11.37,11.37,0,0,0,23.29,24.72,11.45,11.45,0,0,0,28,12.42C27.91,12.05,28.24,13.32,28,12.42Z"/><path class="cls-205" d="M28,12.42A11.37,11.37,0,0,0,6.82,10.19,11.36,11.36,0,0,0,23.29,24.71,11.46,11.46,0,0,0,28,12.42C27.91,12.05,28.23,13.33,28,12.42Z"/><path class="cls-206" d="M28,12.42A11.36,11.36,0,0,0,6.83,10.19,11.36,11.36,0,0,0,23.29,24.71,11.45,11.45,0,0,0,28,12.42C27.9,12.06,28.23,13.33,28,12.42Z"/><path class="cls-207" d="M28,12.42A11.35,11.35,0,0,0,6.84,10.2,11.34,11.34,0,0,0,23.28,24.7,11.45,11.45,0,0,0,28,12.42C27.89,12.06,28.22,13.33,28,12.42Z"/><path class="cls-208" d="M28,12.42A11.35,11.35,0,0,0,6.84,10.2,11.35,11.35,0,0,0,23.28,24.7,11.47,11.47,0,0,0,28,12.42Z"/><path class="cls-209" d="M28,12.42A11.33,11.33,0,0,0,6.85,10.2,11.34,11.34,0,0,0,23.28,24.69,11.44,11.44,0,0,0,28,12.42C27.88,12.06,28.21,13.33,28,12.42Z"/><path class="cls-210" d="M28,12.43A11.34,11.34,0,0,0,6.85,10.2,11.33,11.33,0,0,0,23.27,24.68,11.42,11.42,0,0,0,28,12.43C27.87,12.06,28.2,13.33,28,12.43Z"/><path class="cls-211" d="M28,12.43a11.33,11.33,0,0,0-21.1-2.22A11.32,11.32,0,0,0,23.27,24.68,11.42,11.42,0,0,0,28,12.43Z"/><path class="cls-212" d="M28,12.43A11.31,11.31,0,0,0,6.87,10.21,11.31,11.31,0,0,0,23.26,24.67,11.4,11.4,0,0,0,28,12.43C27.86,12.07,28.19,13.33,28,12.43Z"/><path class="cls-213" d="M28,12.43A11.32,11.32,0,0,0,6.87,10.21,11.31,11.31,0,0,0,23.26,24.67,11.42,11.42,0,0,0,28,12.43C27.85,12.07,28.18,13.33,28,12.43Z"/><path class="cls-214" d="M27.94,12.43A11.3,11.3,0,0,0,6.88,10.22,11.3,11.3,0,0,0,23.26,24.66a11.39,11.39,0,0,0,4.68-12.23Z"/><path class="cls-215" d="M27.94,12.43A11.3,11.3,0,0,0,6.88,10.22,11.3,11.3,0,0,0,23.25,24.66a11.42,11.42,0,0,0,4.69-12.23C27.84,12.07,28.17,13.34,27.94,12.43Z"/><path class="cls-216" d="M27.93,12.44a11.29,11.29,0,0,0-21-2.22A11.29,11.29,0,0,0,23.25,24.65a11.37,11.37,0,0,0,4.68-12.21Z"/><path class="cls-217" d="M27.92,12.44a11.28,11.28,0,0,0-21-2.21A11.29,11.29,0,0,0,23.25,24.65a11.38,11.38,0,0,0,4.67-12.21Z"/><path class="cls-218" d="M27.92,12.44a11.28,11.28,0,0,0-21-2.21A11.27,11.27,0,0,0,23.24,24.64a11.38,11.38,0,0,0,4.68-12.2C27.82,12.08,28.15,13.34,27.92,12.44Z"/><path class="cls-219" d="M27.91,12.44a11.27,11.27,0,0,0-21-2.21A11.27,11.27,0,0,0,23.24,24.64a11.39,11.39,0,0,0,4.67-12.2Z"/><path class="cls-220" d="M27.9,12.44a11.26,11.26,0,0,0-21-2.21,11.27,11.27,0,0,0,16.33,14.4A11.36,11.36,0,0,0,27.9,12.44C27.81,12.08,28.14,13.34,27.9,12.44Z"/><path class="cls-221" d="M27.9,12.44a11.26,11.26,0,0,0-21-2.2A11.25,11.25,0,0,0,23.23,24.62,11.35,11.35,0,0,0,27.9,12.44C27.8,12.08,28.13,13.34,27.9,12.44Z"/><path class="cls-222" d="M27.89,12.45a11.26,11.26,0,0,0-21-2.21A11.25,11.25,0,0,0,23.23,24.62a11.35,11.35,0,0,0,4.66-12.17C27.8,12.09,28.12,13.34,27.89,12.45Z"/><path class="cls-223" d="M27.88,12.45A11.24,11.24,0,0,0,6.93,10.24,11.24,11.24,0,0,0,23.22,24.61a11.3,11.3,0,0,0,4.66-12.16C27.79,12.09,28.12,13.35,27.88,12.45Z"/><path class="cls-224" d="M27.88,12.45a11.24,11.24,0,0,0-20.94-2.2A11.23,11.23,0,0,0,23.22,24.61a11.34,11.34,0,0,0,4.66-12.16Z"/><path class="cls-225" d="M27.87,12.45a11.23,11.23,0,0,0-20.93-2.2A11.23,11.23,0,0,0,23.22,24.6a11.33,11.33,0,0,0,4.65-12.15Z"/><path class="cls-226" d="M27.87,12.45A11.23,11.23,0,0,0,7,10.25,11.22,11.22,0,0,0,23.21,24.6a11.34,11.34,0,0,0,4.66-12.15C27.77,12.09,28.1,13.35,27.87,12.45Z"/><path class="cls-227" d="M27.86,12.45A11.23,11.23,0,0,0,7,10.25,11.22,11.22,0,0,0,23.21,24.59a11.31,11.31,0,0,0,4.65-12.14Z"/><path class="cls-228" d="M27.85,12.46A11.21,11.21,0,0,0,7,10.26,11.21,11.21,0,0,0,23.21,24.59a11.3,11.3,0,0,0,4.64-12.13C27.76,12.1,28.08,13.35,27.85,12.46Z"/><path class="cls-229" d="M27.85,12.46A11.21,11.21,0,0,0,7,10.26,11.2,11.2,0,0,0,23.2,24.58a11.31,11.31,0,0,0,4.65-12.12C27.75,12.1,28.08,13.35,27.85,12.46Z"/><path class="cls-230" d="M27.84,12.46A11.2,11.2,0,0,0,7,10.26,11.2,11.2,0,0,0,23.2,24.58a11.31,11.31,0,0,0,4.64-12.12C27.75,12.1,28.07,13.35,27.84,12.46Z"/><path class="cls-231" d="M27.83,12.46A11.18,11.18,0,0,0,7,10.27,11.19,11.19,0,0,0,23.2,24.57a11.29,11.29,0,0,0,4.63-12.11C27.74,12.1,28.06,13.35,27.83,12.46Z"/><path class="cls-232" d="M27.83,12.46A11.19,11.19,0,0,0,7,10.27a11.19,11.19,0,0,0,16.21,14.3,11.31,11.31,0,0,0,4.64-12.11Z"/><path class="cls-233" d="M27.82,12.46A11.18,11.18,0,0,0,7,10.27a11.18,11.18,0,0,0,16.2,14.29,11.26,11.26,0,0,0,4.63-12.1Z"/><path class="cls-234" d="M27.81,12.47A11.17,11.17,0,0,0,7,10.27a11.18,11.18,0,0,0,16.2,14.28,11.25,11.25,0,0,0,4.62-12.08C27.72,12.11,28,13.36,27.81,12.47Z"/><path class="cls-235" d="M27.81,12.47A11.17,11.17,0,0,0,7,10.28,11.16,11.16,0,0,0,23.18,24.55a11.27,11.27,0,0,0,4.63-12.08C27.72,12.11,28,13.36,27.81,12.47Z"/><path class="cls-236" d="M27.8,12.47A11.16,11.16,0,0,0,7,10.28,11.16,11.16,0,0,0,23.18,24.54,11.25,11.25,0,0,0,27.8,12.47C27.71,12.11,28,13.36,27.8,12.47Z"/><path class="cls-237" d="M27.8,12.47A11.16,11.16,0,0,0,7,10.28,11.15,11.15,0,0,0,23.17,24.54,11.26,11.26,0,0,0,27.8,12.47C27.7,12.11,28,13.36,27.8,12.47Z"/><path class="cls-238" d="M27.79,12.47A11.15,11.15,0,0,0,7,10.29,11.14,11.14,0,0,0,23.17,24.53a11.24,11.24,0,0,0,4.62-12.06Z"/><path class="cls-239" d="M27.78,12.47A11.14,11.14,0,0,0,7,10.29,11.14,11.14,0,0,0,23.17,24.53a11.25,11.25,0,0,0,4.61-12.06Z"/><path class="cls-240" d="M27.78,12.47A11.14,11.14,0,0,0,7,10.29,11.13,11.13,0,0,0,23.16,24.52a11.24,11.24,0,0,0,4.62-12Z"/><path class="cls-241" d="M27.77,12.48A11.12,11.12,0,0,0,7,10.3,11.12,11.12,0,0,0,23.16,24.52a11.23,11.23,0,0,0,4.61-12C27.68,12.12,28,13.37,27.77,12.48Z"/><path class="cls-242" d="M27.76,12.48A11.12,11.12,0,0,0,7,10.3,11.12,11.12,0,0,0,23.16,24.51a11.22,11.22,0,0,0,4.6-12C27.67,12.12,28,13.37,27.76,12.48Z"/><path class="cls-243" d="M27.76,12.48A11.11,11.11,0,0,0,7.05,10.3a11.11,11.11,0,0,0,16.1,14.21,11.21,11.21,0,0,0,4.61-12C27.67,12.12,28,13.37,27.76,12.48Z"/><path class="cls-244" d="M27.75,12.48A11.11,11.11,0,0,0,7.05,10.3a11.11,11.11,0,0,0,16.1,14.2,11.2,11.2,0,0,0,4.6-12Z"/><path class="cls-245" d="M27.75,12.48A11.11,11.11,0,0,0,7.06,10.31,11.1,11.1,0,0,0,23.15,24.49a11.2,11.2,0,0,0,4.6-12C27.65,12.13,28,13.37,27.75,12.48Z"/><path class="cls-246" d="M27.74,12.48A11.1,11.1,0,0,0,7.06,10.31,11.1,11.1,0,0,0,23.14,24.49a11.21,11.21,0,0,0,4.6-12Z"/><path class="cls-247" d="M27.73,12.49A11.09,11.09,0,0,0,7.07,10.31,11.09,11.09,0,0,0,23.14,24.48a11.18,11.18,0,0,0,4.59-12C27.64,12.13,28,13.37,27.73,12.49Z"/><path class="cls-248" d="M27.73,12.49A11.08,11.08,0,0,0,7.08,10.32a11.08,11.08,0,0,0,16,14.16,11.18,11.18,0,0,0,4.6-12Z"/><path class="cls-249" d="M27.72,12.49A11.08,11.08,0,0,0,7.08,10.32a11.07,11.07,0,0,0,16,14.15,11.18,11.18,0,0,0,4.59-12Z"/><path class="cls-250" d="M27.71,12.49A11.07,11.07,0,0,0,7.09,10.32a11.07,11.07,0,0,0,16,14.15,11.16,11.16,0,0,0,4.58-12Z"/><path d="M27.71,12.49A11.07,11.07,0,0,0,7.09,10.32a11.06,11.06,0,0,0,16,14.14,11.16,11.16,0,0,0,4.59-12C27.62,12.14,27.93,13.38,27.71,12.49Z"/></g><g class="cls-251"><circle class="cls-252" cx="17" cy="15.25" r="11.05"/><path class="cls-253" d="M17,4.19A11.06,11.06,0,1,0,28.06,15.25,11.06,11.06,0,0,0,17,4.19ZM17,26A10.75,10.75,0,1,1,27.75,15.25,10.75,10.75,0,0,1,17,26Z"/><circle class="cls-254" cx="17" cy="15.25" r="8.73" transform="translate(-0.78 29.58) rotate(-80.76)"/><circle class="cls-255" cx="17" cy="15.25" r="8.73" transform="translate(-0.78 29.58) rotate(-80.76)"/><circle class="cls-256" cx="17" cy="15.25" r="8.44"/><g class="cls-257"><g class="cls-258"><path class="cls-259" d="M23.89,16.26a.25.25,0,0,1-.22-.28.27.27,0,0,1,.27-.23.26.26,0,0,1,.24.29A.26.26,0,0,1,23.89,16.26Z"/><path class="cls-260" d="M23.67,17.25a.27.27,0,0,1-.18-.31.26.26,0,0,1,.31-.18.24.24,0,0,1,.18.31A.24.24,0,0,1,23.67,17.25Z"/><path class="cls-261" d="M23.3,18.2a.26.26,0,0,1,.2-.47.26.26,0,0,1,.15.34A.27.27,0,0,1,23.3,18.2Z"/><path class="cls-262" d="M22.81,19.09a.26.26,0,0,1-.08-.35.27.27,0,0,1,.35-.09.26.26,0,0,1,.08.36A.25.25,0,0,1,22.81,19.09Z"/><path class="cls-263" d="M22.19,19.89a.24.24,0,0,1,0-.35.25.25,0,0,1,.35,0,.27.27,0,0,1,0,.37A.25.25,0,0,1,22.19,19.89Z"/><path class="cls-264" d="M21.46,20.6a.26.26,0,0,1,0-.36.25.25,0,0,1,.35,0,.25.25,0,0,1,0,.36A.25.25,0,0,1,21.46,20.6Z"/><path class="cls-265" d="M20.63,21.19a.26.26,0,0,1,.07-.35.26.26,0,0,1,.29.43A.27.27,0,0,1,20.63,21.19Z"/><path class="cls-266" d="M19.73,21.66a.26.26,0,0,1,.12-.34.26.26,0,0,1,.34.12.25.25,0,0,1-.13.34A.24.24,0,0,1,19.73,21.66Z"/><path class="cls-267" d="M18.76,22a.26.26,0,0,1,.18-.31.26.26,0,0,1,.31.17.25.25,0,0,1-.17.32A.26.26,0,0,1,18.76,22Z"/><path class="cls-268" d="M17.76,22.17a.27.27,0,0,1,.22-.29.27.27,0,0,1,.29.21.25.25,0,0,1-.22.29A.24.24,0,0,1,17.76,22.17Z"/><path class="cls-269" d="M16.75,22.2A.24.24,0,0,1,17,22a.25.25,0,0,1,.26.24.27.27,0,0,1-.26.27A.26.26,0,0,1,16.75,22.2Z"/><path class="cls-270" d="M15.74,22.09a.26.26,0,0,1,.29-.21.27.27,0,0,1,.21.29.24.24,0,0,1-.29.21A.24.24,0,0,1,15.74,22.09Z"/><path class="cls-271" d="M14.75,21.84a.27.27,0,0,1,.32-.17.25.25,0,0,1,.17.31.25.25,0,0,1-.32.18A.26.26,0,0,1,14.75,21.84Z"/><path class="cls-272" d="M13.82,21.44a.25.25,0,0,1,.34-.12.27.27,0,0,1,.12.34.25.25,0,0,1-.34.12A.25.25,0,0,1,13.82,21.44Z"/><path class="cls-273" d="M13,20.91a.26.26,0,0,1,.35-.07.27.27,0,0,1,.08.35.27.27,0,0,1-.36.08A.25.25,0,0,1,13,20.91Z"/><path class="cls-274" d="M12.17,20.26a.25.25,0,0,1,.38.34.25.25,0,1,1-.38-.34Z"/><path class="cls-275" d="M11.49,19.5a.26.26,0,0,1,.33.39.26.26,0,1,1-.33-.39Z"/><path class="cls-276" d="M10.93,18.65a.27.27,0,0,1,.35.09.26.26,0,0,1-.09.35.25.25,0,0,1-.35-.08A.27.27,0,0,1,10.93,18.65Z"/><path class="cls-277" d="M10.5,17.73a.25.25,0,0,1,.32.14.24.24,0,0,1-.12.33.26.26,0,1,1-.2-.47Z"/><path class="cls-278" d="M10.2,16.76a.26.26,0,0,1,.31.18.25.25,0,0,1-.18.31.24.24,0,0,1-.31-.18A.25.25,0,0,1,10.2,16.76Z"/><path class="cls-279" d="M10.06,15.75a.27.27,0,0,1,.27.23.25.25,0,0,1-.21.28.27.27,0,0,1-.3-.22A.27.27,0,0,1,10.06,15.75Z"/><path class="cls-280" d="M10.06,14.74a.25.25,0,0,1,.24.26.26.26,0,0,1-.27.25A.25.25,0,0,1,9.79,15,.26.26,0,0,1,10.06,14.74Z"/><path class="cls-281" d="M10.2,13.73a.28.28,0,0,1,.21.3.25.25,0,0,1-.29.2.26.26,0,0,1-.22-.29A.25.25,0,0,1,10.2,13.73Z"/><path class="cls-282" d="M10.5,12.76a.25.25,0,0,1,.15.32.26.26,0,0,1-.32.16.24.24,0,0,1-.16-.32A.26.26,0,0,1,10.5,12.76Z"/><path class="cls-283" d="M10.93,11.84a.27.27,0,0,1,.11.34.26.26,0,0,1-.34.11.25.25,0,0,1-.12-.34A.25.25,0,0,1,10.93,11.84Z"/><path class="cls-284" d="M11.49,11a.26.26,0,0,1,.06.35.27.27,0,0,1-.36.06.24.24,0,0,1-.06-.35A.26.26,0,0,1,11.49,11Z"/><path class="cls-285" d="M12.17,10.23a.26.26,0,0,1,0,.36.24.24,0,0,1-.35,0,.25.25,0,0,1,.35-.37Z"/><path class="cls-286" d="M13,9.58a.26.26,0,0,1,0,.36.25.25,0,0,1-.35,0,.23.23,0,0,1,0-.35A.25.25,0,0,1,13,9.58Z"/><path class="cls-287" d="M13.82,9.05a.28.28,0,0,1-.1.35A.26.26,0,0,1,13.47,9,.25.25,0,0,1,13.82,9.05Z"/><path class="cls-288" d="M14.75,8.66a.25.25,0,0,1-.14.32.26.26,0,0,1-.33-.15.24.24,0,0,1,.14-.32A.24.24,0,0,1,14.75,8.66Z"/><path class="cls-289" d="M15.74,8.4a.27.27,0,0,1-.2.3.26.26,0,1,1,.2-.3Z"/><path class="cls-290" d="M16.75,8.29a.26.26,0,0,1-.24.27.28.28,0,0,1-.27-.24.24.24,0,0,1,.24-.27A.26.26,0,0,1,16.75,8.29Z"/><path class="cls-291" d="M17.76,8.32a.26.26,0,0,1-.27.24.26.26,0,0,1-.23-.27.25.25,0,0,1,.27-.24A.24.24,0,0,1,17.76,8.32Z"/><path class="cls-292" d="M18.76,8.51a.25.25,0,0,1-.3.19.26.26,0,0,1-.19-.3.24.24,0,0,1,.3-.2A.26.26,0,0,1,18.76,8.51Z"/><path class="cls-293" d="M19.73,8.83A.27.27,0,0,1,19.4,9a.25.25,0,0,1-.15-.32.24.24,0,0,1,.33-.15A.24.24,0,0,1,19.73,8.83Z"/><path class="cls-294" d="M20.63,9.31a.26.26,0,0,1-.44-.26.25.25,0,0,1,.35-.1A.27.27,0,0,1,20.63,9.31Z"/><path class="cls-295" d="M21.46,9.89a.27.27,0,0,1-.36,0,.26.26,0,0,1-.05-.36.25.25,0,0,1,.36,0A.24.24,0,0,1,21.46,9.89Z"/><path class="cls-296" d="M22.19,10.6a.25.25,0,0,1-.36,0,.27.27,0,0,1,0-.36.26.26,0,0,1,.37,0A.25.25,0,0,1,22.19,10.6Z"/><path class="cls-297" d="M22.81,11.4a.25.25,0,0,1-.3-.41.26.26,0,0,1,.36.06A.24.24,0,0,1,22.81,11.4Z"/><path class="cls-298" d="M23.3,12.29a.25.25,0,0,1-.33-.11.25.25,0,0,1,.11-.34.24.24,0,0,1,.34.11A.25.25,0,0,1,23.3,12.29Z"/><path class="cls-299" d="M23.67,13.24a.26.26,0,0,1-.32-.16.25.25,0,0,1,.15-.32.25.25,0,0,1,.33.16A.24.24,0,0,1,23.67,13.24Z"/><path class="cls-300" d="M23.89,14.23a.25.25,0,0,1-.29-.2.26.26,0,0,1,.2-.3.25.25,0,0,1,.3.21A.25.25,0,0,1,23.89,14.23Z"/><path class="cls-301" d="M24,15.25A.27.27,0,0,1,23.7,15a.25.25,0,0,1,.24-.26.26.26,0,0,1,.27.24A.25.25,0,0,1,24,15.25Z"/></g><g class="cls-258"><path class="cls-259" d="M23.89,16.26a.25.25,0,0,1-.22-.28.27.27,0,0,1,.27-.23.26.26,0,0,1,.24.29A.26.26,0,0,1,23.89,16.26Z"/><path class="cls-260" d="M23.67,17.25a.27.27,0,0,1-.18-.31.26.26,0,0,1,.31-.18.24.24,0,0,1,.18.31A.24.24,0,0,1,23.67,17.25Z"/><path class="cls-261" d="M23.3,18.2a.26.26,0,0,1,.2-.47.26.26,0,0,1,.15.34A.27.27,0,0,1,23.3,18.2Z"/><path class="cls-262" d="M22.81,19.09a.26.26,0,0,1-.08-.35.27.27,0,0,1,.35-.09.26.26,0,0,1,.08.36A.25.25,0,0,1,22.81,19.09Z"/><path class="cls-263" d="M22.19,19.89a.24.24,0,0,1,0-.35.25.25,0,0,1,.35,0,.27.27,0,0,1,0,.37A.25.25,0,0,1,22.19,19.89Z"/><path class="cls-264" d="M21.46,20.6a.26.26,0,0,1,0-.36.25.25,0,0,1,.35,0,.25.25,0,0,1,0,.36A.25.25,0,0,1,21.46,20.6Z"/><path class="cls-265" d="M20.63,21.19a.26.26,0,0,1,.07-.35.26.26,0,0,1,.29.43A.27.27,0,0,1,20.63,21.19Z"/><path class="cls-266" d="M19.73,21.66a.26.26,0,0,1,.12-.34.26.26,0,0,1,.34.12.25.25,0,0,1-.13.34A.24.24,0,0,1,19.73,21.66Z"/><path class="cls-267" d="M18.76,22a.26.26,0,0,1,.18-.31.26.26,0,0,1,.31.17.25.25,0,0,1-.17.32A.26.26,0,0,1,18.76,22Z"/><path class="cls-268" d="M17.76,22.17a.27.27,0,0,1,.22-.29.27.27,0,0,1,.29.21.25.25,0,0,1-.22.29A.24.24,0,0,1,17.76,22.17Z"/><path class="cls-269" d="M16.75,22.2A.24.24,0,0,1,17,22a.25.25,0,0,1,.26.24.27.27,0,0,1-.26.27A.26.26,0,0,1,16.75,22.2Z"/><path class="cls-270" d="M15.74,22.09a.26.26,0,0,1,.29-.21.27.27,0,0,1,.21.29.24.24,0,0,1-.29.21A.24.24,0,0,1,15.74,22.09Z"/><path class="cls-271" d="M14.75,21.84a.27.27,0,0,1,.32-.17.25.25,0,0,1,.17.31.25.25,0,0,1-.32.18A.26.26,0,0,1,14.75,21.84Z"/><path class="cls-272" d="M13.82,21.44a.25.25,0,0,1,.34-.12.27.27,0,0,1,.12.34.25.25,0,0,1-.34.12A.25.25,0,0,1,13.82,21.44Z"/><path class="cls-273" d="M13,20.91a.26.26,0,0,1,.35-.07.27.27,0,0,1,.08.35.27.27,0,0,1-.36.08A.25.25,0,0,1,13,20.91Z"/><path class="cls-274" d="M12.17,20.26a.25.25,0,0,1,.38.34.25.25,0,1,1-.38-.34Z"/><path class="cls-275" d="M11.49,19.5a.26.26,0,0,1,.33.39.26.26,0,1,1-.33-.39Z"/><path class="cls-276" d="M10.93,18.65a.27.27,0,0,1,.35.09.26.26,0,0,1-.09.35.25.25,0,0,1-.35-.08A.27.27,0,0,1,10.93,18.65Z"/><path class="cls-277" d="M10.5,17.73a.25.25,0,0,1,.32.14.24.24,0,0,1-.12.33.26.26,0,1,1-.2-.47Z"/><path class="cls-278" d="M10.2,16.76a.26.26,0,0,1,.31.18.25.25,0,0,1-.18.31.24.24,0,0,1-.31-.18A.25.25,0,0,1,10.2,16.76Z"/><path class="cls-279" d="M10.06,15.75a.27.27,0,0,1,.27.23.25.25,0,0,1-.21.28.27.27,0,0,1-.3-.22A.27.27,0,0,1,10.06,15.75Z"/><path class="cls-280" d="M10.06,14.74a.25.25,0,0,1,.24.26.26.26,0,0,1-.27.25A.25.25,0,0,1,9.79,15,.26.26,0,0,1,10.06,14.74Z"/><path class="cls-281" d="M10.2,13.73a.28.28,0,0,1,.21.3.25.25,0,0,1-.29.2.26.26,0,0,1-.22-.29A.25.25,0,0,1,10.2,13.73Z"/><path class="cls-282" d="M10.5,12.76a.25.25,0,0,1,.15.32.26.26,0,0,1-.32.16.24.24,0,0,1-.16-.32A.26.26,0,0,1,10.5,12.76Z"/><path class="cls-283" d="M10.93,11.84a.27.27,0,0,1,.11.34.26.26,0,0,1-.34.11.25.25,0,0,1-.12-.34A.25.25,0,0,1,10.93,11.84Z"/><path class="cls-284" d="M11.49,11a.26.26,0,0,1,.06.35.27.27,0,0,1-.36.06.24.24,0,0,1-.06-.35A.26.26,0,0,1,11.49,11Z"/><path class="cls-285" d="M12.17,10.23a.26.26,0,0,1,0,.36.24.24,0,0,1-.35,0,.25.25,0,0,1,.35-.37Z"/><path class="cls-286" d="M13,9.58a.26.26,0,0,1,0,.36.25.25,0,0,1-.35,0,.23.23,0,0,1,0-.35A.25.25,0,0,1,13,9.58Z"/><path class="cls-287" d="M13.82,9.05a.28.28,0,0,1-.1.35A.26.26,0,0,1,13.47,9,.25.25,0,0,1,13.82,9.05Z"/><path class="cls-288" d="M14.75,8.66a.25.25,0,0,1-.14.32.26.26,0,0,1-.33-.15.24.24,0,0,1,.14-.32A.24.24,0,0,1,14.75,8.66Z"/><path class="cls-289" d="M15.74,8.4a.27.27,0,0,1-.2.3.26.26,0,1,1,.2-.3Z"/><path class="cls-290" d="M16.75,8.29a.26.26,0,0,1-.24.27.28.28,0,0,1-.27-.24.24.24,0,0,1,.24-.27A.26.26,0,0,1,16.75,8.29Z"/><path class="cls-291" d="M17.76,8.32a.26.26,0,0,1-.27.24.26.26,0,0,1-.23-.27.25.25,0,0,1,.27-.24A.24.24,0,0,1,17.76,8.32Z"/><path class="cls-292" d="M18.76,8.51a.25.25,0,0,1-.3.19.26.26,0,0,1-.19-.3.24.24,0,0,1,.3-.2A.26.26,0,0,1,18.76,8.51Z"/><path class="cls-293" d="M19.73,8.83A.27.27,0,0,1,19.4,9a.25.25,0,0,1-.15-.32.24.24,0,0,1,.33-.15A.24.24,0,0,1,19.73,8.83Z"/><path class="cls-294" d="M20.63,9.31a.26.26,0,0,1-.44-.26.25.25,0,0,1,.35-.1A.27.27,0,0,1,20.63,9.31Z"/><path class="cls-295" d="M21.46,9.89a.27.27,0,0,1-.36,0,.26.26,0,0,1-.05-.36.25.25,0,0,1,.36,0A.24.24,0,0,1,21.46,9.89Z"/><path class="cls-296" d="M22.19,10.6a.25.25,0,0,1-.36,0,.27.27,0,0,1,0-.36.26.26,0,0,1,.37,0A.25.25,0,0,1,22.19,10.6Z"/><path class="cls-297" d="M22.81,11.4a.25.25,0,0,1-.3-.41.26.26,0,0,1,.36.06A.24.24,0,0,1,22.81,11.4Z"/><path class="cls-298" d="M23.3,12.29a.25.25,0,0,1-.33-.11.25.25,0,0,1,.11-.34.24.24,0,0,1,.34.11A.25.25,0,0,1,23.3,12.29Z"/><path class="cls-299" d="M23.67,13.24a.26.26,0,0,1-.32-.16.25.25,0,0,1,.15-.32.25.25,0,0,1,.33.16A.24.24,0,0,1,23.67,13.24Z"/><path class="cls-300" d="M23.89,14.23a.25.25,0,0,1-.29-.2.26.26,0,0,1,.2-.3.25.25,0,0,1,.3.21A.25.25,0,0,1,23.89,14.23Z"/><path class="cls-301" d="M24,15.25A.27.27,0,0,1,23.7,15a.25.25,0,0,1,.24-.26.26.26,0,0,1,.27.24A.25.25,0,0,1,24,15.25Z"/></g></g><path class="cls-302" d="M17,6.81a8.44,8.44,0,1,0,8.44,8.44A8.44,8.44,0,0,0,17,6.81Zm0,16.33a7.9,7.9,0,1,1,7.9-7.89A7.89,7.89,0,0,1,17,23.14Z"/><g class="cls-303"><path class="cls-304" d="M23.57,5.53c3.5,1.82,5.65,4.61,4.81,6.22S24,13.2,20.52,11.38s-5.65-4.61-4.81-6.22S20.07,3.71,23.57,5.53Z"/></g><g class="cls-305"><path class="cls-306" d="M24.24,9.58a2.47,2.47,0,1,1-1.06-3.34A2.47,2.47,0,0,1,24.24,9.58Z"/></g><g class="cls-307"><path class="cls-308" d="M12.52,19.76c1.94,1.2,3,3,2.35,4.08s-2.76.91-4.7-.3-3-3-2.35-4.07S10.58,18.55,12.52,19.76Z"/></g><path class="cls-309" d="M17.49,16.34c1.65-1.09,2.52-1.53,2.52-3,0-1.17-1-1.94-2.49-1.94-2,0-3.07.86-3.07,2.18,0,.07,0,.37,0,.44h2v-.3a.79.79,0,0,1,.84-.73h.15a.54.54,0,0,1,.4.58c0,.41-.93.93-2.51,2.33a2.21,2.21,0,0,0-.85,1.85v.45h5.62V16.34Z"/><path class="cls-310" d="M19.82,13.42c0,1.38-1.39,2.05-2.7,3H19.9V18H14.65v-.45a2.14,2.14,0,0,1,.88-1.64C17,14.6,18,14.09,18,13.49c0-.35-.23-.67-.79-.67a.88.88,0,0,0-.83.5,1.42,1.42,0,0,0-.07.55H14.67s0-.46,0-.58c.17-1.09,1.06-1.77,2.69-1.77S19.82,12.27,19.82,13.42Z"/></g><path class="cls-311" d="M28.05,31.73v0h.18c.59,0,1.83.17,3,.31h.13l2.62.34a16.45,16.45,0,0,0-3.45-7.23h0c-.4-.52-.81-1-1.2-1.44a6.17,6.17,0,0,0,.66-.59.82.82,0,0,0,.24-.84,11.22,11.22,0,0,0-1.89-1.52,2.87,2.87,0,0,0,.5.07,3.17,3.17,0,0,0,1-.09h0a1.85,1.85,0,0,0,.33-.12l.22-.11.08,0,.27-.19h0L31,20h0a4.64,4.64,0,0,0,.86-1.25.84.84,0,0,0,0-.88A11.8,11.8,0,0,0,29.57,17,3.08,3.08,0,0,0,31,16.53a2.21,2.21,0,0,0,.29-.22l.17-.18a.46.46,0,0,0,.07-.07,2.48,2.48,0,0,0,.19-.26h0a4.15,4.15,0,0,0,.6-1.75.84.84,0,0,0-.3-.83,11.48,11.48,0,0,0-2.42-.11l.16-.08a2.94,2.94,0,0,0,1-.81,1.87,1.87,0,0,0,.2-.29,2.4,2.4,0,0,0,.11-.23s0,0,0-.08.08-.21.11-.31v0c0-.11.05-.22.07-.33h0a4.5,4.5,0,0,0,0-1.51.84.84,0,0,0-.54-.7,11.39,11.39,0,0,0-2.34.64,3.66,3.66,0,0,0,.55-.63,2.89,2.89,0,0,0,.3-.58,3.37,3.37,0,0,0,.1-.34l0-.24s0-.07,0-.1,0-.22,0-.32v0c0-.11,0-.23,0-.34h0a4.62,4.62,0,0,0-.51-1.43.82.82,0,0,0-.73-.49,11.75,11.75,0,0,0-2,1.33l.09-.16a2.71,2.71,0,0,0,.13-.3,2.79,2.79,0,0,0,.21-1h0c0-.12,0-.24,0-.36a2,2,0,0,0,0-.24s0-.06,0-.09a2.81,2.81,0,0,0-.1-.31v0a4.07,4.07,0,0,0-1.06-1.51A.82.82,0,0,0,24.4,2a11.22,11.22,0,0,0-1.52,1.89,3.09,3.09,0,0,0,0-1.48,2.19,2.19,0,0,0-.12-.33,1.51,1.51,0,0,0-.11-.22l-.05-.09a2.48,2.48,0,0,0-.19-.26h0a2.75,2.75,0,0,0-.22-.26h0A4.61,4.61,0,0,0,20.9.43a.82.82,0,0,0-.88,0,11.9,11.9,0,0,0-.86,2.26,4.37,4.37,0,0,0-.09-.5,3.06,3.06,0,0,0-.39-.89h0a1.78,1.78,0,0,0-.21-.27L18.28.87,18.21.81,18,.61h0A4.15,4.15,0,0,0,16.19,0a.82.82,0,0,0-.83.3,11.43,11.43,0,0,0-.11,2.42,2.91,2.91,0,0,0-.18-.35c-.08-.12-.16-.25-.25-.36l-.21-.25-.25-.22-.29-.2-.23-.11-.08,0-.31-.1h0L13.1,1h0a4.26,4.26,0,0,0-1.51.05.8.8,0,0,0-.7.54,11.53,11.53,0,0,0,.64,2.33,3.18,3.18,0,0,0-1.21-.84h0A2.19,2.19,0,0,0,10,3a2,2,0,0,0-.24,0l-.1,0a1.71,1.71,0,0,0-.32,0h0L9,3H9a4.62,4.62,0,0,0-1.43.51A.82.82,0,0,0,7,4.22a11.69,11.69,0,0,0,1.33,2,.83.83,0,0,0-.16-.09L7.91,6a3,3,0,0,0-1-.2H7a2.17,2.17,0,0,0-.36,0l-.24,0-.1,0A1.76,1.76,0,0,0,6,6h0A4.19,4.19,0,0,0,4.43,7.05a.84.84,0,0,0-.24.85A11.34,11.34,0,0,0,6.08,9.41a4.46,4.46,0,0,0-.51-.07H5.25a2.93,2.93,0,0,0-.65.1,1.85,1.85,0,0,0-.33.12l-.22.12L4,9.72l-.26.19h0l-.26.23h0a4.46,4.46,0,0,0-.85,1.25.82.82,0,0,0,0,.88,11.42,11.42,0,0,0,2.26.85,4.37,4.37,0,0,0-.5.09,3.09,3.09,0,0,0-.89.4h0a1.93,1.93,0,0,0-.28.22L3,14,3,14.08a2.61,2.61,0,0,0-.19.27h0a1.69,1.69,0,0,0-.17.29h0a4.39,4.39,0,0,0-.43,1.46.81.81,0,0,0,.3.82,11.91,11.91,0,0,0,2.42.12,2.42,2.42,0,0,0-.45.24,2.6,2.6,0,0,0-.62.53l-.11.11h0a3,3,0,0,0-.2.29l-.11.22,0,.09a2.81,2.81,0,0,0-.1.31h0a3.4,3.4,0,0,0-.07.34h0a4.27,4.27,0,0,0,.05,1.51.8.8,0,0,0,.54.69,11.53,11.53,0,0,0,2.33-.64A3.18,3.18,0,0,0,5.25,22h0a1.91,1.91,0,0,0-.1.34,1,1,0,0,0,0,.24.3.3,0,0,0,0,.1,1.71,1.71,0,0,0,0,.32v0a1.1,1.1,0,0,0,0,.18C3.11,25.31.61,28.62,0,32.36L2.62,32h.13c1.19-.14,2.43-.28,3-.31h.18v.05l0,0a17.94,17.94,0,0,0,3.1,5.15,61.23,61.23,0,0,1,3.09-6h0c.3-.49.6-1,.91-1.47l0,0c.14.08.29.17.44.24a.84.84,0,0,0,.88,0,11.33,11.33,0,0,0,.85-2.27,3.18,3.18,0,0,0,.49,1.4,1.93,1.93,0,0,0,.22.28c0,.06.11.11.17.17a.46.46,0,0,1,.07.07l.26.19h0l.29.17h0a4.64,4.64,0,0,0,1.46.43.83.83,0,0,0,.82-.3,12,12,0,0,0,.12-2.42,1.11,1.11,0,0,0,.07.16,3.07,3.07,0,0,0,.81,1,2.61,2.61,0,0,0,.3.2l.09.05a57.83,57.83,0,0,1,4.45,8.1A17.7,17.7,0,0,0,28,31.79l0,0Z"/></g></g></g></svg>